<?xml version="1.0" standalone="no"?>
<!DOCTYPE svg PUBLIC "-//W3C//DTD SVG 1.1//EN" "http://www.w3.org/Graphics/SVG/1.1/DTD/svg11.dtd" >
<svg xmlns="http://www.w3.org/2000/svg" xmlns:xlink="http://www.w3.org/1999/xlink" version="1.1">
<metadata>
Created by FontForge 20170731 at Mon Sep  7 18:59:21 2020
 By Aleksey,,,
Font software Copyright 1990, 1991, 1998 Adobe Systems Incorporated. Typeface designs Copyright The Monotype Corporation. All rights reserved.
</metadata>
<defs>
<font id="GillSans" horiz-adv-x="1024" >
  <font-face 
    font-family="Gill Sans"
    font-weight="400"
    font-stretch="normal"
    units-per-em="2048"
    panose-1="2 11 5 2 2 1 4 2 2 3"
    ascent="1397"
    descent="-651"
    x-height="920"
    cap-height="1397"
    bbox="-365 -471 2128 1866"
    underline-thickness="102"
    underline-position="-307"
    unicode-range="U+0020-FB04"
  />
<missing-glyph 
d="M25 0v1362h972v-1362h-972zM180 1266l332 -498l330 498h-662zM123 1178v-992q0 -1 82.5 123t164.5 249l83 124zM901 1178l-332 -496l332 -498v994zM842 98l-330 496l-332 -496h662z" />
    <glyph glyph-name="fi" unicode="fi" horiz-adv-x="940" 
d="M305 987v-67h197v-125h-197v-795h-141v795h-148v125h148v61q0 223 92.5 328.5t245.5 105.5q81 0 142 -23.5t95.5 -64.5t51 -88.5t16.5 -101.5h-135q-10 82 -50 117.5t-120 35.5q-42 0 -75 -13t-62 -45t-44.5 -94t-15.5 -151zM807 920v-920h-141v920h141zM807 920v-920
h-141v920h141zM807 920v-920h-141v920h141z" />
    <glyph glyph-name="fl" unicode="fl" horiz-adv-x="940" 
d="M590 1389v-138q-59 23 -107 23q-94 0 -136 -61t-42 -203v-90h197v-125h-197v-795h-141v795h-148v125h148v86q0 99 21 175t52.5 119t76 70t84 36t83.5 9q56 0 109 -26zM807 1397v-1397h-141v1397h141zM807 1397v-1397h-141v1397h141zM807 1397v-1397h-141v1397h141z" />
    <glyph glyph-name="f_f" unicode="ff" horiz-adv-x="1058" 
d="M1014 920v-125h-146v-795h-141v795h-410v-795h-141v795h-143v125h143v77v43q0 132 53 224q40 72 118 111.5t165 39.5q79 0 139 -31v-129q-89 27 -135 27q-65 0 -112 -31.5t-66 -83.5q-21 -56 -21 -170v-77h410v114q0 139 55 234q39 67 113 107t168 40q52 0 117 -18v-133
q-78 16 -121 16q-46 0 -93 -23.5t-71 -70.5q-13 -23 -19 -56t-7 -58t-1 -75v-77h146z" />
    <glyph glyph-name="f_f_i" unicode="ffi" horiz-adv-x="1501" 
d="M317 997v-77h385v61q0 114 26.5 199.5t75 135.5t110.5 74.5t137 24.5q83 0 146.5 -24t99.5 -64.5t53.5 -88t17.5 -101.5h-137q-10 81 -52 115t-128 34q-46 0 -80 -12.5t-64.5 -43.5t-46.5 -92t-16 -151v-67h205v-125h-205v-795h-142v795h-385v-795h-141v795h-143v125h143
v120q0 132 53 224q40 72 118 111.5t165 39.5q79 0 139 -31v-124q-86 26 -135 26q-64 0 -111.5 -33t-66.5 -86q-21 -56 -21 -170zM1370 920v-920h-141v920h141z" />
    <glyph glyph-name="f_f_l" unicode="ffl" horiz-adv-x="1523" 
d="M317 997v-77h385v86q0 99 23 175t58 119t84 70t92.5 36t91.5 9q57 0 112 -24v-123q-53 18 -110 18q-110 0 -159.5 -66.5t-49.5 -209.5v-90h221v-125h-221v-795h-142v795h-385v-795h-141v795h-143v125h143v120q0 132 53 224q40 72 118 111.5t165 39.5q79 0 139 -31v-124
q-86 26 -135 26q-64 0 -111.5 -33t-66.5 -86q-21 -56 -21 -170zM1391 1397v-1397h-142v1397h142z" />
    <glyph glyph-name=".notdef" 
d="M25 0v1362h972v-1362h-972zM180 1266l332 -498l330 498h-662zM123 1178v-992q0 -1 82.5 123t164.5 249l83 124zM901 1178l-332 -496l332 -498v994zM842 98l-330 496l-332 -496h662z" />
    <glyph glyph-name=".null" horiz-adv-x="0" 
 />
    <glyph glyph-name="nonmarkingreturn" horiz-adv-x="682" 
 />
    <glyph glyph-name="space" unicode=" " horiz-adv-x="512" 
 />
    <glyph glyph-name="exclam" unicode="!" horiz-adv-x="491" 
d="M246 1415q98 0 98 -258q0 -177 -30.5 -405t-67.5 -228t-68 228t-31 405q0 258 99 258zM246 203q44 0 77 -32.5t33 -78.5t-32 -78t-78 -32t-78.5 32t-32.5 78t32.5 78.5t78.5 32.5z" />
    <glyph glyph-name="quotedbl" unicode="&#x22;" horiz-adv-x="661" 
d="M451 883l-41 276v238h141v-238l-41 -276h-59zM152 883l-41 276v238h141v-238l-41 -276h-59z" />
    <glyph glyph-name="numbersign" unicode="#" horiz-adv-x="1366" 
d="M88 1010h326l88 405h123l-88 -405h421l84 405h123l-84 -405h197v-123h-223l-76 -377h299v-123h-324l-88 -405h-123l88 405h-421l-86 -405h-123l86 405h-199v123h225l76 377h-301v123zM932 887h-420l-78 -377h422z" />
    <glyph glyph-name="dollar" unicode="$" horiz-adv-x="1087" 
d="M946 1225v-172q-144 125 -328 155v-469q201 -60 296.5 -161.5t95.5 -225.5q0 -35 -9.5 -75t-37 -89t-69 -90t-113.5 -73t-163 -43v-224h-133v224q-214 18 -397 153v182q104 -85 187.5 -129t209.5 -65v504q-58 18 -105 36.5t-102.5 51t-93 70t-63 92.5t-25.5 120
q0 41 10 81t37 85t69 81t112.5 64.5t160.5 39.5v67h133v-67q204 -26 328 -123zM485 780v428q-97 -5 -168 -61t-71 -139q0 -39 14 -71.5t33.5 -54t55 -42t63.5 -32t73 -28.5zM618 575v-450q109 10 173.5 71t64.5 142q0 40 -12 72t-28.5 53.5t-51.5 42.5t-64 34.5t-82 34.5z
" />
    <glyph glyph-name="percent" unicode="%" horiz-adv-x="1429" 
d="M1053 621q132 0 225.5 -94t93.5 -226t-93.5 -225.5t-225.5 -93.5t-226 93.5t-94 225.5t94 226t226 94zM1053 100q83 0 141.5 59t58.5 142t-58.5 142t-141.5 59t-142 -59t-59 -142t59 -142t142 -59zM377 1415q132 0 225.5 -93.5t93.5 -225.5t-93.5 -226t-225.5 -94
t-226 94t-94 226t94 225.5t226 93.5zM377 895q83 0 142 59t59 142t-59 141.5t-142 58.5t-142 -58.5t-59 -141.5t59 -142t142 -59zM1290 1397l-1022 -1397h-129l1022 1397h129z" />
    <glyph glyph-name="ampersand" unicode="&#x26;" horiz-adv-x="1280" 
d="M981 313l283 -313h-197l-186 205q-3 -2 -25.5 -24t-35.5 -33.5t-43 -35.5t-54 -39t-61.5 -34t-72.5 -30t-80.5 -19t-92.5 -8q-142 0 -248.5 94.5t-106.5 238.5q0 127 91 234t247 184q-92 99 -129 175t-37 151q0 135 94.5 223t245.5 88q101 0 177 -44.5t112.5 -111.5
t36.5 -143q0 -57 -20.5 -110t-47.5 -89t-70 -73t-70 -55t-66 -42l256 -278q83 107 151 272h158q-71 -203 -209 -383zM530 807q224 103 224 256q0 67 -48 119.5t-137 52.5q-49 0 -87.5 -16t-60 -41.5t-32 -53.5t-10.5 -55q0 -117 151 -262zM782 313l-290 316
q-75 -48 -126.5 -88t-79 -67.5t-41.5 -56t-17 -45.5t-3 -44q0 -85 58 -143t157 -58q56 0 104.5 14.5t94 46.5t72 56t71.5 69z" />
    <glyph glyph-name="quotesingle" unicode="'" horiz-adv-x="405" 
d="M174 883l-41 276v238h141v-238l-41 -276h-59z" />
    <glyph glyph-name="parenleft" unicode="(" horiz-adv-x="681" 
d="M657 -471h-108q-40 46 -63 73t-70 90t-77 114t-68.5 132t-61.5 157.5t-39 176t-16 201.5q0 100 16.5 199t39 175t62 157t69.5 132.5t77 115.5t69 90.5t62 72.5h108q-350 -403 -350 -942q0 -291 99 -534.5t251 -409.5z" />
    <glyph glyph-name="parenright" unicode=")" horiz-adv-x="681" 
d="M25 1415h108q40 -46 63 -73t70 -90t77 -114t68.5 -132t61.5 -157.5t39 -176t16 -201.5q0 -100 -16.5 -199t-39 -175t-62 -157t-69.5 -132.5t-77 -115.5t-69 -90.5t-62 -72.5h-108q350 403 350 942q0 291 -99 534.5t-251 409.5z" />
    <glyph glyph-name="asterisk" unicode="*" horiz-adv-x="768" 
d="M434 1071l148 139q43 43 80 43q20 0 36.5 -17.5t16.5 -43.5q0 -29 -18 -45.5t-66 -34.5l-187 -68q8 -23 0 -38l177 -64q96 -31 96 -86q0 -18 -16.5 -39.5t-41.5 -21.5q-39 0 -98 59l-127 127q-16 -16 -35 -18l35 -187q8 -50 8 -84q0 -22 -14.5 -41.5t-42.5 -19.5
q-33 0 -47 19t-14 44q0 12 14 86l35 183q-22 4 -33 18l-137 -127q-63 -57 -94 -57q-29 0 -43.5 20.5t-14.5 42.5q0 25 20 41.5t85 40.5l172 64q-4 8 -4 18q0 8 4 20l-197 74q-76 28 -76 74q0 26 17.5 44.5t40.5 18.5q32 0 77 -45l150 -139q12 16 33 16l-33 177
q-12 58 -12 77q0 33 15 53.5t44 20.5q57 0 57 -67q0 -26 -10 -84l-35 -177q17 2 35 -16z" />
    <glyph glyph-name="plus" unicode="+" horiz-adv-x="1366" 
d="M139 764h477v477h134v-477h477v-133h-477v-477h-134v477h-477v133z" />
    <glyph glyph-name="comma" unicode="," horiz-adv-x="491" 
d="M154 -248v33q82 82 71 184q-90 29 -90 115q0 53 32 86t71 33q56 0 87 -47t31 -119q0 -32 -7.5 -67t-27 -79t-62.5 -81.5t-105 -57.5z" />
    <glyph glyph-name="hyphen" unicode="-" horiz-adv-x="661" 
d="M578 530v-94h-494v94h494z" />
    <glyph glyph-name="period" unicode="." horiz-adv-x="491" 
d="M246 203q46 0 78 -32.5t32 -78.5t-32 -78t-78 -32t-78.5 32t-32.5 78t32.5 78.5t78.5 32.5z" />
    <glyph glyph-name="slash" unicode="/" horiz-adv-x="1087" 
d="M834 1415h137l-717 -1433h-137z" />
    <glyph glyph-name="zero" unicode="0" 
d="M63 698q0 168 36.5 305.5t98.5 226.5t142.5 137t171.5 48t171.5 -48t142.5 -137t98.5 -226.5t36.5 -305.5t-36.5 -305.5t-98.5 -226t-142.5 -136.5t-171.5 -48t-171.5 48t-142.5 136.5t-98.5 226t-36.5 305.5zM807 698q0 155 -34 284t-102.5 209.5t-158.5 80.5
t-158.5 -80.5t-102.5 -209.5t-34 -284t34 -284t102 -209t157 -80q91 0 159.5 80t103 208.5t34.5 284.5z" />
    <glyph glyph-name="one" unicode="1" 
d="M588 1397v-1397h-154v1397h154z" />
    <glyph glyph-name="two" unicode="2" 
d="M369 145h589v-145h-886v8q181 189 358 424q140 187 199 312.5t59 242.5q0 74 -27 131t-70 88.5t-89.5 47.5t-91.5 16q-55 0 -109.5 -20t-96.5 -52.5t-65.5 -55t-42.5 -44.5v186q154 131 330 131q174 0 295 -117.5t121 -293.5q0 -68 -17 -139t-54 -146.5t-74.5 -139.5
t-100.5 -148t-108 -140t-119 -146z" />
    <glyph glyph-name="three" unicode="3" 
d="M111 57v156q150 -86 313 -86q48 0 95.5 14.5t91 43.5t71 81.5t27.5 120.5q0 33 -7.5 65.5t-30 70.5t-58.5 67t-99.5 48t-146.5 19v142q64 0 116 12.5t83.5 30.5t55 44.5t33.5 47.5t16 48t6.5 36.5t0.5 21.5q0 104 -76.5 169t-195.5 65q-144 0 -271 -80v145q130 76 281 76
q183 0 299 -98t116 -264q0 -61 -17.5 -112t-39 -81.5t-57 -58t-54.5 -38t-49 -24.5q248 -93 248 -346q0 -81 -26 -149.5t-69 -116t-99.5 -81t-117 -49t-122.5 -15.5q-173 0 -317 75z" />
    <glyph glyph-name="four" unicode="4" 
d="M786 1415v-790h177v-125h-177v-500h-145v500h-614v61l702 854h57zM250 625h391v477z" />
    <glyph glyph-name="five" unicode="5" 
d="M809 1397v-135h-463v-400q40 4 74 4q113 0 203.5 -35.5t146.5 -96.5t85.5 -138t29.5 -164q0 -190 -126.5 -320t-330.5 -130q-169 0 -334 90v161q171 -106 322 -106q140 0 227.5 89.5t87.5 215.5q0 123 -91.5 211t-260.5 88q-111 0 -174 -22v688h604z" />
    <glyph glyph-name="six" unicode="6" 
d="M678 1415l90 -115q-161 -128 -208 -172q-160 -148 -229 -319q-21 -54 -36 -111q129 84 264 84q171 0 281 -117.5t110 -275.5q0 -181 -120.5 -294t-288.5 -113q-199 0 -317 137.5t-118 353.5q0 105 23 206t58 180.5t89 158t101.5 133t110.5 111t101.5 87t88.5 66.5z
M264 535q-4 -46 -4 -86q0 -84 30 -156.5t95 -121t154 -48.5q107 0 182.5 70t75.5 186q0 49 -15 93.5t-45.5 83t-84.5 61t-126 22.5q-149 0 -262 -104z" />
    <glyph glyph-name="seven" unicode="7" 
d="M987 1397l-635 -1415l-135 59l547 1210h-684v146h907z" />
    <glyph glyph-name="eight" unicode="8" 
d="M733 721q102 -61 151.5 -141t49.5 -201q0 -167 -120.5 -282t-301.5 -115q-179 0 -300.5 115t-121.5 282q0 212 203 342q-180 132 -180 311q0 106 55 194.5t146.5 138.5t197.5 50t197.5 -50t146.5 -138.5t55 -194.5q0 -94 -46 -175.5t-132 -135.5zM512 784
q101 0 173.5 72.5t72.5 173.5t-72.5 172.5t-173.5 71.5t-173.5 -71.5t-72.5 -172.5t72.5 -173.5t173.5 -72.5zM512 639q-126 0 -197 -78t-71 -178q0 -109 76 -182.5t192 -73.5q122 0 195 78t73 182q0 115 -77.5 183.5t-190.5 68.5z" />
    <glyph glyph-name="nine" unicode="9" 
d="M346 -18l-90 114q161 128 208 172q160 148 229 319q21 54 36 111q-129 -84 -264 -84q-171 0 -281 118t-110 276q0 181 120.5 294t288.5 113q199 0 317 -137.5t118 -353.5q0 -105 -23 -206t-58 -180.5t-89 -158t-101.5 -133t-110.5 -111t-101.5 -87t-88.5 -66.5zM760 862
q4 46 4 86q0 84 -30 156.5t-95 121t-154 48.5q-107 0 -182.5 -70t-75.5 -186q0 -49 15 -93.5t45.5 -83t84.5 -61t126 -22.5q149 0 262 104z" />
    <glyph glyph-name="colon" unicode=":" horiz-adv-x="491" 
d="M246 203q46 0 78 -32.5t32 -78.5t-32 -78t-78 -32t-78.5 32t-32.5 78t32.5 78.5t78.5 32.5zM246 938q46 0 78 -32.5t32 -78.5t-32 -78t-78 -32t-78.5 32t-32.5 78t32.5 78.5t78.5 32.5z" />
    <glyph glyph-name="semicolon" unicode=";" horiz-adv-x="491" 
d="M246 938q46 0 78 -32.5t32 -78.5t-32 -78t-78 -32t-78.5 32t-32.5 78t32.5 78.5t78.5 32.5zM154 -248v33q82 82 71 184q-90 29 -90 115q0 53 32 86t71 33q56 0 87 -47t31 -119q0 -32 -7.5 -67t-27 -79t-62.5 -81.5t-105 -57.5z" />
    <glyph glyph-name="semicolon" unicode="&#x37e;" horiz-adv-x="491" 
d="M246 938q46 0 78 -32.5t32 -78.5t-32 -78t-78 -32t-78.5 32t-32.5 78t32.5 78.5t78.5 32.5zM154 -248v33q82 82 71 184q-90 29 -90 115q0 53 32 86t71 33q56 0 87 -47t31 -119q0 -32 -7.5 -67t-27 -79t-62.5 -81.5t-105 -57.5z" />
    <glyph glyph-name="less" unicode="&#x3c;" horiz-adv-x="1366" 
d="M139 758l1088 456v-141l-910 -375l910 -374v-142l-1088 457v119z" />
    <glyph glyph-name="equal" unicode="=" horiz-adv-x="1366" 
d="M139 993h1088v-133h-1088v133zM139 535h1088v-134h-1088v134z" />
    <glyph glyph-name="greater" unicode="&#x3e;" horiz-adv-x="1366" 
d="M1227 639l-1088 -457v142l910 374l-910 375v141l1088 -456v-119z" />
    <glyph glyph-name="question" unicode="?" horiz-adv-x="641" 
d="M104 1206h-10l90 191q45 18 97 18q111 0 188.5 -85t77.5 -210q0 -69 -26 -145t-105 -209q-119 -201 -136 -239q-20 -44 -20 -81q0 -29 6 -47q2 -6 6 -14.5t6.5 -14.5t2.5 -10q0 -14 -17 -14q-11 0 -35.5 25.5t-46.5 72t-22 93.5q0 68 28.5 129.5t122.5 210.5
q29 46 54.5 111t25.5 126q0 70 -42 117t-105 47q-84 0 -140 -72zM248 203q46 0 78 -32.5t32 -78.5t-32 -78t-78 -32t-78.5 32t-32.5 78q0 45 33 78t78 33z" />
    <glyph glyph-name="at" unicode="@" horiz-adv-x="1855" 
d="M1245 1006h154l-158 -738q-20 -83 -20 -118q0 -23 17.5 -37.5t39.5 -14.5q38 0 88 24t103 74t97.5 115.5t73.5 159t29 195.5q0 86 -23.5 172t-76 170t-127.5 148.5t-187.5 104t-246.5 39.5q-129 0 -251 -34.5t-228.5 -104.5t-186.5 -167.5t-126 -232.5t-46 -290
q0 -188 65 -337.5t178.5 -244t262.5 -143.5t323 -49q149 0 294.5 41t250.5 123q20 16 38 32t34.5 33.5t25 27t24 28.5t17.5 22h142q-110 -195 -326 -308.5t-498 -113.5q-284 0 -498 107t-331 307.5t-117 468.5q0 173 49 325t136 265t203.5 195t253.5 123.5t284 41.5
q138 0 254.5 -32.5t197 -84.5t144.5 -122t101.5 -141.5t62.5 -147t34 -133t9 -105.5q0 -133 -50.5 -260t-130 -218t-180.5 -146.5t-200 -55.5q-91 0 -128 45.5t-22 130.5q-74 -86 -160.5 -131t-167.5 -45q-65 0 -122 25.5t-98.5 68t-71.5 97.5t-45 116t-15 121q0 110 39 223
t105 204.5t163.5 149.5t204.5 58q111 0 193.5 -59t113.5 -129zM1159 625q0 127 -66.5 207.5t-174.5 80.5q-80 0 -151 -48t-118 -124.5t-74.5 -170t-27.5 -185.5q0 -125 69.5 -210t167.5 -85q100 0 188.5 85t137.5 208t49 242z" />
    <glyph glyph-name="A" unicode="A" horiz-adv-x="1368" 
d="M727 1405l637 -1405h-160l-203 449h-639l-198 -449h-160l621 1405h102zM938 584l-262 579l-254 -579h516z" />
    <glyph glyph-name="B" unicode="B" horiz-adv-x="1130" 
d="M164 1397h350q66 0 126 -10.5t119.5 -36.5t102.5 -66t69.5 -104t26.5 -146q0 -57 -16.5 -106t-39.5 -80t-54.5 -57t-52.5 -37.5t-43 -20.5q77 -15 137.5 -46t95.5 -67.5t57.5 -82t30.5 -84.5t8 -78q0 -63 -24.5 -126.5t-72 -120.5t-129.5 -92.5t-185 -35.5h-506v1397z
M469 1262h-152v-488h152q326 0 326 248q0 128 -78 184t-248 56zM561 639h-244v-504h248q87 0 152 15t102.5 39t60.5 58.5t30.5 67t7.5 72.5q0 37 -10 71t-35.5 68t-65 58.5t-102.5 39.5t-144 15z" />
    <glyph glyph-name="C" unicode="C" horiz-adv-x="1421" 
d="M1331 1298v-165q-252 137 -485 137q-164 0 -298 -74t-211 -206.5t-77 -295.5q0 -164 76.5 -294t208.5 -201.5t295 -71.5q253 0 506 147v-165q-239 -127 -502 -127q-165 0 -306 56.5t-237 153.5t-150.5 227t-54.5 275q0 160 62.5 297.5t166 229t236 143t273.5 51.5
q233 0 497 -117z" />
    <glyph glyph-name="D" unicode="D" horiz-adv-x="1527" 
d="M164 1397h432q139 0 260 -23.5t228 -76.5t183.5 -132.5t120.5 -198.5t44 -268t-44 -268t-120.5 -198.5t-183.5 -132.5t-228 -76t-260 -23h-432v1397zM317 1262v-1127h289q66 0 127.5 6t129 23t124.5 43.5t110.5 70.5t90 101.5t58.5 139t22 179.5t-22 180t-59 139t-90 101
t-110 71t-124.5 44t-129 23t-127.5 6h-289z" />
    <glyph glyph-name="E" unicode="E" horiz-adv-x="1021" 
d="M942 1397v-135h-625v-490h607v-135h-607v-502h641v-135h-794v1397h778z" />
    <glyph glyph-name="F" unicode="F" horiz-adv-x="937" 
d="M893 1397v-135h-576v-459h547v-135h-547v-668h-153v1397h729z" />
    <glyph glyph-name="G" unicode="G" horiz-adv-x="1486" 
d="M1333 1296v-163q-78 48 -161.5 80t-154 44t-108 15.5t-71.5 3.5q-124 0 -232 -45.5t-183.5 -123t-119 -184t-43.5 -225.5q0 -137 51 -250.5t134 -184t184 -108.5t207 -38q29 0 57.5 2t56 6t50.5 8t48.5 10.5t42.5 11t39 12.5t31 11t27.5 10t19.5 7v331h-282v136h436v-564
q-263 -116 -512 -116q-138 0 -259.5 38t-211 105.5t-154 157t-97 195t-32.5 218.5q0 147 54.5 278.5t151 229t238.5 154.5t308 57q72 0 138.5 -9.5t132 -30t106.5 -36t108 -43.5z" />
    <glyph glyph-name="H" unicode="H" horiz-adv-x="1492" 
d="M1329 1397v-1397h-153v639h-859v-639h-153v1397h153v-623h859v623h153z" />
    <glyph glyph-name="I" unicode="I" horiz-adv-x="491" 
d="M322 1397v-1397h-154v1397h154z" />
    <glyph glyph-name="J" unicode="J" horiz-adv-x="479" 
d="M322 1397v-1377q0 -205 -56 -299q-96 -161 -299 -161q-31 0 -47 2l-26 147q32 -4 57 -4q44 0 78.5 10.5t57 26.5t38.5 43.5t24 52.5t12.5 64t5.5 66t1 71v1358h154z" />
    <glyph glyph-name="K" unicode="K" horiz-adv-x="1224" 
d="M1139 1397l-635 -678l743 -719h-207l-723 696v-696h-153v1397h153v-668l631 668h191z" />
    <glyph glyph-name="L" unicode="L" horiz-adv-x="987" 
d="M317 1397v-1262h660v-135h-813v1397h153z" />
    <glyph glyph-name="M" unicode="M" horiz-adv-x="1615" 
d="M1452 1397v-1397h-154v1163l-481 -596h-16l-484 596v-1163h-153v1397h147l498 -613l496 613h147z" />
    <glyph glyph-name="N" unicode="N" horiz-adv-x="1605" 
d="M1442 1397v-1397h-131l-998 1151v-1151h-149v1397h131l997 -1151v1151h150z" />
    <glyph glyph-name="O" unicode="O" horiz-adv-x="1685" 
d="M834 -18q-152 0 -288 54.5t-235 148.5t-157 227.5t-58 285.5q0 139 51.5 267.5t144.5 229t236.5 160.5t313.5 60q166 0 308 -58.5t237 -157t148.5 -228.5t53.5 -273q0 -205 -101 -369.5t-273.5 -255.5t-380.5 -91zM831 127q166 0 301.5 73t214 205t78.5 297
q0 105 -40 205.5t-112 182t-184.5 131t-246.5 49.5q-130 0 -241 -47.5t-185 -127t-115 -183t-41 -216.5q0 -100 30.5 -189.5t84.5 -158t125.5 -119t156.5 -76.5t174 -26z" />
    <glyph glyph-name="P" unicode="P" horiz-adv-x="1056" 
d="M164 1397h399q102 0 182 -22t131.5 -58t85.5 -86.5t48 -103.5t14 -113t-14 -113t-48 -103.5t-85.5 -86.5t-131.5 -58t-182 -22h-246v-631h-153v1397zM547 1262h-230v-496h230q81 0 140.5 17t91.5 41t51.5 60t24.5 65.5t5 64.5t-5 64.5t-24.5 65.5t-51.5 60t-91.5 41
t-140.5 17z" />
    <glyph glyph-name="Q" unicode="Q" horiz-adv-x="1685" 
d="M1532 -111l12 -10l-162 -168q-340 32 -659 279q-188 27 -332 130t-219.5 254t-75.5 324q0 139 51.5 267.5t144.5 229t236.5 160.5t313.5 60q167 0 309 -59t236.5 -158t148 -228t53.5 -270q0 -265 -169.5 -463t-450.5 -245q77 -38 114 -55t99 -42t113 -35t102 -10
q60 0 135 39zM831 127q166 0 301.5 73t214 205t78.5 297q0 105 -40 205.5t-112 182t-184.5 131t-246.5 49.5q-130 0 -241 -47.5t-185 -127t-115 -183t-41 -216.5q0 -100 30.5 -189.5t84.5 -158t125.5 -119t156.5 -76.5t174 -26z" />
    <glyph glyph-name="R" unicode="R" horiz-adv-x="1212" 
d="M164 1397h356q88 0 160 -16t121 -44t85 -64t56 -79.5t29.5 -85.5t9.5 -86q0 -133 -69.5 -217t-180.5 -125q70 -46 134 -131.5t208 -312.5q62 -99 160 -236h-184l-134 211q-79 127 -180 258q-71 91 -140 130.5t-177 39.5h-101v-639h-153v1397zM498 1262h-181v-488h181
q151 0 235 63.5t84 182.5q0 112 -81.5 177t-237.5 65z" />
    <glyph glyph-name="S" unicode="S" horiz-adv-x="937" 
d="M811 1323v-174q-170 127 -317 127q-63 0 -112 -17.5t-76 -43t-44.5 -57t-23 -55t-5.5 -42.5q0 -41 17 -77.5t39.5 -62t63.5 -53.5t69 -43t76 -39q88 -44 144 -76.5t103 -70t72 -76.5t38 -87t13 -111q0 -95 -37.5 -170.5t-98 -120.5t-130.5 -68.5t-141 -23.5
q-185 0 -367 127v188q71 -71 164.5 -123.5t198.5 -52.5q70 0 123 24t81.5 61.5t42 75t13.5 72.5q0 38 -9.5 67.5t-39.5 68t-96 81t-169 91.5q-173 82 -247 172t-74 210q0 162 118.5 266.5t295.5 104.5q162 0 315 -92z" />
    <glyph glyph-name="T" unicode="T" horiz-adv-x="1216" 
d="M1188 1397v-135h-504v-1262h-154v1262h-503v135h1161z" />
    <glyph glyph-name="U" unicode="U" horiz-adv-x="1429" 
d="M1307 1397v-750q0 -147 -17 -233t-61 -162q-25 -45 -64.5 -87t-100.5 -86t-151.5 -70.5t-195.5 -26.5q-36 0 -74.5 3.5t-99.5 18t-115 39t-112 72t-99 110.5q-55 84 -74.5 173.5t-19.5 248.5v750h153v-758q0 -153 25.5 -238.5t87.5 -150.5q61 -64 147 -96.5t181 -32.5
q148 0 247 66t144 159q45 92 45 293v758h154z" />
    <glyph glyph-name="V" unicode="V" horiz-adv-x="1230" 
d="M1227 1397l-588 -1411h-39l-596 1411h156l458 -1082l455 1082h154z" />
    <glyph glyph-name="W" unicode="W" horiz-adv-x="2134" 
d="M2128 1397l-561 -1411h-37l-463 1161l-463 -1161h-39l-559 1411h154l426 -1061l426 1061h112l426 -1061l424 1061h154z" />
    <glyph glyph-name="X" unicode="X" horiz-adv-x="1429" 
d="M1391 1397l-578 -678l614 -719h-190l-520 608l-524 -608h-191l621 719l-582 678h190l486 -568l485 568h189z" />
    <glyph glyph-name="Y" unicode="Y" horiz-adv-x="1226" 
d="M1221 1397l-533 -652v-745h-153v745l-529 652h187l417 -516l424 516h187z" />
    <glyph glyph-name="Z" unicode="Z" horiz-adv-x="1323" 
d="M80 1397h1190v-19l-967 -1243h971v-135h-1247v14l970 1248h-917v135z" />
    <glyph glyph-name="bracketleft" unicode="[" horiz-adv-x="661" 
d="M633 1397v-131h-320v-1588h320v-131h-469v1850h469z" />
    <glyph glyph-name="backslash" unicode="\" horiz-adv-x="1087" 
d="M254 1415l717 -1433h-137l-717 1433h137z" />
    <glyph glyph-name="bracketright" unicode="]" horiz-adv-x="661" 
d="M29 -453v131h319v1588h-319v131h469v-1850h-469z" />
    <glyph glyph-name="asciicircum" unicode="^" horiz-adv-x="1153" 
d="M264 700l-125 27l402 670h71l402 -670l-123 -27l-316 531z" />
    <glyph glyph-name="underscore" unicode="_" 
d="M-12 -154h1048v-102h-1048v102z" />
    <glyph glyph-name="grave" unicode="`" horiz-adv-x="681" 
d="M78 1405h184l182 -322h-90z" />
    <glyph glyph-name="a" unicode="a" horiz-adv-x="897" 
d="M874 162v-96q-118 -84 -182 -84q-27 0 -46 9.5t-29.5 27t-15.5 32t-9 35.5q-81 -61 -141 -82.5t-127 -21.5q-98 0 -168 66.5t-70 166.5q0 58 25.5 107t83 92.5t156.5 78.5t239 60v82q0 23 -2 41.5t-12.5 46t-29 45.5t-54 31.5t-84.5 13.5q-83 0 -150 -35t-137 -100v147
q130 113 299 113q75 0 132.5 -20.5t90.5 -51t53.5 -71.5t27.5 -76t7 -70v-504q0 -29 5 -39t20 -10q37 0 118 66zM590 182v279q-363 -66 -363 -236q0 -39 16.5 -68.5t42 -44t50 -21.5t47.5 -7q103 0 207 98z" />
    <glyph glyph-name="b" unicode="b" horiz-adv-x="1054" 
d="M133 51v1346h141v-576q71 56 117 77q83 40 174 40q94 0 171.5 -38t127.5 -102t77.5 -146t27.5 -171q0 -227 -134 -363t-362 -136q-177 0 -340 69zM274 678v-535q104 -37 211 -37q145 0 241.5 103.5t96.5 259.5q0 147 -82.5 245.5t-203.5 98.5q-58 0 -128.5 -33
t-134.5 -102z" />
    <glyph glyph-name="c" unicode="c" horiz-adv-x="878" 
d="M791 883v-152q-130 76 -252 76q-70 0 -125.5 -25.5t-88.5 -63.5t-55.5 -87t-30.5 -92t-8 -82q0 -48 10.5 -95t35.5 -92.5t62 -80t94.5 -55.5t129.5 -21q112 0 246 59v-139q-137 -51 -260 -51q-145 0 -251.5 62.5t-159 168t-52.5 240.5q0 221 128 353t325 132
q122 0 252 -55z" />
    <glyph glyph-name="d" unicode="d" horiz-adv-x="1050" 
d="M918 0h-324q-242 0 -375 119t-133 340q0 98 30.5 184t87 152t144 104.5t195.5 38.5q20 0 41 -2t37.5 -4.5t35 -7t30.5 -8t28.5 -9.5t23.5 -8.5t21 -8.5t16 -7v514h142v-1397zM776 125v629q-108 59 -211 59q-109 0 -186.5 -50t-112.5 -127.5t-35 -172.5q0 -162 99 -250
t266 -88h180z" />
    <glyph glyph-name="e" unicode="e" horiz-adv-x="985" 
d="M913 483v-32h-682q0 -159 95.5 -252t234.5 -93q180 0 338 130v-144q-32 -22 -54.5 -35t-68.5 -33.5t-104 -31t-127 -10.5q-111 0 -200.5 40t-145 108t-84.5 153t-29 180q0 93 24 171.5t64.5 133.5t94.5 94t114.5 57.5t124.5 18.5q172 0 288.5 -128t116.5 -327zM240 553
h528q-7 71 -33.5 124t-65 81t-77.5 41.5t-80 13.5q-95 0 -171 -64.5t-101 -195.5z" />
    <glyph glyph-name="f" unicode="f" horiz-adv-x="491" 
d="M637 1386v-131q-69 25 -127 25q-106 0 -155.5 -65.5t-49.5 -204.5v-90h172v-125h-172v-795h-141v795h-148v125h148v86q0 107 26.5 188.5t73 128t102 69.5t119.5 23q53 0 152 -29z" />
    <glyph glyph-name="g" unicode="g" horiz-adv-x="874" 
d="M858 920v-113h-199q21 -19 36 -35.5t35 -45t31 -65.5t11 -79q0 -119 -75 -196t-195 -105q-130 -31 -176.5 -52t-46.5 -61t43.5 -60t156.5 -34q203 -26 290 -90t87 -179q0 -90 -59 -154t-151.5 -93t-207.5 -29q-200 0 -310 77t-110 191q0 34 11 66t36.5 66.5t77.5 61.5
t125 40q-61 22 -92 58.5t-31 64.5q0 20 5.5 37t20.5 31t25.5 23t37 20.5t36.5 15.5t43 16q-32 14 -56 26t-58 37.5t-55.5 55t-37.5 76t-16 102.5q0 47 10 89t38 87t73 77t121 52.5t176 20.5h350zM643 592q0 86 -61.5 146.5t-149.5 60.5t-150.5 -60.5t-62.5 -146.5
q0 -76 58 -140.5t155 -64.5t154 59t57 146zM723 -201q0 25 -13.5 49.5t-44 49t-93.5 40t-150 15.5q-79 0 -135.5 -15t-84 -39.5t-39 -49t-11.5 -50.5q0 -51 31 -85t82.5 -48.5t91.5 -19t85 -4.5q131 0 206 45t75 112z" />
    <glyph glyph-name="h" unicode="h" horiz-adv-x="1007" 
d="M133 1397h141v-617q119 158 289 158q154 0 242 -104.5t88 -284.5v-549h-141v537q0 126 -53.5 201t-168.5 75q-25 0 -51.5 -5.5t-63 -20.5t-74 -50t-67.5 -86v-651h-141v1397z" />
    <glyph glyph-name="i" unicode="i" horiz-adv-x="407" 
d="M274 920v-920h-141v920h141zM205 1294q38 0 65 -27t27 -65t-27 -65t-65 -27t-65 27t-27 65t27 65t65 27z" />
    <glyph glyph-name="j" unicode="j" horiz-adv-x="403" 
d="M274 920v-967q0 -184 -36 -266q-6 -14 -17.5 -32t-33.5 -44.5t-59 -49t-81 -32.5l-82 109q46 9 77.5 29.5t49 46t27 68t12 81.5t2.5 100v957h141zM205 1294q38 0 65 -27t27 -65t-27 -65t-65 -27t-65 27t-27 65t27 65t65 27z" />
    <glyph glyph-name="k" unicode="k" horiz-adv-x="942" 
d="M274 1397v-1397h-141v1397h141zM915 920l-446 -443l528 -477h-192l-520 477l456 443h174z" />
    <glyph glyph-name="l" unicode="l" horiz-adv-x="407" 
d="M274 1397v-1397h-141v1397h141z" />
    <glyph glyph-name="m" unicode="m" horiz-adv-x="1585" 
d="M274 920v-142q70 82 134 121t153 39q50 0 93.5 -14.5t73 -35.5t54 -49t37.5 -50t23 -44q137 193 313 193q74 0 131.5 -25.5t91 -65t55.5 -92.5t29.5 -102.5t7.5 -101.5v-551h-141v551q0 45 -8.5 86t-28.5 83t-61.5 67.5t-100.5 25.5q-68 0 -139 -42t-119 -124v-647h-141
v547q0 266 -211 266q-78 0 -135.5 -41.5t-110.5 -116.5v-655h-141v920h141z" />
    <glyph glyph-name="n" unicode="n" horiz-adv-x="1007" 
d="M133 920h141v-140q119 158 289 158q154 0 242 -104.5t88 -284.5v-549h-141v537q0 126 -53.5 201t-168.5 75q-25 0 -51.5 -5.5t-63 -20.5t-74 -50t-67.5 -86v-651h-141v920z" />
    <glyph glyph-name="o" unicode="o" horiz-adv-x="1130" 
d="M563 938q97 0 186 -37.5t153 -101.5t102 -152.5t38 -185.5t-38 -186t-102 -153t-153 -102t-186 -38t-185.5 38t-152.5 102t-101.5 153t-37.5 186q0 198 139.5 337.5t337.5 139.5zM565 813q-143 0 -238.5 -102t-95.5 -250t95.5 -251.5t238.5 -103.5t237.5 103.5
t94.5 251.5t-94.5 250t-237.5 102z" />
    <glyph glyph-name="p" unicode="p" horiz-adv-x="1050" 
d="M133 920h324q242 0 375 -119t133 -340q0 -98 -30.5 -184t-87 -152t-144 -104.5t-195.5 -38.5q-20 0 -41 2t-37.5 4.5t-35.5 7t-30.5 7.5t-28.5 9.5t-23.5 9t-21.5 9t-16 6.5v-490h-141v1373zM274 795v-629q110 -60 211 -60q161 0 247.5 101.5t86.5 249.5q0 162 -98.5 250
t-265.5 88h-181z" />
    <glyph glyph-name="q" unicode="q" horiz-adv-x="1050" 
d="M918 920v-1373h-142v490q-2 -1 -16 -7t-21 -8.5t-23.5 -8.5t-28.5 -9.5t-30.5 -8t-35 -7t-37.5 -4.5t-41 -2q-108 0 -195.5 38.5t-144 104.5t-87 152t-30.5 184q0 221 133 340t375 119h324zM776 795h-180q-167 0 -266 -88t-99 -250q0 -148 86.5 -249.5t247.5 -101.5
q101 0 211 60v629z" />
    <glyph glyph-name="r" unicode="r" horiz-adv-x="743" 
d="M133 920h141v-203q75 117 154 170q76 51 139 51q87 0 219 -109l-75 -122q-99 86 -179 86q-62 0 -127.5 -50.5t-97.5 -124.5q-33 -74 -33 -221v-397h-141v920z" />
    <glyph glyph-name="s" unicode="s" horiz-adv-x="768" 
d="M653 860v-141q-76 47 -136.5 70.5t-123.5 23.5q-68 0 -111.5 -35t-43.5 -84q0 -50 47 -85t210 -121q5 -3 8 -4.5l8 -4l9 -4.5q29 -16 48.5 -29.5t52 -43t50 -71t17.5 -91.5q0 -38 -16 -79.5t-49 -83t-95 -68.5t-143 -27q-137 0 -295 84v145q173 -105 297 -105
q59 0 107.5 34t48.5 89q0 60 -48.5 99t-156.5 90q-43 20 -69.5 34t-63.5 40t-57.5 51.5t-36 64t-15.5 82.5t18 86.5t52.5 79.5t93 59.5t131.5 22.5q126 0 262 -78z" />
    <glyph glyph-name="t" unicode="t" horiz-adv-x="641" 
d="M20 795v22l299 318v-215h277v-125h-277v-482q0 -42 2 -67.5t9.5 -53.5t22 -43.5t40.5 -25.5t64 -10q34 0 67 8t53 16.5t66 30.5v-133q-115 -53 -215 -53q-129 0 -189.5 76.5t-60.5 197.5v539h-158z" />
    <glyph glyph-name="u" unicode="u" horiz-adv-x="1007" 
d="M874 0h-141v139q-119 -157 -289 -157q-154 0 -241.5 104.5t-87.5 284.5v549h141v-537q0 -126 53 -201.5t168 -75.5q25 0 51.5 5.5t63 20.5t74 50t67.5 86v652h141v-920z" />
    <glyph glyph-name="v" unicode="v" horiz-adv-x="888" 
d="M885 920l-402 -938h-61l-418 938h150l299 -670l284 670h148z" />
    <glyph glyph-name="w" unicode="w" horiz-adv-x="1470" 
d="M1466 920l-401 -938h-53l-277 694l-276 -694h-53l-402 938h146l278 -654l262 654h92l258 -654l279 654h147z" />
    <glyph glyph-name="x" unicode="x" horiz-adv-x="966" 
d="M475 365l-303 -365h-170l385 467l-385 453h178l295 -347l289 347h172l-373 -449l402 -471h-179z" />
    <glyph glyph-name="y" unicode="y" horiz-adv-x="884" 
d="M881 920l-670 -1391h-152l318 659l-373 732h154l293 -580l276 580h154z" />
    <glyph glyph-name="z" unicode="z" horiz-adv-x="831" 
d="M49 920h760v-19l-545 -770h545v-131h-786v16l544 772h-518v132z" />
    <glyph glyph-name="braceleft" unicode="{" horiz-adv-x="681" 
d="M78 399v146q43 0 74.5 11.5t53 26t36 49.5t22 60.5t11 81.5t4 90.5t0.5 107.5v8v7v8q0 89 7.5 153.5t26 109t43 72t64.5 42.5t83 20t107 5v-131q-46 0 -73.5 -2.5t-51 -14t-34.5 -27.5t-19 -50.5t-10 -75.5t-2 -109q0 -72 -1 -116.5t-5.5 -97t-13 -85t-23 -68.5
t-36.5 -60t-53 -46.5t-73 -40.5q42 -18 73 -40.5t53 -46.5t36.5 -60.5t23 -69t13 -85.5t5.5 -97.5t1 -116.5q0 -68 2 -109t10 -75.5t19 -50.5t34.5 -27.5t51 -14t73.5 -2.5v-131q-64 0 -107 5t-83 20t-64.5 42.5t-43 72t-26 109t-7.5 153.5q0 208 -11 275q-19 123 -96 158
q-38 17 -94 17z" />
    <glyph glyph-name="bar" unicode="|" horiz-adv-x="456" 
d="M162 1415h133v-1886h-133v1886z" />
    <glyph glyph-name="braceright" unicode="}" horiz-adv-x="681" 
d="M604 399q-43 0 -74.5 -11.5t-53 -26t-36 -49.5t-22 -60.5t-11 -81.5t-4 -90.5t-0.5 -107.5v-23q0 -89 -7.5 -153.5t-26 -109t-43 -72t-64.5 -42.5t-83 -20t-107 -5v131q46 0 73.5 2.5t51 14t34.5 27.5t19 50.5t10 75.5t2 109q0 72 1 116.5t5.5 97.5t13 85.5t23 69
t36.5 60.5t53 46.5t73 40.5q-42 18 -73 40.5t-53 46.5t-36.5 60t-23 68.5t-13 85t-5.5 97t-1 116.5q0 68 -2 109t-10 75.5t-19 50.5t-34.5 27.5t-51 14t-73.5 2.5v131q64 0 107 -5t83 -20t64.5 -42.5t43 -72t26 -109t7.5 -153.5q0 -208 11 -275q19 -123 96 -158
q39 -17 94 -17v-146z" />
    <glyph glyph-name="asciitilde" unicode="~" horiz-adv-x="1366" 
d="M139 575v144q167 125 295 125q56 0 117.5 -19.5t177.5 -74.5q49 -23 71 -32.5t63 -21.5t73 -12q76 0 143.5 36t147.5 101v-143q-161 -125 -287 -125q-64 0 -124.5 20t-194.5 82q-125 58 -187 58q-39 0 -77.5 -9.5t-73.5 -29.5t-56.5 -33.5t-52.5 -38t-35 -27.5z" />
    <glyph glyph-name="uni00A0" unicode="&#xa0;" horiz-adv-x="512" 
 />
    <glyph glyph-name="exclamdown" unicode="&#xa1;" horiz-adv-x="491" 
d="M246 -471q-99 0 -99 258q0 177 31 405t68 228t67.5 -228t30.5 -405q0 -258 -98 -258zM246 741q-45 0 -78 33t-33 78q0 46 32.5 78.5t78.5 32.5t78 -32.5t32 -78.5t-32 -78.5t-78 -32.5z" />
    <glyph glyph-name="cent" unicode="&#xa2;" horiz-adv-x="878" 
d="M791 883v-152q-62 37 -129 57l-234 -651q65 -24 135 -24q23 0 46.5 2t45 7t39 9t37.5 11t30.5 11t27.5 11t20 8v-139q-137 -51 -260 -51q-92 0 -168 26l-141 -395h-90l153 428q-63 34 -108.5 87t-67.5 112t-31.5 111t-9.5 102q0 124 40.5 220.5t107.5 152.5t144.5 84
t160.5 28q40 0 82 -6l129 356h90l-133 -375q13 -4 84 -30zM352 180l223 625q-69 7 -127.5 -11t-97.5 -52t-66.5 -81.5t-40 -99t-12.5 -104.5q0 -90 32.5 -161.5t88.5 -115.5z" />
    <glyph glyph-name="sterling" unicode="&#xa3;" horiz-adv-x="1110" 
d="M983 1403l80 -156q-59 23 -129 23q-65 0 -124.5 -30.5t-100.5 -75.5t-76 -104t-55 -108.5t-33 -97.5l-31 -109h184v-141h-225l-121 -450q102 10 154 10q90 0 203 -21q99 -16 149 -16q121 0 205 47v-151q-90 -41 -189 -41q-44 0 -194 22q-86 14 -217 14q-183 0 -305 -36
l170 622h-160v141h197q81 247 141 365q157 305 393 305q38 0 84 -12z" />
    <glyph glyph-name="currency" unicode="&#xa4;" horiz-adv-x="1130" 
d="M956 1180q16 -16 46 -47t45 -46q-69 -69 -136 -133q86 -120 86 -256q0 -124 -86 -258q112 -108 136 -131l-45.5 -45.5t-45.5 -46.5q-22 22 -67 66.5t-68 66.5q-115 -84 -258 -84t-256 84l-133 -133q-16 15 -45.5 45.5t-44.5 46.5q19 20 41 42t49 48.5t41 40.5
q-84 131 -84 258t84 256q-88 88 -131 133q16 15 45.5 46t44.5 47q23 -23 66.5 -68.5t66.5 -67.5q126 86 258 86q130 0 256 -86q22 23 67 68.5t68 67.5zM563 1001q-125 0 -214 -88.5t-89 -214.5t89 -214.5t214 -88.5q126 0 214.5 88.5t88.5 214.5t-89 214.5t-214 88.5z" />
    <glyph glyph-name="yen" unicode="&#xa5;" horiz-adv-x="1130" 
d="M31 1397h159l381 -686l365 686h164l-400 -686h367v-119h-424v-152h424v-118h-424v-322h-154v322h-428v118h428v152h-428v119h371z" />
    <glyph glyph-name="brokenbar" unicode="&#xa6;" horiz-adv-x="456" 
d="M162 313h133v-784h-133v784zM162 1415h133v-784h-133v784z" />
    <glyph glyph-name="section" unicode="&#xa7;" horiz-adv-x="831" 
d="M358 115l-131 135q-91 95 -131.5 165t-40.5 167q0 185 162 317q-25 35 -39 59.5t-26.5 68t-12.5 93.5q0 58 18.5 110t55 94t96 66.5t135.5 24.5q121 0 187.5 -56.5t66.5 -121.5q0 -45 -26.5 -65.5t-57.5 -20.5q-20 0 -35 7t-26.5 22t-18 27t-16.5 34q-13 31 -32.5 47.5
t-59.5 16.5q-69 0 -112.5 -45t-43.5 -111q0 -121 129 -246l209 -201q25 -24 38.5 -37.5t42.5 -50t45 -68t30 -79t14 -96.5q0 -87 -42 -159.5t-130 -156.5q86 -116 86 -237q0 -129 -90.5 -209t-220.5 -80q-107 0 -184.5 52t-77.5 130q0 36 25.5 61t64.5 25q37 0 54 -17.5
t46 -74.5q34 -65 99 -65q67 0 110 50t43 111q0 37 -11 70.5t-41.5 74.5t-60 73.5t-90.5 95.5zM520 596l-223 221q-30 -37 -46 -60t-35 -70.5t-19 -94.5q0 -100 79 -184l252 -271q63 79 86 124.5t23 103.5q0 114 -117 231z" />
    <glyph glyph-name="dieresis" unicode="&#xa8;" horiz-adv-x="681" 
d="M152 1335q38 0 65 -27t27 -65t-27 -65t-65 -27t-65.5 27t-27.5 65t27.5 65t65.5 27zM530 1335q38 0 65.5 -27t27.5 -65t-27.5 -65t-65.5 -27t-65 27t-27 65t27 65t65 27z" />
    <glyph glyph-name="dieresis" unicode="&#x308;" horiz-adv-x="681" 
d="M152 1335q38 0 65 -27t27 -65t-27 -65t-65 -27t-65.5 27t-27.5 65t27.5 65t65.5 27zM530 1335q38 0 65.5 -27t27.5 -65t-27.5 -65t-65.5 -27t-65 27t-27 65t27 65t65 27z" />
    <glyph glyph-name="copyright" unicode="&#xa9;" horiz-adv-x="1574" 
d="M1546 655q0 -153 -59.5 -292.5t-160 -241.5t-241.5 -162.5t-297 -60.5q-207 0 -381.5 101.5t-276 275.5t-101.5 380q0 155 60 295.5t161.5 242.5t242 162t295.5 60q156 0 297 -61t241.5 -163.5t160 -242.5t59.5 -293zM1438 655q0 131 -51 251.5t-137.5 208.5t-207.5 140
t-254 52q-132 0 -252.5 -51.5t-207.5 -139t-139 -208t-52 -253.5q0 -176 87 -325.5t237 -236.5t327 -87q133 0 254 52t207.5 139.5t137.5 207t51 250.5zM1128 848l-108 -29q-64 160 -225 160q-122 0 -197.5 -87.5t-75.5 -225.5q0 -148 68 -244t192 -96q187 0 252 198
l107 -35q-12 -37 -22.5 -62.5t-42.5 -67.5t-77 -72q-94 -66 -211 -66q-176 0 -281.5 124.5t-105.5 309.5q0 179 104.5 299.5t291.5 120.5q233 0 331 -227z" />
    <glyph glyph-name="ordfeminine" unicode="&#xaa;" horiz-adv-x="575" 
d="M565 971v-80q-74 -53 -133 -53q-50 0 -72 53q-71 -53 -163 -53q-71 0 -116.5 43.5t-45.5 101.5q0 33 12.5 59t45 53t99 50.5t166.5 42.5v43q0 19 -2.5 32.5t-11.5 30.5t-31 26t-57 9q-55 0 -100 -23.5t-97 -68.5v106q90 72 203 72q35 0 64.5 -6t50 -13.5t36.5 -22.5
t26 -26t17 -31l10.5 -30t5 -31t1.5 -25.5v-21.5v-239v-5q0 -14 0.5 -21t5.5 -14t15 -7q3 0 6 0.5t6.5 2.5t6.5 3.5t7.5 4.5t7.5 5.5t8 7t8.5 7.5t10 9t10.5 9zM358 965v155q-62 -10 -106 -26.5t-64.5 -35.5t-29 -35.5t-8.5 -33.5q0 -39 28 -56.5t62 -17.5q68 0 118 50z" />
    <glyph glyph-name="guillemotleft" unicode="&#xab;" 
d="M532 0h-139l-344 459l344 461h139l-344 -461zM942 0h-139l-344 459l344 461h139l-344 -461z" />
    <glyph glyph-name="logicalnot" unicode="&#xac;" horiz-adv-x="1366" 
d="M139 993h1088v-592h-133v459h-955v133z" />
    <glyph glyph-name="uni00AD" unicode="&#xad;" horiz-adv-x="661" 
d="M578 530v-94h-494v94h494z" />
    <glyph glyph-name="registered" unicode="&#xae;" horiz-adv-x="1574" 
d="M1546 655q0 -153 -59.5 -292.5t-160 -241.5t-241.5 -162.5t-297 -60.5q-207 0 -381.5 101.5t-276 275.5t-101.5 380q0 155 60 295.5t161.5 242.5t242 162t295.5 60t296 -60.5t242 -163t160.5 -243t59.5 -293.5zM1438 655q0 131 -51 251.5t-137.5 208.5t-207.5 140
t-254 52t-253.5 -52t-207.5 -139.5t-138.5 -208t-51.5 -252.5q0 -176 87 -325.5t237 -236.5t327 -87q133 0 254 52t207.5 139.5t137.5 207t51 250.5zM467 1051h326q71 0 125 -16t84.5 -39.5t49.5 -54.5t25 -56.5t6 -50.5q0 -196 -235 -230q20 -6 38 -15.5t34 -24t26.5 -24.5
t24 -30.5t19 -28.5t19 -32t15.5 -27l102 -180h-139l-115 207q-1 1 -6 11t-9 16.5t-12 19t-16.5 21.5t-20.5 21t-26 20t-31 15.5t-37.5 11t-43.5 3.5h-86v-346h-117v809zM584 954v-268h145q132 0 178.5 35t46.5 102q0 69 -51.5 100t-171.5 31h-147z" />
    <glyph glyph-name="macron" unicode="&#xaf;" horiz-adv-x="681" 
d="M647 1309v-129h-612v129h612z" />
    <glyph glyph-name="degree" unicode="&#xb0;" horiz-adv-x="811" 
d="M123 1133q0 117 83 199.5t200 82.5t199.5 -82t82.5 -200q0 -116 -82 -199.5t-200 -83.5q-117 0 -200 82.5t-83 200.5zM219 1133q0 -77 55.5 -132t131.5 -55q78 0 132 55t54 132q0 78 -54.5 132t-131.5 54t-132 -54t-55 -132z" />
    <glyph glyph-name="plusminus" unicode="&#xb1;" horiz-adv-x="1366" 
d="M139 133h1088v-133h-1088v133zM139 934h477v477h134v-477h477v-133h-477v-477h-134v477h-477v133z" />
    <glyph glyph-name="two.superior" unicode="&#xb2;" horiz-adv-x="661" 
d="M268 645h342v-86h-553v8q142 142 236 244q48 51 77.5 93t40 74t13 47.5t2.5 39.5q0 59 -40 101t-114 42q-103 0 -196 -108v123q3 2 17 11.5t24 15.5t29.5 15t38 14.5t45.5 10t55 4.5q69 0 121.5 -21t80.5 -54.5t41 -69t13 -72.5q0 -82 -62.5 -180t-210.5 -252z" />
    <glyph glyph-name="three.superior" unicode="&#xb3;" horiz-adv-x="661" 
d="M82 590v98q103 -53 194 -53q71 0 111.5 36t40.5 91q0 131 -195 131v86q183 0 183 117q0 112 -148 112q-82 0 -172 -49v92q78 43 176 43q75 0 128.5 -18.5t80 -49t38 -61.5t11.5 -65q0 -51 -28 -93.5t-90 -64.5q48 -13 79.5 -47.5t41.5 -66.5t10 -62q0 -56 -26 -100
t-66.5 -68.5t-83.5 -36.5t-84 -12q-105 0 -201 41z" />
    <glyph glyph-name="acute" unicode="&#xb4;" horiz-adv-x="681" 
d="M604 1405l-274 -322h-90l180 322h184z" />
    <glyph glyph-name="mu" unicode="&#xb5;" horiz-adv-x="1130" 
d="M948 920v-920h-135v111q-14 -20 -24 -32t-32.5 -33t-46.5 -33t-62 -21.5t-83 -9.5q-50 0 -90.5 11t-69.5 32.5t-44.5 37t-34.5 39.5v-555h-144v1373h142v-471q0 -75 10 -133t28.5 -95t40 -62t50.5 -37.5t54 -17t56 -4.5t56.5 4.5t55 17t52 37.5t41.5 62t29 95t10 133v471
h141z" />
    <glyph glyph-name="paragraph" unicode="&#xb6;" horiz-adv-x="1193" 
d="M698 1319v-1786h-102v903q-250 0 -404.5 124t-154.5 353q0 127 39.5 220.5t114 151t175.5 85t230 27.5h567v-78h-172v-1786h-102v1786h-191z" />
    <glyph glyph-name="periodcentered" unicode="&#xb7;" horiz-adv-x="491" 
d="M246 809q46 0 78 -32.5t32 -78.5t-32 -78t-78 -32t-78.5 32t-32.5 78t32.5 78.5t78.5 32.5z" />
    <glyph glyph-name="periodcentered" unicode="&#x22c5;" horiz-adv-x="491" 
d="M246 809q46 0 78 -32.5t32 -78.5t-32 -78t-78 -32t-78.5 32t-32.5 78t32.5 78.5t78.5 32.5z" />
    <glyph glyph-name="periodcentered" unicode="&#x387;" horiz-adv-x="491" 
d="M246 809q46 0 78 -32.5t32 -78.5t-32 -78t-78 -32t-78.5 32t-32.5 78t32.5 78.5t78.5 32.5z" />
    <glyph glyph-name="cedilla" unicode="&#xb8;" horiz-adv-x="681" 
d="M465 16l-19 -69q121 -29 121 -131q0 -62 -51 -117q-55 -53 -180 -53q-36 0 -76 8l6 88h10q11 -1 23.5 -2t30 -0.5t34 2.5t33 6.5t29 12t20 19.5t7.5 27q0 25 -15.5 41t-36.5 20t-41.5 6t-29.5 -1l47 143h88z" />
    <glyph glyph-name="one.superior" unicode="&#xb9;" horiz-adv-x="661" 
d="M389 1284v-725h-115v725h115z" />
    <glyph glyph-name="ordmasculine" unicode="&#xba;" horiz-adv-x="747" 
d="M692 1126q0 -126 -91 -208t-228 -82t-227.5 82t-90.5 208t90.5 207.5t227.5 81.5t228 -82t91 -207zM373 1329q-85 0 -144 -59t-59 -144t59 -144.5t144 -59.5t145 59.5t60 144.5t-60 144t-145 59z" />
    <glyph glyph-name="guillemotright" unicode="&#xbb;" 
d="M492 920h139l344 -461l-344 -459h-139l344 459zM82 920h139l344 -461l-344 -459h-139l344 459z" />
    <glyph glyph-name="onequarter" unicode="&#xbc;" horiz-adv-x="1705" 
d="M1458 735v-413h103v-78h-103v-244h-115v244h-323v49l395 442h43zM1147 322h196v221zM457 1405v-725h-115v725h115zM1411 1415l-1005 -1470h-109l1003 1470h111z" />
    <glyph glyph-name="onehalf" unicode="&#xbd;" horiz-adv-x="1705" 
d="M457 1405v-725h-115v725h115zM1411 1415l-1005 -1470h-109l1003 1470h111zM1284 86h342v-86h-553v8q142 142 236 244q48 51 77.5 93t40 74t13 47.5t2.5 39.5q0 59 -40 101t-114 42q-103 0 -196 -108v123l20 14q20 13 33 19.5t37.5 17t54 15.5t63.5 5q69 0 121.5 -21
t80.5 -54.5t41 -69t13 -72.5q0 -82 -62 -180t-210 -252z" />
    <glyph glyph-name="threequarters" unicode="&#xbe;" horiz-adv-x="1705" 
d="M1458 735v-413h103v-78h-103v-244h-115v244h-323v49l395 442h43zM1147 322h196v221zM131 711v98q103 -53 195 -53q71 0 111 36t40 91q0 131 -194 131v86q182 0 182 117q0 112 -148 112q-82 0 -172 -49v92q78 43 177 43q75 0 128.5 -18.5t80 -49t38 -61.5t11.5 -65
q0 -51 -28.5 -93.5t-90.5 -64.5q48 -13 79.5 -47.5t41.5 -66.5t10 -62q0 -56 -26 -100t-66.5 -68.5t-83.5 -36.5t-84 -12q-105 0 -201 41zM1411 1415l-1005 -1470h-109l1003 1470h111z" />
    <glyph glyph-name="questiondown" unicode="&#xbf;" horiz-adv-x="641" 
d="M537 -262h10l-90 -191q-45 -18 -97 -18q-111 0 -188.5 85t-77.5 210q0 69 26 145t105 209q119 201 136 239q20 44 20 81q0 29 -6 47q-2 6 -6 14.5t-6.5 14.5t-2.5 10q0 14 17 14q11 0 35.5 -25t46.5 -71.5t22 -93.5q0 -68 -28.5 -129.5t-122.5 -210.5q-29 -45 -54.5 -111
t-25.5 -127q0 -70 42 -117t105 -47q84 0 140 72zM393 741q-46 0 -78 32.5t-32 78.5t32 78.5t78 32.5t78.5 -32.5t32.5 -78.5q0 -45 -33 -78t-78 -33z" />
    <glyph glyph-name="Agrave" unicode="&#xc0;" horiz-adv-x="1368" 
d="M727 1405l637 -1405h-160l-203 449h-639l-198 -449h-160l621 1405h102zM938 584l-262 579l-254 -579h516zM453 1812h184l182 -321h-90z" />
    <glyph glyph-name="Aacute" unicode="&#xc1;" horiz-adv-x="1368" 
d="M727 1405l637 -1405h-160l-203 449h-639l-198 -449h-160l621 1405h102zM938 584l-262 579l-254 -579h516zM918 1812l-275 -321h-90l180 321h185z" />
    <glyph glyph-name="Acircumflex" unicode="&#xc2;" horiz-adv-x="1368" 
d="M727 1405l637 -1405h-160l-203 449h-639l-198 -449h-160l621 1405h102zM938 584l-262 579l-254 -579h516zM764 1812l205 -321h-97l-188 201l-188 -201h-95l205 321h158z" />
    <glyph glyph-name="Atilde" unicode="&#xc3;" horiz-adv-x="1368" 
d="M727 1405l637 -1405h-160l-203 449h-639l-198 -449h-160l621 1405h102zM938 584l-262 579l-254 -579h516zM440 1542h-73q13 101 40 147q43 67 125 68q67 0 183 -49q93 -39 135 -39q23 0 39 8.5t24 26t11 27.5t6 30h74q0 -106 -51 -162.5t-117 -56.5q-56 0 -148 37
q-133 51 -168 51q-66 0 -80 -88z" />
    <glyph glyph-name="Adieresis" unicode="&#xc4;" horiz-adv-x="1368" 
d="M727 1405l637 -1405h-160l-203 449h-639l-198 -449h-160l621 1405h102zM938 584l-262 579l-254 -579h516zM496 1743q38 0 65 -27t27 -65t-27 -65t-65 -27t-65.5 27t-27.5 65t27.5 65t65.5 27zM874 1743q38 0 65.5 -27t27.5 -65t-27.5 -65t-65.5 -27t-65 27t-27 65t27 65
t65 27z" />
    <glyph glyph-name="Aring" unicode="&#xc5;" horiz-adv-x="1368" 
d="M727 1405l637 -1405h-160l-203 449h-639l-198 -449h-160l621 1405h102zM938 584l-262 579l-254 -579h516zM684 1483q-80 0 -135 55.5t-55 134.5q0 80 55.5 136.5t134.5 56.5q80 0 136.5 -57t56.5 -136t-56.5 -134.5t-136.5 -55.5zM684 1571q43 0 73.5 29.5t30.5 72.5
t-30.5 74t-73.5 31q-42 0 -72 -31t-30 -74t29.5 -72.5t72.5 -29.5z" />
    <glyph glyph-name="AE" unicode="&#xc6;" horiz-adv-x="1810" 
d="M1724 1397v-135h-614v-490h600v-135h-600v-502h635v-135h-789v637h-395l-387 -637h-170l850 1397h870zM956 772v520l-313 -520h313z" />
    <glyph glyph-name="Ccedilla" unicode="&#xc7;" horiz-adv-x="1421" 
d="M1331 1298v-165q-252 137 -485 137q-164 0 -298 -74t-211 -206.5t-77 -295.5q0 -164 76.5 -294t208.5 -201.5t295 -71.5q253 0 506 147v-165q-227 -121 -484 -127l-8 -33q90 -12 129 -57t39 -99q0 -81 -84.5 -137.5t-220.5 -56.5q-74 0 -137 8l6 104q47 -6 100 -6
q182 0 182 78q0 25 -16.5 41t-47.5 22.5t-55.5 8.5t-58.5 2l43 131q-142 17 -262 80t-202 157t-127.5 215t-45.5 254q0 160 62.5 297.5t166 229t236 143t273.5 51.5q233 0 497 -117z" />
    <glyph glyph-name="Egrave" unicode="&#xc8;" horiz-adv-x="1021" 
d="M942 1397v-135h-625v-490h607v-135h-607v-502h641v-135h-794v1397h778zM289 1812h184l182 -321h-90z" />
    <glyph glyph-name="Eacute" unicode="&#xc9;" horiz-adv-x="1021" 
d="M942 1397v-135h-625v-490h607v-135h-607v-502h641v-135h-794v1397h778zM815 1812l-274 -321h-90l180 321h184z" />
    <glyph glyph-name="Ecircumflex" unicode="&#xca;" horiz-adv-x="1021" 
d="M942 1397v-135h-625v-490h607v-135h-607v-502h641v-135h-794v1397h778zM631 1812l205 -321h-97l-188 201l-189 -201h-94l205 321h158z" />
    <glyph glyph-name="Edieresis" unicode="&#xcb;" horiz-adv-x="1021" 
d="M942 1397v-135h-625v-490h607v-135h-607v-502h641v-135h-794v1397h778zM362 1743q38 0 65.5 -27t27.5 -65t-27.5 -65t-65.5 -27t-65 27t-27 65t27 65t65 27zM741 1743q38 0 65.5 -27t27.5 -65t-27.5 -65t-65.5 -27t-65 27t-27 65t27 65t65 27z" />
    <glyph glyph-name="Igrave" unicode="&#xcc;" horiz-adv-x="491" 
d="M322 1397v-1397h-154v1397h154zM14 1812h185l182 -321h-90z" />
    <glyph glyph-name="Iacute" unicode="&#xcd;" horiz-adv-x="491" 
d="M322 1397v-1397h-154v1397h154zM510 1812l-274 -321h-91l181 321h184z" />
    <glyph glyph-name="Icircumflex" unicode="&#xce;" horiz-adv-x="491" 
d="M322 1397v-1397h-154v1397h154zM326 1812l204 -321h-96l-188 201l-189 -201h-94l205 321h158z" />
    <glyph glyph-name="Idieresis" unicode="&#xcf;" horiz-adv-x="491" 
d="M322 1397v-1397h-154v1397h154zM57 1743q38 0 65.5 -27t27.5 -65t-27.5 -65t-65.5 -27t-65 27t-27 65t27 65t65 27zM436 1743q38 0 65 -27t27 -65t-27 -65t-65 -27t-65 27t-27 65t27 65t65 27z" />
    <glyph glyph-name="Eth" unicode="&#xd0;" horiz-adv-x="1527" 
d="M164 1397h432q139 0 260 -23.5t228 -76.5t183.5 -132.5t120.5 -198.5t44 -268t-44 -268t-120.5 -198.5t-183.5 -132.5t-228 -76t-260 -23h-432v643h-187v111h187v643zM317 1262v-508h424v-111h-424v-508h289q66 0 127.5 6t129 23t124.5 43.5t110.5 70.5t90 101.5
t58.5 139t22 179.5t-22 180t-59 139t-90 101t-110 71t-124.5 44t-129 23t-127.5 6h-289z" />
    <glyph glyph-name="Ntilde" unicode="&#xd1;" horiz-adv-x="1605" 
d="M1442 1397v-1397h-131l-998 1151v-1151h-149v1397h131l997 -1151v1151h150zM559 1542h-74q3 24 4 32.5t7 36.5t12.5 42.5t19.5 37.5t29 35t40.5 21.5t53.5 9.5q67 0 183 -49q93 -39 135 -39q23 0 39 8.5t24 26t11 27.5t6 30h73q0 -106 -51 -162.5t-117 -56.5
q-55 0 -147 37q-133 51 -168 51q-66 0 -80 -88z" />
    <glyph glyph-name="Ograve" unicode="&#xd2;" horiz-adv-x="1685" 
d="M834 -18q-152 0 -288 54.5t-235 148.5t-157 227.5t-58 285.5q0 139 51.5 267.5t144.5 229t236.5 160.5t313.5 60q166 0 308 -58.5t237 -157t148.5 -228.5t53.5 -273q0 -205 -101 -369.5t-273.5 -255.5t-380.5 -91zM831 127q166 0 301.5 73t214 205t78.5 297
q0 105 -40 205.5t-112 182t-184.5 131t-246.5 49.5q-130 0 -241 -47.5t-185 -127t-115 -183t-41 -216.5q0 -100 30.5 -189.5t84.5 -158t125.5 -119t156.5 -76.5t174 -26zM610 1812h185l182 -321h-90z" />
    <glyph glyph-name="Oacute" unicode="&#xd3;" horiz-adv-x="1685" 
d="M834 -18q-152 0 -288 54.5t-235 148.5t-157 227.5t-58 285.5q0 139 51.5 267.5t144.5 229t236.5 160.5t313.5 60q166 0 308 -58.5t237 -157t148.5 -228.5t53.5 -273q0 -205 -101 -369.5t-273.5 -255.5t-380.5 -91zM831 127q166 0 301.5 73t214 205t78.5 297
q0 105 -40 205.5t-112 182t-184.5 131t-246.5 49.5q-130 0 -241 -47.5t-185 -127t-115 -183t-41 -216.5q0 -100 30.5 -189.5t84.5 -158t125.5 -119t156.5 -76.5t174 -26zM1106 1812l-275 -321h-90l181 321h184z" />
    <glyph glyph-name="Ocircumflex" unicode="&#xd4;" horiz-adv-x="1685" 
d="M834 -18q-152 0 -288 54.5t-235 148.5t-157 227.5t-58 285.5q0 139 51.5 267.5t144.5 229t236.5 160.5t313.5 60q166 0 308 -58.5t237 -157t148.5 -228.5t53.5 -273q0 -205 -101 -369.5t-273.5 -255.5t-380.5 -91zM831 127q166 0 301.5 73t214 205t78.5 297
q0 105 -40 205.5t-112 182t-184.5 131t-246.5 49.5q-130 0 -241 -47.5t-185 -127t-115 -183t-41 -216.5q0 -100 30.5 -189.5t84.5 -158t125.5 -119t156.5 -76.5t174 -26zM922 1812l204 -321h-96l-188 201l-189 -201h-94l205 321h158z" />
    <glyph glyph-name="Otilde" unicode="&#xd5;" horiz-adv-x="1685" 
d="M834 -18q-152 0 -288 54.5t-235 148.5t-157 227.5t-58 285.5q0 139 51.5 267.5t144.5 229t236.5 160.5t313.5 60q166 0 308 -58.5t237 -157t148.5 -228.5t53.5 -273q0 -205 -101 -369.5t-273.5 -255.5t-380.5 -91zM831 127q166 0 301.5 73t214 205t78.5 297
q0 105 -40 205.5t-112 182t-184.5 131t-246.5 49.5q-130 0 -241 -47.5t-185 -127t-115 -183t-41 -216.5q0 -100 30.5 -189.5t84.5 -158t125.5 -119t156.5 -76.5t174 -26zM598 1542h-74q3 24 4 32.5t7 36.5t12.5 42.5t19.5 37.5t29 35t40.5 21.5t53.5 9.5q66 0 182 -49
q93 -39 136 -39q19 0 33 7t21.5 14.5t13.5 24t7 23t4 23.5h74q0 -106 -51 -162.5t-117 -56.5q-55 0 -147 37q-133 51 -168 51q-66 0 -80 -88z" />
    <glyph glyph-name="Odieresis" unicode="&#xd6;" horiz-adv-x="1685" 
d="M834 -18q-152 0 -288 54.5t-235 148.5t-157 227.5t-58 285.5q0 139 51.5 267.5t144.5 229t236.5 160.5t313.5 60q166 0 308 -58.5t237 -157t148.5 -228.5t53.5 -273q0 -205 -101 -369.5t-273.5 -255.5t-380.5 -91zM831 127q166 0 301.5 73t214 205t78.5 297
q0 105 -40 205.5t-112 182t-184.5 131t-246.5 49.5q-130 0 -241 -47.5t-185 -127t-115 -183t-41 -216.5q0 -100 30.5 -189.5t84.5 -158t125.5 -119t156.5 -76.5t174 -26zM653 1743q38 0 65 -27t27 -65t-27 -65t-65 -27t-65 27t-27 65t27 65t65 27zM1032 1743q38 0 65 -27
t27 -65t-27 -65t-65 -27t-65 27t-27 65t27 65t65 27z" />
    <glyph glyph-name="multiply" unicode="&#xd7;" horiz-adv-x="1366" 
d="M184 293l406 405l-406 406l92 94l408 -407l406 407l92 -94l-406 -406l406 -405l-92 -94l-406 407l-408 -407z" />
    <glyph glyph-name="Oslash" unicode="&#xd8;" horiz-adv-x="1685" 
d="M401 113l-116 -131l-84 65l116 133q-221 221 -221 518q0 140 52 269t145.5 228.5t236 159.5t310.5 60q260 0 446 -133l117 133l82 -67l-115 -134q219 -213 219 -516q0 -150 -58 -283t-157.5 -228t-239 -150t-296.5 -55q-239 0 -437 131zM1266 1098l-764 -869
q148 -102 338 -102q164 0 298 75.5t210.5 207t76.5 292.5q0 113 -43.5 218t-115.5 178zM420 297l764 870q-141 103 -342 103q-130 0 -241 -47.5t-185 -127t-115 -183t-41 -216.5q0 -230 160 -399z" />
    <glyph glyph-name="Ugrave" unicode="&#xd9;" horiz-adv-x="1429" 
d="M1307 1397v-750q0 -147 -17 -233t-61 -162q-25 -45 -64.5 -87t-100.5 -86t-151.5 -70.5t-195.5 -26.5q-36 0 -74.5 3.5t-99.5 18t-115 39t-112 72t-99 110.5q-55 84 -74.5 173.5t-19.5 248.5v750h153v-758q0 -153 25.5 -238.5t87.5 -150.5q61 -64 147 -96.5t181 -32.5
q148 0 247 66t144 159q45 92 45 293v758h154zM483 1812h185l182 -321h-90z" />
    <glyph glyph-name="Uacute" unicode="&#xda;" horiz-adv-x="1429" 
d="M1307 1397v-750q0 -147 -17 -233t-61 -162q-25 -45 -64.5 -87t-100.5 -86t-151.5 -70.5t-195.5 -26.5q-36 0 -74.5 3.5t-99.5 18t-115 39t-112 72t-99 110.5q-55 84 -74.5 173.5t-19.5 248.5v750h153v-758q0 -153 25.5 -238.5t87.5 -150.5q61 -64 147 -96.5t181 -32.5
q148 0 247 66t144 159q45 92 45 293v758h154zM979 1812l-274 -321h-91l181 321h184z" />
    <glyph glyph-name="Ucircumflex" unicode="&#xdb;" horiz-adv-x="1429" 
d="M1307 1397v-750q0 -147 -17 -233t-61 -162q-25 -45 -64.5 -87t-100.5 -86t-151.5 -70.5t-195.5 -26.5q-36 0 -74.5 3.5t-99.5 18t-115 39t-112 72t-99 110.5q-55 84 -74.5 173.5t-19.5 248.5v750h153v-758q0 -153 25.5 -238.5t87.5 -150.5q61 -64 147 -96.5t181 -32.5
q148 0 247 66t144 159q45 92 45 293v758h154zM795 1812l204 -321h-96l-188 201l-189 -201h-94l205 321h158z" />
    <glyph glyph-name="Udieresis" unicode="&#xdc;" horiz-adv-x="1429" 
d="M1307 1397v-750q0 -147 -17 -233t-61 -162q-25 -45 -64.5 -87t-100.5 -86t-151.5 -70.5t-195.5 -26.5q-36 0 -74.5 3.5t-99.5 18t-115 39t-112 72t-99 110.5q-55 84 -74.5 173.5t-19.5 248.5v750h153v-758q0 -153 25.5 -238.5t87.5 -150.5q61 -64 147 -96.5t181 -32.5
q148 0 247 66t144 159q45 92 45 293v758h154zM526 1743q38 0 65 -27t27 -65t-27 -65t-65 -27t-65 27t-27 65t27 65t65 27zM905 1743q38 0 65 -27t27 -65t-27 -65t-65 -27t-65 27t-27 65t27 65t65 27z" />
    <glyph glyph-name="Yacute" unicode="&#xdd;" horiz-adv-x="1226" 
d="M1221 1397l-533 -652v-745h-153v745l-529 652h187l417 -516l424 516h187zM877 1812l-275 -321h-90l180 321h185z" />
    <glyph glyph-name="Thorn" unicode="&#xde;" horiz-adv-x="1056" 
d="M164 1397h153v-316h168q70 0 103 -1t89 -6.5t90 -17t75.5 -34.5t75.5 -57q106 -104 106 -267q0 -73 -22 -134.5t-59 -102.5t-73 -66.5t-75 -42.5q-92 -37 -310 -37h-168v-315h-153v1397zM483 946h-166v-495h179q101 0 152.5 8t103.5 33q52 27 80 85t28 123
q0 21 -3.5 43.5t-13.5 53.5t-34 60.5t-59 49.5q-25 13 -46 19.5t-77.5 13t-143.5 6.5z" />
    <glyph glyph-name="germandbls" unicode="&#xdf;" horiz-adv-x="1042" 
d="M459 0v139q68 -22 114 -22q53 0 96 19.5t69 49t43.5 69t24.5 76t7 72.5q0 146 -79 224t-210 78v129q68 0 115.5 20.5t71 56.5t33.5 73t10 81q0 70 -24.5 120.5t-64 74.5t-77 34.5t-74.5 10.5q-64 0 -109 -20.5t-70 -51.5t-39 -82t-18 -97.5t-4 -113.5v-940h-141v983
q0 224 99 328t278 104q86 0 155 -22.5t111.5 -57.5t70.5 -80.5t39 -89t11 -86.5q0 -206 -192 -305q251 -86 251 -371q0 -59 -13 -117t-41.5 -113.5t-69.5 -97.5t-103 -67.5t-137 -25.5q-59 0 -133 18z" />
    <glyph glyph-name="agrave" unicode="&#xe0;" horiz-adv-x="897" 
d="M874 162v-96q-118 -84 -182 -84q-27 0 -46 9.5t-29.5 27t-15.5 32t-9 35.5q-81 -61 -141 -82.5t-127 -21.5q-98 0 -168 66.5t-70 166.5q0 58 25.5 107t83 92.5t156.5 78.5t239 60v82q0 23 -2 41.5t-12.5 46t-29 45.5t-54 31.5t-84.5 13.5q-83 0 -150 -35t-137 -100v147
q130 113 299 113q75 0 132.5 -20.5t90.5 -51t53.5 -71.5t27.5 -76t7 -70v-504q0 -29 5 -39t20 -10q37 0 118 66zM590 182v279q-363 -66 -363 -236q0 -39 16.5 -68.5t42 -44t50 -21.5t47.5 -7q103 0 207 98zM217 1405h184l183 -322h-90z" />
    <glyph glyph-name="aacute" unicode="&#xe1;" horiz-adv-x="897" 
d="M874 162v-96q-118 -84 -182 -84q-27 0 -46 9.5t-29.5 27t-15.5 32t-9 35.5q-81 -61 -141 -82.5t-127 -21.5q-98 0 -168 66.5t-70 166.5q0 58 25.5 107t83 92.5t156.5 78.5t239 60v82q0 23 -2 41.5t-12.5 46t-29 45.5t-54 31.5t-84.5 13.5q-83 0 -150 -35t-137 -100v147
q130 113 299 113q75 0 132.5 -20.5t90.5 -51t53.5 -71.5t27.5 -76t7 -70v-504q0 -29 5 -39t20 -10q37 0 118 66zM590 182v279q-363 -66 -363 -236q0 -39 16.5 -68.5t42 -44t50 -21.5t47.5 -7q103 0 207 98zM682 1405l-274 -322h-91l181 322h184z" />
    <glyph glyph-name="acircumflex" unicode="&#xe2;" horiz-adv-x="897" 
d="M874 162v-96q-118 -84 -182 -84q-27 0 -46 9.5t-29.5 27t-15.5 32t-9 35.5q-81 -61 -141 -82.5t-127 -21.5q-98 0 -168 66.5t-70 166.5q0 58 25.5 107t83 92.5t156.5 78.5t239 60v82q0 23 -2 41.5t-12.5 46t-29 45.5t-54 31.5t-84.5 13.5q-83 0 -150 -35t-137 -100v147
q130 113 299 113q75 0 132.5 -20.5t90.5 -51t53.5 -71.5t27.5 -76t7 -70v-504q0 -29 5 -39t20 -10q37 0 118 66zM590 182v279q-363 -66 -363 -236q0 -39 16.5 -68.5t42 -44t50 -21.5t47.5 -7q103 0 207 98zM498 1405l204 -322h-96l-188 201l-189 -201h-94l205 322h158z" />
    <glyph glyph-name="atilde" unicode="&#xe3;" horiz-adv-x="897" 
d="M874 162v-96q-118 -84 -182 -84q-27 0 -46 9.5t-29.5 27t-15.5 32t-9 35.5q-81 -61 -141 -82.5t-127 -21.5q-98 0 -168 66.5t-70 166.5q0 58 25.5 107t83 92.5t156.5 78.5t239 60v82q0 23 -2 41.5t-12.5 46t-29 45.5t-54 31.5t-84.5 13.5q-83 0 -150 -35t-137 -100v147
q130 113 299 113q75 0 132.5 -20.5t90.5 -51t53.5 -71.5t27.5 -76t7 -70v-504q0 -29 5 -39t20 -10q37 0 118 66zM590 182v279q-363 -66 -363 -236q0 -39 16.5 -68.5t42 -44t50 -21.5t47.5 -7q103 0 207 98zM205 1135h-74q3 24 4 32.5t7 36.5t12.5 42.5t19.5 37.5t29 35
t40.5 21.5t53.5 9.5q64 0 182 -50q90 -38 135 -38q23 0 39 8.5t24 26t11 27.5t6 30h74q0 -106 -51 -162.5t-117 -56.5q-57 0 -147 36q-3 1 -30 11.5t-39 15t-34 12t-37.5 10.5t-27.5 3q-66 0 -80 -88z" />
    <glyph glyph-name="adieresis" unicode="&#xe4;" horiz-adv-x="897" 
d="M874 162v-96q-118 -84 -182 -84q-27 0 -46 9.5t-29.5 27t-15.5 32t-9 35.5q-81 -61 -141 -82.5t-127 -21.5q-98 0 -168 66.5t-70 166.5q0 58 25.5 107t83 92.5t156.5 78.5t239 60v82q0 23 -2 41.5t-12.5 46t-29 45.5t-54 31.5t-84.5 13.5q-83 0 -150 -35t-137 -100v147
q130 113 299 113q75 0 132.5 -20.5t90.5 -51t53.5 -71.5t27.5 -76t7 -70v-504q0 -29 5 -39t20 -10q37 0 118 66zM590 182v279q-363 -66 -363 -236q0 -39 16.5 -68.5t42 -44t50 -21.5t47.5 -7q103 0 207 98zM229 1335q38 0 65.5 -27t27.5 -65t-27.5 -65t-65.5 -27t-65 27
t-27 65t27 65t65 27zM608 1335q38 0 65 -27t27 -65t-27 -65t-65 -27t-65 27t-27 65t27 65t65 27z" />
    <glyph glyph-name="aring" unicode="&#xe5;" horiz-adv-x="897" 
d="M874 162v-96q-118 -84 -182 -84q-27 0 -46 9.5t-29.5 27t-15.5 32t-9 35.5q-81 -61 -141 -82.5t-127 -21.5q-98 0 -168 66.5t-70 166.5q0 58 25.5 107t83 92.5t156.5 78.5t239 60v82q0 23 -2 41.5t-12.5 46t-29 45.5t-54 31.5t-84.5 13.5q-83 0 -150 -35t-137 -100v147
q130 113 299 113q75 0 132.5 -20.5t90.5 -51t53.5 -71.5t27.5 -76t7 -70v-504q0 -29 5 -39t20 -10q37 0 118 66zM590 182v279q-363 -66 -363 -236q0 -39 16.5 -68.5t42 -44t50 -21.5t47.5 -7q103 0 207 98zM418 1075q-80 0 -135.5 55.5t-55.5 135.5t56 136t135 56
q80 0 136 -56t56 -136q0 -79 -56 -135t-136 -56zM418 1163q43 0 73.5 30t30.5 73t-30.5 73.5t-73.5 30.5t-73 -30.5t-30 -73.5t30 -73t73 -30z" />
    <glyph glyph-name="ae" unicode="&#xe6;" horiz-adv-x="1374" 
d="M1305 477h-580q-5 -91 14 -160.5t50 -108t72.5 -63t74.5 -32t63 -7.5q23 0 46 2.5t42 6.5t40 11t35.5 12.5t33 15t28.5 15t26 16t21.5 14.5t19 13.5t14.5 10.5v-145q-161 -96 -320 -96q-98 0 -179.5 40t-129.5 103q-187 -143 -340 -143q-65 0 -115.5 22t-78.5 58t-42 76
t-14 81q0 126 120 202q84 54 302 119q24 8 74 22l1 1h1q0 44 -2 71.5t-11.5 65t-26.5 59.5t-51.5 38t-82.5 16q-84 0 -150.5 -35t-140.5 -102v160q138 102 301 102q44 0 86 -8t95.5 -39t84.5 -82q2 2 13 13.5t17 17t20 18t25 20t28 18t34 17t38 13t44.5 9.5t48.5 3
q63 0 116 -18.5t88 -48t62.5 -69.5t43 -79.5t25.5 -82t13 -72.5t3 -56v-35zM735 580h424q-6 101 -60.5 167t-150.5 66q-34 0 -67.5 -13t-64.5 -39.5t-53 -73t-28 -107.5zM584 172v303l-90 -30t-76 -27.5t-68.5 -29.5t-51 -30.5t-41.5 -36t-22.5 -40t-9.5 -48.5
q0 -62 47.5 -105.5t108.5 -43.5q35 0 71 13t61 28t71 47z" />
    <glyph glyph-name="ccedilla" unicode="&#xe7;" horiz-adv-x="878" 
d="M791 883v-152q-130 76 -252 76q-70 0 -125.5 -25.5t-88.5 -63.5t-55.5 -87t-30.5 -92t-8 -82q0 -48 10.5 -95t35.5 -92.5t62 -80t94.5 -55.5t129.5 -21q112 0 246 59v-139q-119 -47 -246 -51l-20 -56q67 -3 111 -35.5t44 -99.5q0 -206 -376 -182l8 98q219 -3 219 80
q0 66 -160 66l62 137q-174 29 -269.5 155t-95.5 308q0 221 128 353t325 132q122 0 252 -55z" />
    <glyph glyph-name="egrave" unicode="&#xe8;" horiz-adv-x="985" 
d="M913 483v-32h-682q0 -159 95.5 -252t234.5 -93q180 0 338 130v-144q-32 -22 -54.5 -35t-68.5 -33.5t-104 -31t-127 -10.5q-111 0 -200.5 40t-145 108t-84.5 153t-29 180q0 93 24 171.5t64.5 133.5t94.5 94t114.5 57.5t124.5 18.5q172 0 288.5 -128t116.5 -327zM240 553
h528q-7 71 -33.5 124t-65 81t-77.5 41.5t-80 13.5q-95 0 -171 -64.5t-101 -195.5zM270 1405h185l182 -322h-90z" />
    <glyph glyph-name="eacute" unicode="&#xe9;" horiz-adv-x="985" 
d="M913 483v-32h-682q0 -159 95.5 -252t234.5 -93q180 0 338 130v-144q-32 -22 -54.5 -35t-68.5 -33.5t-104 -31t-127 -10.5q-111 0 -200.5 40t-145 108t-84.5 153t-29 180q0 93 24 171.5t64.5 133.5t94.5 94t114.5 57.5t124.5 18.5q172 0 288.5 -128t116.5 -327zM240 553
h528q-7 71 -33.5 124t-65 81t-77.5 41.5t-80 13.5q-95 0 -171 -64.5t-101 -195.5zM756 1405l-275 -322h-90l180 322h185z" />
    <glyph glyph-name="ecircumflex" unicode="&#xea;" horiz-adv-x="985" 
d="M913 483v-32h-682q0 -159 95.5 -252t234.5 -93q180 0 338 130v-144q-32 -22 -54.5 -35t-68.5 -33.5t-104 -31t-127 -10.5q-111 0 -200.5 40t-145 108t-84.5 153t-29 180q0 93 24 171.5t64.5 133.5t94.5 94t114.5 57.5t124.5 18.5q172 0 288.5 -128t116.5 -327zM240 553
h528q-7 71 -33.5 124t-65 81t-77.5 41.5t-80 13.5q-95 0 -171 -64.5t-101 -195.5zM571 1405l205 -322h-96l-188 201l-189 -201h-94l205 322h157z" />
    <glyph glyph-name="edieresis" unicode="&#xeb;" horiz-adv-x="985" 
d="M913 483v-32h-682q0 -159 95.5 -252t234.5 -93q180 0 338 130v-144q-32 -22 -54.5 -35t-68.5 -33.5t-104 -31t-127 -10.5q-111 0 -200.5 40t-145 108t-84.5 153t-29 180q0 93 24 171.5t64.5 133.5t94.5 94t114.5 57.5t124.5 18.5q172 0 288.5 -128t116.5 -327zM240 553
h528q-7 71 -33.5 124t-65 81t-77.5 41.5t-80 13.5q-95 0 -171 -64.5t-101 -195.5zM303 1335q38 0 65 -27t27 -65t-27 -65t-65 -27t-65 27t-27 65t27 65t65 27zM682 1335q38 0 65 -27t27 -65t-27 -65t-65 -27t-65 27t-27 65t27 65t65 27z" />
    <glyph glyph-name="igrave" unicode="&#xec;" horiz-adv-x="407" 
d="M274 920v-920h-141v920h141zM-29 1405h185l182 -322h-90z" />
    <glyph glyph-name="iacute" unicode="&#xed;" horiz-adv-x="407" 
d="M274 920v-920h-141v920h141zM467 1405l-274 -322h-91l181 322h184z" />
    <glyph glyph-name="icircumflex" unicode="&#xee;" horiz-adv-x="407" 
d="M274 920v-920h-141v920h141zM283 1405l204 -322h-96l-188 201l-189 -201h-94l205 322h158z" />
    <glyph glyph-name="idieresis" unicode="&#xef;" horiz-adv-x="407" 
d="M274 920v-920h-141v920h141zM14 1335q38 0 65 -27t27 -65t-27 -65t-65 -27t-65 27t-27 65t27 65t65 27zM393 1335q38 0 65 -27t27 -65t-27 -65t-65 -27t-65 27t-27 65t27 65t65 27z" />
    <glyph glyph-name="eth" unicode="&#xf0;" horiz-adv-x="1126" 
d="M600 1286l195 94l41 -90l-144 -67q350 -286 350 -715q0 -119 -31.5 -213t-80.5 -151.5t-115.5 -95t-130.5 -52t-131 -14.5q-94 0 -172.5 28t-132 75t-91 109t-54.5 128t-17 133q0 68 18 136t56.5 130.5t92 110.5t130 77t166.5 29t156.5 -28t130.5 -76q-56 124 -112 188.5
t-157 138.5l-262 -125l-41 88l205 99q-65 37 -104.5 54t-102.5 38l66 100q63 -21 112.5 -43t77 -37.5t82.5 -48.5zM565 813q-80 0 -145 -31t-105.5 -82t-62 -113t-21.5 -126q0 -148 95.5 -251.5t238.5 -103.5t237.5 103.5t94.5 251.5q0 151 -97.5 251.5t-234.5 100.5z" />
    <glyph glyph-name="ntilde" unicode="&#xf1;" horiz-adv-x="1007" 
d="M133 920h141v-140q119 158 289 158q154 0 242 -104.5t88 -284.5v-549h-141v537q0 126 -53.5 201t-168.5 75q-25 0 -51.5 -5.5t-63 -20.5t-74 -50t-67.5 -86v-651h-141v920zM260 1135h-74q3 24 4 32.5t7 36.5t12.5 42.5t19.5 37.5t29 35t40.5 21.5t53.5 9.5q65 0 183 -50
q90 -38 135 -38q23 0 39 8.5t24 26t11 27.5t6 30h73q0 -106 -51 -162.5t-117 -56.5q-57 0 -147 36q-3 1 -30 11.5t-39 15t-34 12t-37.5 10.5t-27.5 3q-66 0 -80 -88z" />
    <glyph glyph-name="ograve" unicode="&#xf2;" horiz-adv-x="1130" 
d="M563 938q97 0 186 -37.5t153 -101.5t102 -152.5t38 -185.5t-38 -186t-102 -153t-153 -102t-186 -38t-185.5 38t-152.5 102t-101.5 153t-37.5 186q0 198 139.5 337.5t337.5 139.5zM565 813q-143 0 -238.5 -102t-95.5 -250t95.5 -251.5t238.5 -103.5t237.5 103.5
t94.5 251.5t-94.5 250t-237.5 102zM334 1405h184l182 -322h-90z" />
    <glyph glyph-name="oacute" unicode="&#xf3;" horiz-adv-x="1130" 
d="M563 938q97 0 186 -37.5t153 -101.5t102 -152.5t38 -185.5t-38 -186t-102 -153t-153 -102t-186 -38t-185.5 38t-152.5 102t-101.5 153t-37.5 186q0 198 139.5 337.5t337.5 139.5zM565 813q-143 0 -238.5 -102t-95.5 -250t95.5 -251.5t238.5 -103.5t237.5 103.5
t94.5 251.5t-94.5 250t-237.5 102zM829 1405l-274 -322h-90l180 322h184z" />
    <glyph glyph-name="ocircumflex" unicode="&#xf4;" horiz-adv-x="1130" 
d="M563 938q97 0 186 -37.5t153 -101.5t102 -152.5t38 -185.5t-38 -186t-102 -153t-153 -102t-186 -38t-185.5 38t-152.5 102t-101.5 153t-37.5 186q0 198 139.5 337.5t337.5 139.5zM565 813q-143 0 -238.5 -102t-95.5 -250t95.5 -251.5t238.5 -103.5t237.5 103.5
t94.5 251.5t-94.5 250t-237.5 102zM645 1405l205 -322h-96l-189 201l-188 -201h-94l204 322h158z" />
    <glyph glyph-name="otilde" unicode="&#xf5;" horiz-adv-x="1130" 
d="M563 938q97 0 186 -37.5t153 -101.5t102 -152.5t38 -185.5t-38 -186t-102 -153t-153 -102t-186 -38t-185.5 38t-152.5 102t-101.5 153t-37.5 186q0 198 139.5 337.5t337.5 139.5zM565 813q-143 0 -238.5 -102t-95.5 -250t95.5 -251.5t238.5 -103.5t237.5 103.5
t94.5 251.5t-94.5 250t-237.5 102zM322 1135h-74q3 24 4 32.5t7 36.5t12.5 42.5t19.5 37.5t29 35t40.5 21.5t53.5 9.5q64 0 182 -50q90 -38 135 -38q23 0 39 8.5t24 26t11 27.5t6 30h74q0 -106 -51 -162.5t-117 -56.5q-58 0 -148 36q-3 1 -30 11.5t-39 15t-34 12t-37.5 10.5
t-27.5 3q-65 0 -79 -88z" />
    <glyph glyph-name="odieresis" unicode="&#xf6;" horiz-adv-x="1130" 
d="M563 938q97 0 186 -37.5t153 -101.5t102 -152.5t38 -185.5t-38 -186t-102 -153t-153 -102t-186 -38t-185.5 38t-152.5 102t-101.5 153t-37.5 186q0 198 139.5 337.5t337.5 139.5zM565 813q-143 0 -238.5 -102t-95.5 -250t95.5 -251.5t238.5 -103.5t237.5 103.5
t94.5 251.5t-94.5 250t-237.5 102zM377 1335q38 0 65 -27t27 -65t-27 -65t-65 -27t-65 27t-27 65t27 65t65 27zM756 1335q38 0 65 -27t27 -65t-27 -65t-65 -27t-65 27t-27 65t27 65t65 27z" />
    <glyph glyph-name="divide" unicode="&#xf7;" horiz-adv-x="1366" 
d="M682 1071q-35 0 -59.5 24.5t-24.5 59.5t24.5 60.5t59.5 25.5t60.5 -25.5t25.5 -60.5t-25.5 -59.5t-60.5 -24.5zM139 764h1088v-133h-1088v133zM682 324q35 0 60.5 -24.5t25.5 -59.5t-25.5 -60.5t-60.5 -25.5t-59.5 25.5t-24.5 60.5t24.5 59.5t59.5 24.5z" />
    <glyph glyph-name="oslash" unicode="&#xf8;" horiz-adv-x="1130" 
d="M289 70l-115 -129l-68 61l113 127q-133 140 -133 330q0 128 60.5 237t171.5 175.5t249 66.5q161 0 277 -90l112 131l68 -57l-115 -134q133 -137 133 -325q0 -114 -43 -208t-113 -152t-153 -89.5t-168 -31.5q-149 0 -276 88zM823 690l-450 -522q1 -1 7.5 -5.5t11.5 -8.5
t15.5 -10t20.5 -11t25 -10t30.5 -8.5t36 -6t41.5 -2.5q151 0 243.5 103t92.5 252q0 138 -74 229zM305 229l453 521q-3 2 -18 11.5t-28.5 17t-35.5 16t-51 13.5t-62 5q-146 0 -239 -99.5t-93 -252.5q0 -51 16.5 -115t57.5 -117z" />
    <glyph glyph-name="ugrave" unicode="&#xf9;" horiz-adv-x="1007" 
d="M874 0h-141v139q-119 -157 -289 -157q-154 0 -241.5 104.5t-87.5 284.5v549h141v-537q0 -126 53 -201.5t168 -75.5q25 0 51.5 5.5t63 20.5t74 50t67.5 86v652h141v-920zM272 1405h185l182 -322h-90z" />
    <glyph glyph-name="uacute" unicode="&#xfa;" horiz-adv-x="1007" 
d="M874 0h-141v139q-119 -157 -289 -157q-154 0 -241.5 104.5t-87.5 284.5v549h141v-537q0 -126 53 -201.5t168 -75.5q25 0 51.5 5.5t63 20.5t74 50t67.5 86v652h141v-920zM768 1405l-274 -322h-91l181 322h184z" />
    <glyph glyph-name="ucircumflex" unicode="&#xfb;" horiz-adv-x="1007" 
d="M874 0h-141v139q-119 -157 -289 -157q-154 0 -241.5 104.5t-87.5 284.5v549h141v-537q0 -126 53 -201.5t168 -75.5q25 0 51.5 5.5t63 20.5t74 50t67.5 86v652h141v-920zM584 1405l204 -322h-96l-188 201l-189 -201h-94l205 322h158z" />
    <glyph glyph-name="udieresis" unicode="&#xfc;" horiz-adv-x="1007" 
d="M874 0h-141v139q-119 -157 -289 -157q-154 0 -241.5 104.5t-87.5 284.5v549h141v-537q0 -126 53 -201.5t168 -75.5q25 0 51.5 5.5t63 20.5t74 50t67.5 86v652h141v-920zM315 1335q38 0 65.5 -27t27.5 -65t-27.5 -65t-65.5 -27t-65 27t-27 65t27 65t65 27zM694 1335
q38 0 65 -27t27 -65t-27 -65t-65 -27t-65 27t-27 65t27 65t65 27z" />
    <glyph glyph-name="yacute" unicode="&#xfd;" horiz-adv-x="884" 
d="M881 920l-670 -1391h-152l318 659l-373 732h154l293 -580l276 580h154zM707 1405l-275 -322h-90l180 322h185z" />
    <glyph glyph-name="thorn" unicode="&#xfe;" horiz-adv-x="1050" 
d="M133 1397h141v-512q103 53 211 53q71 0 138 -16.5t129.5 -53.5t109.5 -91.5t75 -136t28 -181.5q0 -210 -124.5 -343.5t-330.5 -133.5q-51 0 -105 12t-72.5 19t-58.5 24v-490h-141v1850zM274 760v-594q97 -57 213 -57q64 0 121 20t105 60.5t76 109.5t28 158
q0 71 -20.5 133.5t-61.5 113t-111 80t-161 29.5q-100 0 -189 -53z" />
    <glyph glyph-name="ydieresis" unicode="&#xff;" horiz-adv-x="884" 
d="M881 920l-670 -1391h-152l318 659l-373 732h154l293 -580l276 580h154zM254 1335q38 0 65 -27t27 -65t-27 -65t-65 -27t-65 27t-27 65t27 65t65 27zM633 1335q38 0 65 -27t27 -65t-27 -65t-65 -27t-65 27t-27 65t27 65t65 27z" />
    <glyph glyph-name="Amacron" unicode="&#x100;" horiz-adv-x="1368" 
d="M727 1405l637 -1405h-160l-203 449h-639l-198 -449h-160l621 1405h102zM938 584l-262 579l-254 -579h516zM989 1716v-129h-612v129h612z" />
    <glyph glyph-name="amacron" unicode="&#x101;" horiz-adv-x="897" 
d="M874 162v-96q-118 -84 -182 -84q-27 0 -46 9.5t-29.5 27t-15.5 32t-9 35.5q-81 -61 -141 -82.5t-127 -21.5q-98 0 -168 66.5t-70 166.5q0 58 25.5 107t83 92.5t156.5 78.5t239 60v82q0 23 -2 41.5t-12.5 46t-29 45.5t-54 31.5t-84.5 13.5q-83 0 -150 -35t-137 -100v147
q130 113 299 113q75 0 132.5 -20.5t90.5 -51t53.5 -71.5t27.5 -76t7 -70v-504q0 -29 5 -39t20 -10q37 0 118 66zM590 182v279q-363 -66 -363 -236q0 -39 16.5 -68.5t42 -44t50 -21.5t47.5 -7q103 0 207 98zM733 1309v-129h-612v129h612z" />
    <glyph glyph-name="Abreve" unicode="&#x102;" horiz-adv-x="1368" 
d="M727 1405l637 -1405h-160l-203 449h-639l-198 -449h-160l621 1405h102zM938 584l-262 579l-254 -579h516zM399 1741h109q25 -63 66 -99t112 -36t108 35.5t64 99.5h109q-75 -250 -283 -250q-114 0 -188 74.5t-97 175.5z" />
    <glyph glyph-name="abreve" unicode="&#x103;" horiz-adv-x="897" 
d="M874 162v-96q-118 -84 -182 -84q-27 0 -46 9.5t-29.5 27t-15.5 32t-9 35.5q-81 -61 -141 -82.5t-127 -21.5q-98 0 -168 66.5t-70 166.5q0 58 25.5 107t83 92.5t156.5 78.5t239 60v82q0 23 -2 41.5t-12.5 46t-29 45.5t-54 31.5t-84.5 13.5q-83 0 -150 -35t-137 -100v147
q130 113 299 113q75 0 132.5 -20.5t90.5 -51t53.5 -71.5t27.5 -76t7 -70v-504q0 -29 5 -39t20 -10q37 0 118 66zM590 182v279q-363 -66 -363 -236q0 -39 16.5 -68.5t42 -44t50 -21.5t47.5 -7q103 0 207 98zM133 1333h109q25 -63 66 -99t112 -36t108 35.5t64 99.5h108
q-15 -51 -35.5 -91.5t-53 -78.5t-82 -59t-111.5 -21q-114 0 -188 74.5t-97 175.5z" />
    <glyph glyph-name="Aogonek" unicode="&#x104;" horiz-adv-x="1368" 
d="M1204 0l-203 449h-639l-198 -449h-160l621 1405h102l637 -1405h-39q-80 -100 -80 -154q0 -47 39 -79.5t92 -32.5q30 0 74 12v-119q-64 -22 -123 -22q-100 0 -163.5 54t-63.5 144q0 104 104 197zM938 584l-262 579l-254 -579h516z" />
    <glyph glyph-name="aogonek" unicode="&#x105;" horiz-adv-x="897" 
d="M870 -229v-107q-83 -20 -120 -20q-30 0 -61.5 9.5t-62 29.5t-50 57t-19.5 86q0 97 84 170q-35 19 -49 90q-81 -61 -141 -82.5t-127 -21.5q-98 0 -168 66.5t-70 166.5q0 58 25.5 107t83 92.5t156.5 78.5t239 60v82q0 23 -2 41.5t-12.5 46t-29 45.5t-54 31.5t-84.5 13.5
q-83 0 -150 -35t-137 -100v147q130 113 299 113q75 0 132.5 -20.5t90.5 -51t53.5 -71.5t27.5 -76t7 -70v-504q0 -29 5 -39t20 -10q37 0 118 66v-96q-21 -14 -55.5 -34.5t-53 -33.5t-39.5 -32.5t-30.5 -44t-9.5 -56.5q0 -51 37.5 -79t75.5 -28q12 0 24.5 2t27 6t19.5 5z
M590 182v279q-363 -66 -363 -236q0 -39 16.5 -68.5t42 -44t50 -21.5t47.5 -7q103 0 207 98z" />
    <glyph glyph-name="Cacute" unicode="&#x106;" horiz-adv-x="1421" 
d="M1331 1298v-165q-252 137 -485 137q-164 0 -298 -74t-211 -206.5t-77 -295.5q0 -164 76.5 -294t208.5 -201.5t295 -71.5q253 0 506 147v-165q-239 -127 -502 -127q-165 0 -306 56.5t-237 153.5t-150.5 227t-54.5 275q0 160 62.5 297.5t166 229t236 143t273.5 51.5
q233 0 497 -117zM1036 1812l-274 -321h-90l180 321h184z" />
    <glyph glyph-name="cacute" unicode="&#x107;" horiz-adv-x="878" 
d="M791 883v-152q-130 76 -252 76q-70 0 -125.5 -25.5t-88.5 -63.5t-55.5 -87t-30.5 -92t-8 -82q0 -48 10.5 -95t35.5 -92.5t62 -80t94.5 -55.5t129.5 -21q112 0 246 59v-139q-137 -51 -260 -51q-145 0 -251.5 62.5t-159 168t-52.5 240.5q0 221 128 353t325 132
q122 0 252 -55zM776 1405l-274 -322h-90l180 322h184z" />
    <glyph glyph-name="Ccircumflex" unicode="&#x108;" horiz-adv-x="1421" 
d="M1331 1298v-165q-252 137 -485 137q-164 0 -298 -74t-211 -206.5t-77 -295.5q0 -164 76.5 -294t208.5 -201.5t295 -71.5q253 0 506 147v-165q-239 -127 -502 -127q-165 0 -306 56.5t-237 153.5t-150.5 227t-54.5 275q0 160 62.5 297.5t166 229t236 143t273.5 51.5
q233 0 497 -117zM887 1812l205 -321h-97l-188 201l-189 -201h-94l205 321h158z" />
    <glyph glyph-name="ccircumflex" unicode="&#x109;" horiz-adv-x="878" 
d="M791 883v-152q-130 76 -252 76q-70 0 -125.5 -25.5t-88.5 -63.5t-55.5 -87t-30.5 -92t-8 -82q0 -48 10.5 -95t35.5 -92.5t62 -80t94.5 -55.5t129.5 -21q112 0 246 59v-139q-137 -51 -260 -51q-145 0 -251.5 62.5t-159 168t-52.5 240.5q0 221 128 353t325 132
q122 0 252 -55zM567 1405l205 -322h-96l-189 201l-188 -201h-94l205 322h157z" />
    <glyph glyph-name="Cdotaccent" unicode="&#x10a;" horiz-adv-x="1421" 
d="M1331 1298v-165q-252 137 -485 137q-164 0 -298 -74t-211 -206.5t-77 -295.5q0 -164 76.5 -294t208.5 -201.5t295 -71.5q253 0 506 147v-165q-239 -127 -502 -127q-165 0 -306 56.5t-237 153.5t-150.5 227t-54.5 275q0 160 62.5 297.5t166 229t236 143t273.5 51.5
q233 0 497 -117zM797 1747q40 0 69 -28.5t29 -69.5q0 -40 -28.5 -69.5t-69.5 -29.5t-70 29.5t-29 69.5q0 41 29.5 69.5t69.5 28.5z" />
    <glyph glyph-name="cdotaccent" unicode="&#x10b;" horiz-adv-x="878" 
d="M791 883v-152q-130 76 -252 76q-70 0 -125.5 -25.5t-88.5 -63.5t-55.5 -87t-30.5 -92t-8 -82q0 -48 10.5 -95t35.5 -92.5t62 -80t94.5 -55.5t129.5 -21q112 0 246 59v-139q-137 -51 -260 -51q-145 0 -251.5 62.5t-159 168t-52.5 240.5q0 221 128 353t325 132
q122 0 252 -55zM489 1335q38 0 65.5 -27t27.5 -65t-27.5 -65t-65.5 -27t-65 27t-27 65t27 65t65 27z" />
    <glyph glyph-name="Ccaron" unicode="&#x10c;" horiz-adv-x="1421" 
d="M1331 1298v-165q-252 137 -485 137q-164 0 -298 -74t-211 -206.5t-77 -295.5q0 -164 76.5 -294t208.5 -201.5t295 -71.5q253 0 506 147v-165q-239 -127 -502 -127q-165 0 -306 56.5t-237 153.5t-150.5 227t-54.5 275q0 160 62.5 297.5t166 229t236 143t273.5 51.5
q233 0 497 -117zM709 1491l-205 321h96l188 -200l189 200h94l-205 -321h-157z" />
    <glyph glyph-name="ccaron" unicode="&#x10d;" horiz-adv-x="878" 
d="M791 883v-152q-130 76 -252 76q-70 0 -125.5 -25.5t-88.5 -63.5t-55.5 -87t-30.5 -92t-8 -82q0 -48 10.5 -95t35.5 -92.5t62 -80t94.5 -55.5t129.5 -21q112 0 246 59v-139q-137 -51 -260 -51q-145 0 -251.5 62.5t-159 168t-52.5 240.5q0 221 128 353t325 132
q122 0 252 -55zM416 1083l-205 322h96l189 -201l188 201h94l-205 -322h-157z" />
    <glyph glyph-name="Dcaron" unicode="&#x10e;" horiz-adv-x="1527" 
d="M164 1397h432q139 0 260 -23.5t228 -76.5t183.5 -132.5t120.5 -198.5t44 -268t-44 -268t-120.5 -198.5t-183.5 -132.5t-228 -76t-260 -23h-432v1397zM317 1262v-1127h289q66 0 127.5 6t129 23t124.5 43.5t110.5 70.5t90 101.5t58.5 139t22 179.5t-22 180t-59 139t-90 101
t-110 71t-124.5 44t-129 23t-127.5 6h-289zM590 1491l-205 321h96l189 -200l188 200h94l-204 -321h-158z" />
    <glyph glyph-name="dcaron" unicode="&#x10f;" horiz-adv-x="1136" 
d="M918 0h-324q-242 0 -375 119t-133 340q0 98 30.5 184t87 152t144 104.5t195.5 38.5q20 0 41 -2t37.5 -4.5t35 -7t30.5 -8t28.5 -9.5t23.5 -8.5t21 -8.5t16 -7v514h142v-1397zM776 125v629q-108 59 -211 59q-109 0 -186.5 -50t-112.5 -127.5t-35 -172.5q0 -162 99 -250
t266 -88h180zM1018 965v32q83 83 72 185q-31 10 -51.5 27t-28 36.5t-9.5 30t-2 20.5q0 53 32 86t71 33q56 0 87.5 -47t31.5 -119q0 -32 -7.5 -67t-27 -78.5t-63 -81t-105.5 -57.5z" />
    <glyph glyph-name="Dcroat" unicode="&#x110;" horiz-adv-x="1527" 
d="M164 1397h432q139 0 260 -23.5t228 -76.5t183.5 -132.5t120.5 -198.5t44 -268t-44 -268t-120.5 -198.5t-183.5 -132.5t-228 -76t-260 -23h-432v643h-187v111h187v643zM317 1262v-508h424v-111h-424v-508h289q66 0 127.5 6t129 23t124.5 43.5t110.5 70.5t90 101.5
t58.5 139t22 179.5t-22 180t-59 139t-90 101t-110 71t-124.5 44t-129 23t-127.5 6h-289z" />
    <glyph glyph-name="dcroat" unicode="&#x111;" horiz-adv-x="1050" 
d="M510 1108v94h266v195h142v-195h141v-94h-141v-1108h-324q-242 0 -375 119t-133 340q0 98 30.5 184t87 152t144 104.5t195.5 38.5q20 0 41 -2t37.5 -4.5t35 -7t30.5 -8t28.5 -9.5t23.5 -8.5t21 -8.5t16 -7v225h-266zM776 125v629q-108 59 -211 59q-109 0 -186.5 -50
t-112.5 -127.5t-35 -172.5q0 -162 99 -250t266 -88h180z" />
    <glyph glyph-name="Emacron" unicode="&#x112;" horiz-adv-x="1021" 
d="M942 1397v-135h-625v-490h607v-135h-607v-502h641v-135h-794v1397h778zM848 1716v-129h-612v129h612z" />
    <glyph glyph-name="emacron" unicode="&#x113;" horiz-adv-x="985" 
d="M913 483v-32h-682q0 -159 95.5 -252t234.5 -93q180 0 338 130v-144q-32 -22 -54.5 -35t-68.5 -33.5t-104 -31t-127 -10.5q-111 0 -200.5 40t-145 108t-84.5 153t-29 180q0 93 24 171.5t64.5 133.5t94.5 94t114.5 57.5t124.5 18.5q172 0 288.5 -128t116.5 -327zM240 553
h528q-7 71 -33.5 124t-65 81t-77.5 41.5t-80 13.5q-95 0 -171 -64.5t-101 -195.5zM819 1309v-129h-612v129h612z" />
    <glyph glyph-name="Ebreve" unicode="&#x114;" horiz-adv-x="1021" 
d="M942 1397v-135h-625v-490h607v-135h-607v-502h641v-135h-794v1397h778zM260 1741h109q25 -63 66 -99t112 -36t108 35.5t64 99.5h108q-15 -51 -35.5 -91.5t-53 -78.5t-82 -59t-111.5 -21q-114 0 -188 74.5t-97 175.5z" />
    <glyph glyph-name="ebreve" unicode="&#x115;" horiz-adv-x="985" 
d="M913 483v-32h-682q0 -159 95.5 -252t234.5 -93q180 0 338 130v-144q-32 -22 -54.5 -35t-68.5 -33.5t-104 -31t-127 -10.5q-111 0 -200.5 40t-145 108t-84.5 153t-29 180q0 93 24 171.5t64.5 133.5t94.5 94t114.5 57.5t124.5 18.5q172 0 288.5 -128t116.5 -327zM240 553
h528q-7 71 -33.5 124t-65 81t-77.5 41.5t-80 13.5q-95 0 -171 -64.5t-101 -195.5zM229 1333h109q25 -63 66 -99t112 -36t108 35.5t64 99.5h109q-75 -250 -283 -250q-114 0 -188 74.5t-97 175.5z" />
    <glyph glyph-name="Edotaccent" unicode="&#x116;" horiz-adv-x="1021" 
d="M942 1397v-135h-625v-490h607v-135h-607v-502h641v-135h-794v1397h778zM551 1747q40 0 69 -28.5t29 -69.5q0 -40 -28.5 -69.5t-69.5 -29.5t-69.5 29.5t-28.5 69.5q0 41 29 69.5t69 28.5z" />
    <glyph glyph-name="edotaccent" unicode="&#x117;" horiz-adv-x="985" 
d="M913 483v-32h-682q0 -159 95.5 -252t234.5 -93q180 0 338 130v-144q-32 -22 -54.5 -35t-68.5 -33.5t-104 -31t-127 -10.5q-111 0 -200.5 40t-145 108t-84.5 153t-29 180q0 93 24 171.5t64.5 133.5t94.5 94t114.5 57.5t124.5 18.5q172 0 288.5 -128t116.5 -327zM240 553
h528q-7 71 -33.5 124t-65 81t-77.5 41.5t-80 13.5q-95 0 -171 -64.5t-101 -195.5zM512 1335q38 0 65 -27t27 -65t-27 -65t-65 -27t-65 27t-27 65t27 65t65 27z" />
    <glyph glyph-name="Eogonek" unicode="&#x118;" horiz-adv-x="1021" 
d="M707 0h-543v1397h778v-135h-625v-490h607v-135h-607v-502h641v-135h-131q-79 -98 -79 -154q0 -47 39 -79.5t92 -32.5q29 0 73 12v-119q-64 -22 -123 -22q-100 0 -163.5 54t-63.5 144q0 103 105 197z" />
    <glyph glyph-name="eogonek" unicode="&#x119;" horiz-adv-x="985" 
d="M881 -229v-107q-82 -20 -121 -20q-30 0 -61.5 9.5t-62 29.5t-50 57t-19.5 86q0 97 76 162q-47 -6 -98 -6q-111 0 -200.5 40t-145 108t-84.5 153t-29 180q0 93 24 171.5t64.5 133.5t94.5 94t114.5 57.5t124.5 18.5q172 0 288.5 -128t116.5 -327v-32h-682q0 -159 95.5 -252
t234.5 -93q180 0 338 130v-144q-67 -43 -106 -61q-56 -61 -76.5 -94t-20.5 -72q0 -51 37.5 -79t75.5 -28q12 0 24.5 2t27.5 6t20 5zM240 553h528q-7 71 -33.5 124t-65 81t-77.5 41.5t-80 13.5q-95 0 -171 -64.5t-101 -195.5z" />
    <glyph glyph-name="Ecaron" unicode="&#x11a;" horiz-adv-x="1021" 
d="M942 1397v-135h-625v-490h607v-135h-607v-502h641v-135h-794v1397h778zM463 1491l-205 321h96l189 -200l188 200h94l-204 -321h-158z" />
    <glyph glyph-name="ecaron" unicode="&#x11b;" horiz-adv-x="985" 
d="M913 483v-32h-682q0 -159 95.5 -252t234.5 -93q180 0 338 130v-144q-32 -22 -54.5 -35t-68.5 -33.5t-104 -31t-127 -10.5q-111 0 -200.5 40t-145 108t-84.5 153t-29 180q0 93 24 171.5t64.5 133.5t94.5 94t114.5 57.5t124.5 18.5q172 0 288.5 -128t116.5 -327zM240 553
h528q-7 71 -33.5 124t-65 81t-77.5 41.5t-80 13.5q-95 0 -171 -64.5t-101 -195.5zM434 1083l-205 322h97l188 -201l188 201h95l-205 -322h-158z" />
    <glyph glyph-name="Gcircumflex" unicode="&#x11c;" horiz-adv-x="1486" 
d="M1333 1296v-163q-78 48 -161.5 80t-154 44t-108 15.5t-71.5 3.5q-124 0 -232 -45.5t-183.5 -123t-119 -184t-43.5 -225.5q0 -137 51 -250.5t134 -184t184 -108.5t207 -38q29 0 57.5 2t56 6t50.5 8t48.5 10.5t42.5 11t39 12.5t31 11t27.5 10t19.5 7v331h-282v136h436v-564
q-263 -116 -512 -116q-138 0 -259.5 38t-211 105.5t-154 157t-97 195t-32.5 218.5q0 147 54.5 278.5t151 229t238.5 154.5t308 57q72 0 138.5 -9.5t132 -30t106.5 -36t108 -43.5zM891 1812l205 -321h-97l-188 201l-188 -201h-95l205 321h158z" />
    <glyph glyph-name="gcircumflex" unicode="&#x11d;" horiz-adv-x="874" 
d="M858 920v-113h-199q21 -19 36 -35.5t35 -45t31 -65.5t11 -79q0 -119 -75 -196t-195 -105q-130 -31 -176.5 -52t-46.5 -61t43.5 -60t156.5 -34q203 -26 290 -90t87 -179q0 -90 -59 -154t-151.5 -93t-207.5 -29q-200 0 -310 77t-110 191q0 34 11 66t36.5 66.5t77.5 61.5
t125 40q-61 22 -92 58.5t-31 64.5q0 20 5.5 37t20.5 31t25.5 23t37 20.5t36.5 15.5t43 16q-32 14 -56 26t-58 37.5t-55.5 55t-37.5 76t-16 102.5q0 47 10 89t38 87t73 77t121 52.5t176 20.5h350zM643 592q0 86 -61.5 146.5t-149.5 60.5t-150.5 -60.5t-62.5 -146.5
q0 -76 58 -140.5t155 -64.5t154 59t57 146zM723 -201q0 25 -13.5 49.5t-44 49t-93.5 40t-150 15.5q-79 0 -135.5 -15t-84 -39.5t-39 -49t-11.5 -50.5q0 -51 31 -85t82.5 -48.5t91.5 -19t85 -4.5q131 0 206 45t75 112zM516 1405l205 -322h-96l-189 201l-188 -201h-94l204 322
h158z" />
    <glyph glyph-name="Gbreve" unicode="&#x11e;" horiz-adv-x="1486" 
d="M1333 1296v-163q-78 48 -161.5 80t-154 44t-108 15.5t-71.5 3.5q-124 0 -232 -45.5t-183.5 -123t-119 -184t-43.5 -225.5q0 -137 51 -250.5t134 -184t184 -108.5t207 -38q29 0 57.5 2t56 6t50.5 8t48.5 10.5t42.5 11t39 12.5t31 11t27.5 10t19.5 7v331h-282v136h436v-564
q-263 -116 -512 -116q-138 0 -259.5 38t-211 105.5t-154 157t-97 195t-32.5 218.5q0 147 54.5 278.5t151 229t238.5 154.5t308 57q72 0 138.5 -9.5t132 -30t106.5 -36t108 -43.5zM541 1741h108q25 -63 66 -99t112 -36t108 35.5t64 99.5h109q-75 -250 -283 -250
q-114 0 -187.5 74.5t-96.5 175.5z" />
    <glyph glyph-name="gbreve" unicode="&#x11f;" horiz-adv-x="874" 
d="M858 920v-113h-199q21 -19 36 -35.5t35 -45t31 -65.5t11 -79q0 -119 -75 -196t-195 -105q-130 -31 -176.5 -52t-46.5 -61t43.5 -60t156.5 -34q203 -26 290 -90t87 -179q0 -90 -59 -154t-151.5 -93t-207.5 -29q-200 0 -310 77t-110 191q0 34 11 66t36.5 66.5t77.5 61.5
t125 40q-61 22 -92 58.5t-31 64.5q0 20 5.5 37t20.5 31t25.5 23t37 20.5t36.5 15.5t43 16q-32 14 -56 26t-58 37.5t-55.5 55t-37.5 76t-16 102.5q0 47 10 89t38 87t73 77t121 52.5t176 20.5h350zM643 592q0 86 -61.5 146.5t-149.5 60.5t-150.5 -60.5t-62.5 -146.5
q0 -76 58 -140.5t155 -64.5t154 59t57 146zM723 -201q0 25 -13.5 49.5t-44 49t-93.5 40t-150 15.5q-79 0 -135.5 -15t-84 -39.5t-39 -49t-11.5 -50.5q0 -51 31 -85t82.5 -48.5t91.5 -19t85 -4.5q131 0 206 45t75 112zM174 1333h109q25 -63 66 -99t112 -36t108 35.5t64 99.5
h108q-15 -51 -35.5 -91.5t-53 -78.5t-82 -59t-111.5 -21q-114 0 -188 74.5t-97 175.5z" />
    <glyph glyph-name="Gdotaccent" unicode="&#x120;" horiz-adv-x="1486" 
d="M1333 1296v-163q-78 48 -161.5 80t-154 44t-108 15.5t-71.5 3.5q-124 0 -232 -45.5t-183.5 -123t-119 -184t-43.5 -225.5q0 -137 51 -250.5t134 -184t184 -108.5t207 -38q29 0 57.5 2t56 6t50.5 8t48.5 10.5t42.5 11t39 12.5t31 11t27.5 10t19.5 7v331h-282v136h436v-564
q-263 -116 -512 -116q-138 0 -259.5 38t-211 105.5t-154 157t-97 195t-32.5 218.5q0 147 54.5 278.5t151 229t238.5 154.5t308 57q72 0 138.5 -9.5t132 -30t106.5 -36t108 -43.5zM797 1747q40 0 69 -28.5t29 -69.5q0 -40 -28.5 -69.5t-69.5 -29.5t-70 29.5t-29 69.5
q0 41 29.5 69.5t69.5 28.5z" />
    <glyph glyph-name="gdotaccent" unicode="&#x121;" horiz-adv-x="874" 
d="M858 920v-113h-199q21 -19 36 -35.5t35 -45t31 -65.5t11 -79q0 -119 -75 -196t-195 -105q-130 -31 -176.5 -52t-46.5 -61t43.5 -60t156.5 -34q203 -26 290 -90t87 -179q0 -90 -59 -154t-151.5 -93t-207.5 -29q-200 0 -310 77t-110 191q0 34 11 66t36.5 66.5t77.5 61.5
t125 40q-61 22 -92 58.5t-31 64.5q0 20 5.5 37t20.5 31t25.5 23t37 20.5t36.5 15.5t43 16q-32 14 -56 26t-58 37.5t-55.5 55t-37.5 76t-16 102.5q0 47 10 89t38 87t73 77t121 52.5t176 20.5h350zM643 592q0 86 -61.5 146.5t-149.5 60.5t-150.5 -60.5t-62.5 -146.5
q0 -76 58 -140.5t155 -64.5t154 59t57 146zM723 -201q0 25 -13.5 49.5t-44 49t-93.5 40t-150 15.5q-79 0 -135.5 -15t-84 -39.5t-39 -49t-11.5 -50.5q0 -51 31 -85t82.5 -48.5t91.5 -19t85 -4.5q131 0 206 45t75 112zM436 1335q38 0 65 -27t27 -65t-27 -65t-65 -27t-65 27
t-27 65t27 65t65 27z" />
    <glyph glyph-name="Gcommaaccent" unicode="&#x122;" horiz-adv-x="1486" 
d="M1333 1296v-163q-78 48 -161.5 80t-154 44t-108 15.5t-71.5 3.5q-124 0 -232 -45.5t-183.5 -123t-119 -184t-43.5 -225.5q0 -137 51 -250.5t134 -184t184 -108.5t207 -38q29 0 57.5 2t56 6t50.5 8t48.5 10.5t42.5 11t39 12.5t31 11t27.5 10t19.5 7v331h-282v136h436v-564
q-263 -116 -512 -116q-138 0 -259.5 38t-211 105.5t-154 157t-97 195t-32.5 218.5q0 147 54.5 278.5t151 229t238.5 154.5t308 57q72 0 138.5 -9.5t132 -30t106.5 -36t108 -43.5zM612 -436l6 98q54 -4 84 -4q166 0 166 76q0 35 -36 52.5t-82.5 17t-90.5 -0.5l19 99
q23 2 67 2q39 0 77 -5t87 -20t79 -49.5t30 -85.5q0 -86 -82 -137t-225 -51q-63 0 -99 8z" />
    <glyph glyph-name="gcommaaccent" unicode="&#x123;" horiz-adv-x="874" 
d="M573 1466v-28q-71 -74 -65 -164q28 -9 46.5 -25t25 -33t8.5 -26.5t2 -18.5q0 -47 -27.5 -76.5t-60.5 -29.5q-49 0 -77 41.5t-28 105.5q0 29 6.5 59.5t23 70t54.5 73t92 51.5zM858 920v-113h-199q21 -19 36 -35.5t35 -45t31 -65.5t11 -79q0 -119 -75 -196t-195 -105
q-130 -31 -176.5 -52t-46.5 -61t43.5 -60t156.5 -34q203 -26 290 -90t87 -179q0 -90 -59 -154t-151.5 -93t-207.5 -29q-200 0 -310 77t-110 191q0 34 11 66t36.5 66.5t77.5 61.5t125 40q-61 22 -92 58.5t-31 64.5q0 20 5.5 37t20.5 31t25.5 23t37 20.5t36.5 15.5t43 16
q-32 14 -56 26t-58 37.5t-55.5 55t-37.5 76t-16 102.5q0 47 10 89t38 87t73 77t121 52.5t176 20.5h350zM643 592q0 86 -61.5 146.5t-149.5 60.5t-150.5 -60.5t-62.5 -146.5q0 -76 58 -140.5t155 -64.5t154 59t57 146zM723 -201q0 25 -13.5 49.5t-44 49t-93.5 40t-150 15.5
q-79 0 -135.5 -15t-84 -39.5t-39 -49t-11.5 -50.5q0 -51 31 -85t82.5 -48.5t91.5 -19t85 -4.5q131 0 206 45t75 112z" />
    <glyph glyph-name="Hcircumflex" unicode="&#x124;" horiz-adv-x="1492" 
d="M1329 1397v-1397h-153v639h-859v-639h-153v1397h153v-623h859v623h153zM825 1812l205 -321h-96l-189 201l-188 -201h-94l205 321h157z" />
    <glyph glyph-name="hcircumflex" unicode="&#x125;" horiz-adv-x="1007" 
d="M133 1397h141v-617q119 158 289 158q154 0 242 -104.5t88 -284.5v-549h-141v537q0 126 -53.5 201t-168.5 75q-25 0 -51.5 -5.5t-63 -20.5t-74 -50t-67.5 -86v-651h-141v1397zM582 1812l204 -321h-96l-188 201l-189 -201h-94l205 321h158z" />
    <glyph glyph-name="Hbar" unicode="&#x126;" horiz-adv-x="1492" 
d="M0 1026v111h164v260h153v-260h859v260h153v-260h164v-111h-164v-1026h-153v639h-859v-639h-153v1026h-164zM317 774h859v252h-859v-252z" />
    <glyph glyph-name="hbar" unicode="&#x127;" horiz-adv-x="1007" 
d="M133 1397h141v-205h338v-94h-338v-318q119 158 289 158q154 0 242 -104.5t88 -284.5v-549h-141v537q0 126 -53.5 201t-168.5 75q-25 0 -51.5 -5.5t-63 -20.5t-74 -50t-67.5 -86v-651h-141v1098h-143v94h143v205z" />
    <glyph glyph-name="Itilde" unicode="&#x128;" horiz-adv-x="491" 
d="M322 1397v-1397h-154v1397h154zM2 1542h-74q3 24 4 32.5t7 36.5t12.5 42.5t19.5 37.5t29 35t40.5 21.5t53.5 9.5q66 0 182 -49q93 -39 136 -39q23 0 39 8.5t24 26t11 27.5t6 30h73q0 -106 -51 -162.5t-117 -56.5q-55 0 -147 37q-133 51 -168 51q-66 0 -80 -88z" />
    <glyph glyph-name="itilde" unicode="&#x129;" horiz-adv-x="407" 
d="M274 920v-920h-141v920h141zM-41 1135h-74q3 24 4 32.5t7 36.5t12.5 42.5t19.5 37.5t29 35t40.5 21.5t53.5 9.5q64 0 182 -50q90 -38 136 -38q23 0 39 8.5t24 26t11 27.5t6 30h73q0 -106 -51 -162.5t-117 -56.5q-57 0 -147 36q-3 1 -30 11.5t-39 15t-34 12t-37.5 10.5
t-27.5 3q-66 0 -80 -88z" />
    <glyph glyph-name="Imacron" unicode="&#x12a;" horiz-adv-x="491" 
d="M322 1397v-1397h-154v1397h154zM553 1716v-129h-612v129h612z" />
    <glyph glyph-name="imacron" unicode="&#x12b;" horiz-adv-x="407" 
d="M274 920v-920h-141v920h141zM510 1309v-129h-612v129h612z" />
    <glyph glyph-name="Ibreve" unicode="&#x12c;" horiz-adv-x="491" 
d="M322 1397v-1397h-154v1397h154zM-37 1741h109q25 -63 66 -99t112 -36t108 35.5t64 99.5h108q-15 -51 -35.5 -91.5t-53 -78.5t-82 -59t-111.5 -21q-114 0 -188 74.5t-97 175.5z" />
    <glyph glyph-name="ibreve" unicode="&#x12d;" horiz-adv-x="407" 
d="M274 920v-920h-141v920h141zM-80 1333h109q25 -63 66 -99t112 -36t108 35.5t64 99.5h108q-15 -51 -35.5 -91.5t-53 -78.5t-82 -59t-111.5 -21q-114 0 -188 74.5t-97 175.5z" />
    <glyph glyph-name="Iogonek" unicode="&#x12e;" horiz-adv-x="491" 
d="M168 0v1397h154v-1397h-33q-80 -100 -80 -154q0 -47 39 -79.5t92 -32.5q30 0 74 12v-119q-64 -22 -123 -22q-100 0 -164 54.5t-64 143.5q0 103 105 197z" />
    <glyph glyph-name="iogonek" unicode="&#x12f;" horiz-adv-x="407" 
d="M356 -229v-107q-82 -20 -120 -20q-30 0 -61.5 9.5t-62 29.5t-50 57t-19.5 86q0 99 90 174v920h141v-920h-32q-37 -42 -53.5 -71.5t-16.5 -63.5q0 -51 37.5 -79t75.5 -28q12 0 24.5 2t27 6t19.5 5zM205 1294q38 0 65 -27t27 -65t-27 -65t-65 -27t-65 27t-27 65t27 65
t65 27z" />
    <glyph glyph-name="Idotaccent" unicode="&#x130;" horiz-adv-x="491" 
d="M322 1397v-1397h-154v1397h154zM244 1747q40 0 69 -28.5t29 -69.5q0 -40 -28.5 -69.5t-69.5 -29.5t-70 29.5t-29 69.5q0 41 29.5 69.5t69.5 28.5z" />
    <glyph glyph-name="dotlessi" unicode="&#x131;" horiz-adv-x="407" 
d="M274 920v-920h-141v920h141z" />
    <glyph glyph-name="IJ" unicode="&#x132;" horiz-adv-x="970" 
d="M322 1397v-1397h-154v1397h154zM813 1397v-1377q0 -207 -55 -299q-96 -161 -299 -161q-31 0 -47 2l-27 147q32 -4 57 -4q44 0 78.5 10.5t57 26.5t38.5 43.5t24 52.5t12.5 64t5.5 66t1 71v1358h154z" />
    <glyph glyph-name="ij" unicode="&#x133;" horiz-adv-x="811" 
d="M274 920v-920h-141v920h141zM205 1294q38 0 65 -27t27 -65t-27 -65t-65 -27t-65 27t-27 65t27 65t65 27zM682 920v-967q0 -182 -37 -266q-6 -14 -17 -32t-33 -44.5t-59 -49t-81 -32.5l-82 109q46 9 77.5 29.5t49 46t27 68t12 81.5t2.5 100v957h141zM612 1294
q38 0 65.5 -27t27.5 -65t-27.5 -65t-65.5 -27t-65 27t-27 65t27 65t65 27z" />
    <glyph glyph-name="Jcircumflex" unicode="&#x134;" horiz-adv-x="479" 
d="M322 1397v-1377q0 -205 -56 -299q-96 -161 -299 -161q-31 0 -47 2l-26 147q32 -4 57 -4q44 0 78.5 10.5t57 26.5t38.5 43.5t24 52.5t12.5 64t5.5 66t1 71v1358h154zM319 1812l205 -321h-96l-188 201l-189 -201h-94l205 321h157z" />
    <glyph glyph-name="jcircumflex" unicode="&#x135;" horiz-adv-x="403" 
d="M274 920v-967q0 -184 -36 -266q-6 -14 -17.5 -32t-33.5 -44.5t-59 -49t-81 -32.5l-82 109q46 9 77.5 29.5t49 46t27 68t12 81.5t2.5 100v957h141zM283 1405l204 -322h-96l-188 201l-189 -201h-94l205 322h158z" />
    <glyph glyph-name="Kcommaaccent" unicode="&#x136;" horiz-adv-x="1224" 
d="M1139 1397l-635 -678l743 -719h-207l-723 696v-696h-153v1397h153v-668l631 668h191zM446 -436l7 98q54 -4 84 -4q165 0 165 76q0 35 -35.5 52.5t-82 17t-90.5 -0.5l18 99q23 2 68 2q39 0 77 -5t86.5 -20t78.5 -49.5t30 -85.5q0 -86 -82 -137t-225 -51q-63 0 -99 8z" />
    <glyph glyph-name="kcommaaccent" unicode="&#x137;" horiz-adv-x="942" 
d="M274 1397v-1397h-141v1397h141zM915 920l-446 -443l528 -477h-192l-520 477l456 443h174zM334 -371l6 88q33 -4 61 -4q125 0 125 70q0 23 -12.5 37.5t-36.5 20t-38.5 6.5t-37.5 1l25 80q16 2 29 2q74 0 129 -34t55 -105q0 -32 -10.5 -60t-35 -54t-71 -41t-110.5 -15
q-51 0 -78 8z" />
    <glyph glyph-name="kgreenlandic" unicode="&#x138;" horiz-adv-x="942" 
d="M274 920v-920h-141v920h141zM915 920l-446 -443l528 -477h-192l-520 477l456 443h174z" />
    <glyph glyph-name="Lacute" unicode="&#x139;" horiz-adv-x="987" 
d="M317 1397v-1262h660v-135h-813v1397h153zM553 1812l-274 -321h-91l181 321h184z" />
    <glyph glyph-name="lacute" unicode="&#x13a;" horiz-adv-x="407" 
d="M274 1397v-1397h-141v1397h141zM469 1812l-274 -321h-91l181 321h184z" />
    <glyph glyph-name="Lcommaaccent" unicode="&#x13b;" horiz-adv-x="987" 
d="M317 1397v-1262h660v-135h-813v1397h153zM324 -436l6 98q54 -4 84 -4q166 0 166 76q0 35 -36 52.5t-82.5 17t-90.5 -0.5l18 99q23 2 68 2q39 0 77 -5t86.5 -20t78.5 -49.5t30 -85.5q0 -86 -82 -137t-225 -51q-62 0 -98 8z" />
    <glyph glyph-name="lcommaaccent" unicode="&#x13c;" horiz-adv-x="407" 
d="M274 1397v-1397h-141v1397h141zM68 -371l6 88q33 -4 61 -4q125 0 125 70q0 23 -12.5 37.5t-36.5 20t-38.5 6.5t-37.5 1l25 80q16 2 28 2q74 0 129.5 -34t55.5 -105q0 -32 -11 -60t-35 -54t-71 -41t-111 -15q-50 0 -77 8z" />
    <glyph glyph-name="Lcaron" unicode="&#x13d;" horiz-adv-x="987" 
d="M317 1397v-1262h660v-135h-813v1397h153zM637 965v32q83 83 72 185q-31 10 -51.5 27t-28 36.5t-9.5 30t-2 20.5q0 53 32 86t71 33q56 0 87.5 -47t31.5 -119q0 -32 -7.5 -67t-27 -78.5t-63 -81t-105.5 -57.5z" />
    <glyph glyph-name="lcaron" unicode="&#x13e;" horiz-adv-x="493" 
d="M274 1397v-1397h-141v1397h141zM375 965v32q82 82 71 185q-90 29 -90 114q0 53 32 86t71 33q56 0 87.5 -47t31.5 -119q0 -32 -7.5 -67t-27 -78.5t-63 -81t-105.5 -57.5z" />
    <glyph glyph-name="Ldot" unicode="&#x13f;" horiz-adv-x="987" 
d="M317 1397v-1262h660v-135h-813v1397h153zM631 805q40 0 69 -28.5t29 -69.5q0 -40 -28.5 -69.5t-69.5 -29.5t-70 29.5t-29 69.5q0 41 29.5 69.5t69.5 28.5z" />
    <glyph glyph-name="ldot" unicode="&#x140;" horiz-adv-x="526" 
d="M274 1397v-1397h-141v1397h141zM473 801q38 0 65 -27t27 -65t-27 -65.5t-65 -27.5t-65 27.5t-27 65.5t27 65t65 27z" />
    <glyph glyph-name="Lslash" unicode="&#x141;" horiz-adv-x="987" 
d="M317 618v-483h660v-135h-813v471l-150 -141v143l150 139v785h153v-637l265 252v-142z" />
    <glyph glyph-name="lslash" unicode="&#x142;" horiz-adv-x="407" 
d="M274 729v-729h-141v539l-131 -177v168l131 177v690h141v-502l132 176v-168z" />
    <glyph glyph-name="Nacute" unicode="&#x143;" horiz-adv-x="1605" 
d="M1442 1397v-1397h-131l-998 1151v-1151h-149v1397h131l997 -1151v1151h150zM1087 1812l-274 -321h-90l180 321h184z" />
    <glyph glyph-name="nacute" unicode="&#x144;" horiz-adv-x="1007" 
d="M133 920h141v-140q119 158 289 158q154 0 242 -104.5t88 -284.5v-549h-141v537q0 126 -53.5 201t-168.5 75q-25 0 -51.5 -5.5t-63 -20.5t-74 -50t-67.5 -86v-651h-141v920zM768 1405l-274 -322h-91l181 322h184z" />
    <glyph glyph-name="Ncommaaccent" unicode="&#x145;" horiz-adv-x="1605" 
d="M1442 1397v-1397h-131l-998 1151v-1151h-149v1397h131l997 -1151v1151h150zM631 -436l6 98q54 -4 84 -4q166 0 166 76q0 35 -36 52.5t-82.5 17t-90.5 -0.5l18 99q23 2 68 2q39 0 77 -5t86.5 -20t78.5 -49.5t30 -85.5q0 -86 -82 -137t-225 -51q-62 0 -98 8z" />
    <glyph glyph-name="ncommaaccent" unicode="&#x146;" horiz-adv-x="1007" 
d="M133 920h141v-140q119 158 289 158q154 0 242 -104.5t88 -284.5v-549h-141v537q0 126 -53.5 201t-168.5 75q-25 0 -51.5 -5.5t-63 -20.5t-74 -50t-67.5 -86v-651h-141v920zM375 -371l6 88q33 -4 61 -4q125 0 125 70q0 23 -12.5 37.5t-36.5 20t-38.5 6.5t-37.5 1l25 80
q16 2 29 2q74 0 129 -34t55 -105q0 -32 -10.5 -60t-35 -54t-71 -41t-110.5 -15q-51 0 -78 8z" />
    <glyph glyph-name="Ncaron" unicode="&#x147;" horiz-adv-x="1605" 
d="M1442 1397v-1397h-131l-998 1151v-1151h-149v1397h131l997 -1151v1151h150zM723 1491l-205 321h96l189 -200l188 200h94l-204 -321h-158z" />
    <glyph glyph-name="ncaron" unicode="&#x148;" horiz-adv-x="1007" 
d="M133 920h141v-140q119 158 289 158q154 0 242 -104.5t88 -284.5v-549h-141v537q0 126 -53.5 201t-168.5 75q-25 0 -51.5 -5.5t-63 -20.5t-74 -50t-67.5 -86v-651h-141v920zM424 1083l-205 322h96l189 -201l188 201h94l-204 -322h-158z" />
    <glyph glyph-name="napostrophe" unicode="&#x149;" horiz-adv-x="1142" 
d="M268 920h142v-140q119 158 288 158q154 0 242 -104.5t88 -284.5v-549h-141v537q0 126 -53 201t-168 75q-25 0 -51.5 -5.5t-63 -20.5t-74 -50t-67.5 -86v-651h-142v920zM63 965v32q83 83 72 185q-90 29 -90 114q0 53 31.5 86t70.5 33q56 0 87.5 -47t31.5 -119
q0 -32 -7.5 -67t-27 -78.5t-63 -81t-105.5 -57.5z" />
    <glyph glyph-name="Eng" unicode="&#x14a;" horiz-adv-x="1456" 
d="M1159 367v438q0 235 -107.5 349t-289.5 114q-154 0 -270.5 -75.5t-174.5 -197.5v-995h-153v1397h153v-201q25 36 63 71t95 70t137.5 56.5t171.5 21.5q78 0 149 -16t142 -57t122.5 -104.5t83.5 -166.5t32 -235v-474q0 -176 -86 -278t-244 -102q-65 0 -96 6l-25 151
q41 -8 80 -8q117 0 167 54.5t50 181.5z" />
    <glyph glyph-name="eng" unicode="&#x14b;" horiz-adv-x="1007" 
d="M752 -37v574q0 126 -53.5 201t-168.5 75q-25 0 -51.5 -5.5t-63 -20.5t-74 -50t-67.5 -86v-651h-141v920h141v-140q119 158 289 158q154 0 242 -104.5t88 -284.5v-596q0 -125 -17 -202t-57 -126q-60 -73 -153 -96l-82 109q46 9 77.5 29.5t49 46t27 68t12 81.5t2.5 100z
" />
    <glyph glyph-name="Omacron" unicode="&#x14c;" horiz-adv-x="1685" 
d="M834 -18q-152 0 -288 54.5t-235 148.5t-157 227.5t-58 285.5q0 139 51.5 267.5t144.5 229t236.5 160.5t313.5 60q166 0 308 -58.5t237 -157t148.5 -228.5t53.5 -273q0 -205 -101 -369.5t-273.5 -255.5t-380.5 -91zM831 127q166 0 301.5 73t214 205t78.5 297
q0 105 -40 205.5t-112 182t-184.5 131t-246.5 49.5q-130 0 -241 -47.5t-185 -127t-115 -183t-41 -216.5q0 -100 30.5 -189.5t84.5 -158t125.5 -119t156.5 -76.5t174 -26zM1149 1716v-129h-612v129h612z" />
    <glyph glyph-name="omacron" unicode="&#x14d;" horiz-adv-x="1130" 
d="M563 938q97 0 186 -37.5t153 -101.5t102 -152.5t38 -185.5t-38 -186t-102 -153t-153 -102t-186 -38t-185.5 38t-152.5 102t-101.5 153t-37.5 186q0 198 139.5 337.5t337.5 139.5zM565 813q-143 0 -238.5 -102t-95.5 -250t95.5 -251.5t238.5 -103.5t237.5 103.5
t94.5 251.5t-94.5 250t-237.5 102zM870 1309v-129h-612v129h612z" />
    <glyph glyph-name="Obreve" unicode="&#x14e;" horiz-adv-x="1685" 
d="M834 -18q-152 0 -288 54.5t-235 148.5t-157 227.5t-58 285.5q0 139 51.5 267.5t144.5 229t236.5 160.5t313.5 60q166 0 308 -58.5t237 -157t148.5 -228.5t53.5 -273q0 -205 -101 -369.5t-273.5 -255.5t-380.5 -91zM831 127q166 0 301.5 73t214 205t78.5 297
q0 105 -40 205.5t-112 182t-184.5 131t-246.5 49.5q-130 0 -241 -47.5t-185 -127t-115 -183t-41 -216.5q0 -100 30.5 -189.5t84.5 -158t125.5 -119t156.5 -76.5t174 -26zM559 1741h109q25 -63 66 -99t112 -36t108 35.5t64 99.5h108q-15 -51 -35.5 -91.5t-53 -78.5t-82 -59
t-111.5 -21q-114 0 -188 74.5t-97 175.5z" />
    <glyph glyph-name="obreve" unicode="&#x14f;" horiz-adv-x="1130" 
d="M563 938q97 0 186 -37.5t153 -101.5t102 -152.5t38 -185.5t-38 -186t-102 -153t-153 -102t-186 -38t-185.5 38t-152.5 102t-101.5 153t-37.5 186q0 198 139.5 337.5t337.5 139.5zM565 813q-143 0 -238.5 -102t-95.5 -250t95.5 -251.5t238.5 -103.5t237.5 103.5
t94.5 251.5t-94.5 250t-237.5 102zM281 1333h108q25 -63 66 -99t112 -36t108 35.5t64 99.5h109q-75 -250 -283 -250q-114 0 -187.5 74.5t-96.5 175.5z" />
    <glyph glyph-name="Ohungarumlaut" unicode="&#x150;" horiz-adv-x="1685" 
d="M834 -18q-152 0 -288 54.5t-235 148.5t-157 227.5t-58 285.5q0 139 51.5 267.5t144.5 229t236.5 160.5t313.5 60q166 0 308 -58.5t237 -157t148.5 -228.5t53.5 -273q0 -205 -101 -369.5t-273.5 -255.5t-380.5 -91zM831 127q166 0 301.5 73t214 205t78.5 297
q0 105 -40 205.5t-112 182t-184.5 131t-246.5 49.5q-130 0 -241 -47.5t-185 -127t-115 -183t-41 -216.5q0 -100 30.5 -189.5t84.5 -158t125.5 -119t156.5 -76.5t174 -26zM1280 1812l-268 -321h-90l174 321h184zM969 1812l-269 -321h-90l174 321h185z" />
    <glyph glyph-name="ohungarumlaut" unicode="&#x151;" horiz-adv-x="1130" 
d="M563 938q97 0 186 -37.5t153 -101.5t102 -152.5t38 -185.5t-38 -186t-102 -153t-153 -102t-186 -38t-185.5 38t-152.5 102t-101.5 153t-37.5 186q0 198 139.5 337.5t337.5 139.5zM565 813q-143 0 -238.5 -102t-95.5 -250t95.5 -251.5t238.5 -103.5t237.5 103.5
t94.5 251.5t-94.5 250t-237.5 102zM981 1405l-268 -322h-90l174 322h184zM670 1405l-269 -322h-90l174 322h185z" />
    <glyph glyph-name="OE" unicode="&#x152;" horiz-adv-x="1857" 
d="M1774 1397v-135h-617v-490h598v-135h-598v-502h635v-135h-932q-148 0 -274.5 39.5t-215.5 107t-151.5 157.5t-92.5 190.5t-30 205.5q0 106 30 206t92.5 189.5t151.5 156.5t215.5 106t274.5 39h914zM1004 135v1129h-119q-145 0 -263.5 -44t-196 -120.5t-119.5 -179.5
t-42 -222t42 -221t119.5 -178.5t196 -120t263.5 -43.5h119z" />
    <glyph glyph-name="oe" unicode="&#x153;" horiz-adv-x="1759" 
d="M1688 483v-32h-664q0 -146 88 -244t240 -98q169 0 321 127v-144q-147 -110 -338 -110q-135 0 -234.5 59.5t-146.5 140.5q-74 -90 -168.5 -145t-228.5 -55q-125 0 -231.5 57t-173 167.5t-66.5 252.5q0 138 66.5 248.5t176.5 170.5t240 60q239 0 383 -193q56 96 148 144.5
t196 48.5q171 0 281.5 -127.5t110.5 -327.5zM1030 553h512q-14 133 -81 196.5t-161 63.5q-103 0 -177 -71t-93 -189zM559 813q-143 0 -235.5 -102t-92.5 -250q0 -149 92.5 -252t235.5 -103q142 0 234 103t92 252t-91.5 250.5t-234.5 101.5z" />
    <glyph glyph-name="Racute" unicode="&#x154;" horiz-adv-x="1212" 
d="M164 1397h356q88 0 160 -16t121 -44t85 -64t56 -79.5t29.5 -85.5t9.5 -86q0 -133 -69.5 -217t-180.5 -125q70 -46 134 -131.5t208 -312.5q62 -99 160 -236h-184l-134 211q-79 127 -180 258q-71 91 -140 130.5t-177 39.5h-101v-639h-153v1397zM498 1262h-181v-488h181
q151 0 235 63.5t84 182.5q0 112 -81.5 177t-237.5 65zM768 1812l-274 -321h-91l181 321h184z" />
    <glyph glyph-name="racute" unicode="&#x155;" horiz-adv-x="743" 
d="M133 920h141v-203q75 117 154 170q76 51 139 51q87 0 219 -109l-75 -122q-99 86 -179 86q-62 0 -127.5 -50.5t-97.5 -124.5q-33 -74 -33 -221v-397h-141v920zM719 1405l-275 -322h-90l181 322h184z" />
    <glyph glyph-name="Rcommaaccent" unicode="&#x156;" horiz-adv-x="1212" 
d="M164 1397h356q88 0 160 -16t121 -44t85 -64t56 -79.5t29.5 -85.5t9.5 -86q0 -133 -69.5 -217t-180.5 -125q70 -46 134 -131.5t208 -312.5q62 -99 160 -236h-184l-134 211q-79 127 -180 258q-71 91 -140 130.5t-177 39.5h-101v-639h-153v1397zM498 1262h-181v-488h181
q151 0 235 63.5t84 182.5q0 112 -81.5 177t-237.5 65zM438 -436l6 98q54 -4 84 -4q166 0 166 76q0 35 -36 52.5t-82.5 17t-90.5 -0.5l19 99q23 2 67 2q39 0 77 -5t87 -20t79 -49.5t30 -85.5q0 -86 -82 -137t-225 -51q-63 0 -99 8z" />
    <glyph glyph-name="rcommaaccent" unicode="&#x157;" horiz-adv-x="743" 
d="M133 920h141v-203q75 117 154 170q76 51 139 51q87 0 219 -109l-75 -122q-99 86 -179 86q-62 0 -127.5 -50.5t-97.5 -124.5q-33 -74 -33 -221v-397h-141v920zM129 -371l6 88q33 -4 62 -4q125 0 125 70q0 23 -12.5 37.5t-36.5 20t-38.5 6.5t-37.5 1l24 80q16 2 29 2
q74 0 129 -34t55 -105q0 -32 -10.5 -60t-35 -54t-71 -41t-110.5 -15q-51 0 -78 8z" />
    <glyph glyph-name="Rcaron" unicode="&#x158;" horiz-adv-x="1212" 
d="M164 1397h356q88 0 160 -16t121 -44t85 -64t56 -79.5t29.5 -85.5t9.5 -86q0 -133 -69.5 -217t-180.5 -125q70 -46 134 -131.5t208 -312.5q62 -99 160 -236h-184l-134 211q-79 127 -180 258q-71 91 -140 130.5t-177 39.5h-101v-639h-153v1397zM498 1262h-181v-488h181
q151 0 235 63.5t84 182.5q0 112 -81.5 177t-237.5 65zM455 1491l-205 321h96l189 -200l188 200h94l-205 -321h-157z" />
    <glyph glyph-name="rcaron" unicode="&#x159;" horiz-adv-x="743" 
d="M133 920h141v-203q75 117 154 170q76 51 139 51q87 0 219 -109l-75 -122q-99 86 -179 86q-62 0 -127.5 -50.5t-97.5 -124.5q-33 -74 -33 -221v-397h-141v920zM354 1083l-204 322h96l188 -201l189 201h94l-205 -322h-158z" />
    <glyph glyph-name="Sacute" unicode="&#x15a;" horiz-adv-x="937" 
d="M811 1323v-174q-170 127 -317 127q-63 0 -112 -17.5t-76 -43t-44.5 -57t-23 -55t-5.5 -42.5q0 -41 17 -77.5t39.5 -62t63.5 -53.5t69 -43t76 -39q88 -44 144 -76.5t103 -70t72 -76.5t38 -87t13 -111q0 -95 -37.5 -170.5t-98 -120.5t-130.5 -68.5t-141 -23.5
q-185 0 -367 127v188q71 -71 164.5 -123.5t198.5 -52.5q70 0 123 24t81.5 61.5t42 75t13.5 72.5q0 38 -9.5 67.5t-39.5 68t-96 81t-169 91.5q-173 82 -247 172t-74 210q0 162 118.5 266.5t295.5 104.5q162 0 315 -92zM754 1812l-275 -321h-90l180 321h185z" />
    <glyph glyph-name="sacute" unicode="&#x15b;" horiz-adv-x="768" 
d="M653 860v-141q-76 47 -136.5 70.5t-123.5 23.5q-68 0 -111.5 -35t-43.5 -84q0 -50 47 -85t210 -121q5 -3 8 -4.5l8 -4l9 -4.5q29 -16 48.5 -29.5t52 -43t50 -71t17.5 -91.5q0 -38 -16 -79.5t-49 -83t-95 -68.5t-143 -27q-137 0 -295 84v145q173 -105 297 -105
q59 0 107.5 34t48.5 89q0 60 -48.5 99t-156.5 90q-43 20 -69.5 34t-63.5 40t-57.5 51.5t-36 64t-15.5 82.5t18 86.5t52.5 79.5t93 59.5t131.5 22.5q126 0 262 -78zM690 1405l-274 -322h-90l180 322h184z" />
    <glyph glyph-name="Scircumflex" unicode="&#x15c;" horiz-adv-x="937" 
d="M811 1323v-174q-170 127 -317 127q-63 0 -112 -17.5t-76 -43t-44.5 -57t-23 -55t-5.5 -42.5q0 -41 17 -77.5t39.5 -62t63.5 -53.5t69 -43t76 -39q88 -44 144 -76.5t103 -70t72 -76.5t38 -87t13 -111q0 -95 -37.5 -170.5t-98 -120.5t-130.5 -68.5t-141 -23.5
q-185 0 -367 127v188q71 -71 164.5 -123.5t198.5 -52.5q70 0 123 24t81.5 61.5t42 75t13.5 72.5q0 38 -9.5 67.5t-39.5 68t-96 81t-169 91.5q-173 82 -247 172t-74 210q0 162 118.5 266.5t295.5 104.5q162 0 315 -92zM567 1812l205 -321h-96l-189 201l-188 -201h-94l205 321
h157z" />
    <glyph glyph-name="scircumflex" unicode="&#x15d;" horiz-adv-x="768" 
d="M653 860v-141q-76 47 -136.5 70.5t-123.5 23.5q-68 0 -111.5 -35t-43.5 -84q0 -50 47 -85t210 -121q5 -3 8 -4.5l8 -4l9 -4.5q29 -16 48.5 -29.5t52 -43t50 -71t17.5 -91.5q0 -38 -16 -79.5t-49 -83t-95 -68.5t-143 -27q-137 0 -295 84v145q173 -105 297 -105
q59 0 107.5 34t48.5 89q0 60 -48.5 99t-156.5 90q-43 20 -69.5 34t-63.5 40t-57.5 51.5t-36 64t-15.5 82.5t18 86.5t52.5 79.5t93 59.5t131.5 22.5q126 0 262 -78zM463 1405l205 -322h-97l-188 201l-188 -201h-95l205 322h158z" />
    <glyph glyph-name="uni015E" unicode="&#x15e;" horiz-adv-x="937" 
d="M811 1323v-174q-170 127 -317 127q-63 0 -112 -17.5t-76 -43t-44.5 -57t-23 -55t-5.5 -42.5q0 -41 17 -77.5t39.5 -62t63.5 -53.5t69 -43t76 -39q88 -44 144 -76.5t103 -70t72 -76.5t38 -87t13 -111q0 -86 -31.5 -157t-83.5 -116.5t-113.5 -72t-127.5 -33.5l-10 -37
q90 -12 129 -57t39 -99q0 -81 -84.5 -137.5t-220.5 -56.5q-75 0 -138 8l6 104q47 -6 101 -6q182 0 182 78q0 25 -16.5 41t-47.5 22.5t-55.5 8.5t-58.5 2l43 131q-144 20 -287 121v188q71 -71 164.5 -123.5t198.5 -52.5q70 0 123 24t81.5 61.5t42 75t13.5 72.5
q0 38 -9.5 67.5t-39.5 68t-96 81t-169 91.5q-173 82 -247 172t-74 210q0 162 118.5 266.5t295.5 104.5q162 0 315 -92z" />
    <glyph glyph-name="uni015F" unicode="&#x15f;" horiz-adv-x="768" 
d="M653 860v-141q-76 47 -136.5 70.5t-123.5 23.5q-68 0 -111.5 -35t-43.5 -84q0 -50 47 -85t210 -121q5 -3 8 -4.5l8 -4l9 -4.5q29 -16 48.5 -29.5t52 -43t50 -71t17.5 -91.5q0 -28 -8.5 -59t-29 -65.5t-50.5 -62t-78.5 -47t-107.5 -22.5l-21 -58q68 -3 112 -35.5t44 -99.5
q0 -206 -377 -182l8 98q219 -3 219 80q0 66 -159 66l59 137q-88 12 -209 76v145q173 -105 297 -105q59 0 107.5 34t48.5 89q0 60 -48.5 99t-156.5 90q-43 20 -69.5 34t-63.5 40t-57.5 51.5t-36 64t-15.5 82.5t18 86.5t52.5 79.5t93 59.5t131.5 22.5q126 0 262 -78z" />
    <glyph glyph-name="Scaron" unicode="&#x160;" horiz-adv-x="937" 
d="M811 1323v-174q-170 127 -317 127q-63 0 -112 -17.5t-76 -43t-44.5 -57t-23 -55t-5.5 -42.5q0 -41 17 -77.5t39.5 -62t63.5 -53.5t69 -43t76 -39q88 -44 144 -76.5t103 -70t72 -76.5t38 -87t13 -111q0 -95 -37.5 -170.5t-98 -120.5t-130.5 -68.5t-141 -23.5
q-185 0 -367 127v188q71 -71 164.5 -123.5t198.5 -52.5q70 0 123 24t81.5 61.5t42 75t13.5 72.5q0 38 -9.5 67.5t-39.5 68t-96 81t-169 91.5q-173 82 -247 172t-74 210q0 162 118.5 266.5t295.5 104.5q162 0 315 -92zM391 1491l-205 321h97l188 -200l188 200h95l-205 -321
h-158z" />
    <glyph glyph-name="scaron" unicode="&#x161;" horiz-adv-x="768" 
d="M653 860v-141q-76 47 -136.5 70.5t-123.5 23.5q-68 0 -111.5 -35t-43.5 -84q0 -50 47 -85t210 -121q5 -3 8 -4.5l8 -4l9 -4.5q29 -16 48.5 -29.5t52 -43t50 -71t17.5 -91.5q0 -38 -16 -79.5t-49 -83t-95 -68.5t-143 -27q-137 0 -295 84v145q173 -105 297 -105
q59 0 107.5 34t48.5 89q0 60 -48.5 99t-156.5 90q-43 20 -69.5 34t-63.5 40t-57.5 51.5t-36 64t-15.5 82.5t18 86.5t52.5 79.5t93 59.5t131.5 22.5q126 0 262 -78zM305 1083l-205 322h97l188 -201l188 201h95l-205 -322h-158z" />
    <glyph glyph-name="uni021A" unicode="&#x162;" horiz-adv-x="1216" 
d="M1188 1397v-135h-504v-1262h-154v1262h-503v135h1161zM387 -436l6 98q54 -4 84 -4q166 0 166 76q0 35 -36 52.5t-82.5 17t-90.5 -0.5l19 99q23 2 67 2q39 0 77 -5t87 -20t79 -49.5t30 -85.5q0 -86 -82.5 -137t-225.5 -51q-62 0 -98 8z" />
    <glyph glyph-name="uni021A" unicode="&#x21a;" horiz-adv-x="1216" 
d="M1188 1397v-135h-504v-1262h-154v1262h-503v135h1161zM387 -436l6 98q54 -4 84 -4q166 0 166 76q0 35 -36 52.5t-82.5 17t-90.5 -0.5l19 99q23 2 67 2q39 0 77 -5t87 -20t79 -49.5t30 -85.5q0 -86 -82.5 -137t-225.5 -51q-62 0 -98 8z" />
    <glyph glyph-name="uni021B" unicode="&#x163;" horiz-adv-x="641" 
d="M20 795v22l299 318v-215h277v-125h-277v-482q0 -42 2 -67.5t9.5 -53.5t22 -43.5t40.5 -25.5t64 -10q34 0 67 8t53 16.5t66 30.5v-133q-115 -53 -215 -53q-129 0 -189.5 76.5t-60.5 197.5v539h-158zM248 -371l6 88q33 -4 61 -4q125 0 125 70q0 23 -12.5 37.5t-36.5 20
t-38.5 6.5t-37.5 1l25 80q16 2 29 2q74 0 129 -34t55 -105q0 -32 -10.5 -60t-35 -54t-71 -41t-110.5 -15q-51 0 -78 8z" />
    <glyph glyph-name="uni021B" unicode="&#x21b;" horiz-adv-x="641" 
d="M20 795v22l299 318v-215h277v-125h-277v-482q0 -42 2 -67.5t9.5 -53.5t22 -43.5t40.5 -25.5t64 -10q34 0 67 8t53 16.5t66 30.5v-133q-115 -53 -215 -53q-129 0 -189.5 76.5t-60.5 197.5v539h-158zM248 -371l6 88q33 -4 61 -4q125 0 125 70q0 23 -12.5 37.5t-36.5 20
t-38.5 6.5t-37.5 1l25 80q16 2 29 2q74 0 129 -34t55 -105q0 -32 -10.5 -60t-35 -54t-71 -41t-110.5 -15q-51 0 -78 8z" />
    <glyph glyph-name="Tcaron" unicode="&#x164;" horiz-adv-x="1216" 
d="M1188 1397v-135h-504v-1262h-154v1262h-503v135h1161zM528 1491l-204 321h96l188 -200l189 200h94l-205 -321h-158z" />
    <glyph glyph-name="tcaron" unicode="&#x165;" horiz-adv-x="776" 
d="M20 795v22l299 318v-215h277v-125h-277v-482q0 -42 2 -67.5t9.5 -53.5t22 -43.5t40.5 -25.5t64 -10q34 0 67 8t53 16.5t66 30.5v-133q-115 -53 -215 -53q-129 0 -189.5 76.5t-60.5 197.5v539h-158zM657 965v32q83 83 72 185q-90 29 -90 114q0 53 31.5 86t70.5 33
q56 0 87.5 -47t31.5 -119q0 -32 -7.5 -67t-27 -78.5t-63 -81t-105.5 -57.5z" />
    <glyph glyph-name="Tbar" unicode="&#x166;" horiz-adv-x="1216" 
d="M1188 1397v-135h-504v-527h426v-108h-426v-627h-154v627h-426v108h426v527h-503v135h1161z" />
    <glyph glyph-name="tbar" unicode="&#x167;" horiz-adv-x="641" 
d="M20 795v22l299 318v-215h277v-125h-277v-201h293v-96h-293v-185q0 -42 2 -67.5t9.5 -53.5t22 -43.5t40.5 -25.5t64 -10q34 0 67 8t53 16.5t66 30.5v-133q-115 -53 -215 -53q-129 0 -189.5 76.5t-60.5 197.5v242h-207v96h207v201h-158z" />
    <glyph glyph-name="Utilde" unicode="&#x168;" horiz-adv-x="1429" 
d="M1307 1397v-750q0 -147 -17 -233t-61 -162q-25 -45 -64.5 -87t-100.5 -86t-151.5 -70.5t-195.5 -26.5q-36 0 -74.5 3.5t-99.5 18t-115 39t-112 72t-99 110.5q-55 84 -74.5 173.5t-19.5 248.5v750h153v-758q0 -153 25.5 -238.5t87.5 -150.5q61 -64 147 -96.5t181 -32.5
q148 0 247 66t144 159q45 92 45 293v758h154zM469 1542h-74q3 24 4 32.5t7 36.5t12.5 42.5t19.5 37.5t29 35t40.5 21.5t53.5 9.5q66 0 182 -49q93 -39 136 -39q19 0 33 7t21.5 14.5t13.5 24t7 23t4 23.5h74q0 -106 -51 -162.5t-117 -56.5q-55 0 -147 37q-133 51 -168 51
q-66 0 -80 -88z" />
    <glyph glyph-name="utilde" unicode="&#x169;" horiz-adv-x="1007" 
d="M874 0h-141v139q-119 -157 -289 -157q-154 0 -241.5 104.5t-87.5 284.5v549h141v-537q0 -126 53 -201.5t168 -75.5q25 0 51.5 5.5t63 20.5t74 50t67.5 86v652h141v-920zM258 1135h-74q3 24 4 32.5t7 36.5t12.5 42.5t19.5 37.5t29 35t40.5 21.5t53.5 9.5q64 0 182 -50
q90 -38 136 -38q23 0 39 8.5t24 26t11 27.5t6 30h73q0 -106 -51 -162.5t-117 -56.5q-57 0 -147 36q-3 1 -30 11.5t-39 15t-34 12t-37.5 10.5t-27.5 3q-66 0 -80 -88z" />
    <glyph glyph-name="Umacron" unicode="&#x16a;" horiz-adv-x="1429" 
d="M1307 1397v-750q0 -147 -17 -233t-61 -162q-25 -45 -64.5 -87t-100.5 -86t-151.5 -70.5t-195.5 -26.5q-36 0 -74.5 3.5t-99.5 18t-115 39t-112 72t-99 110.5q-55 84 -74.5 173.5t-19.5 248.5v750h153v-758q0 -153 25.5 -238.5t87.5 -150.5q61 -64 147 -96.5t181 -32.5
q148 0 247 66t144 159q45 92 45 293v758h154zM1020 1716v-129h-612v129h612z" />
    <glyph glyph-name="umacron" unicode="&#x16b;" horiz-adv-x="1007" 
d="M874 0h-141v139q-119 -157 -289 -157q-154 0 -241.5 104.5t-87.5 284.5v549h141v-537q0 -126 53 -201.5t168 -75.5q25 0 51.5 5.5t63 20.5t74 50t67.5 86v652h141v-920zM809 1309v-129h-612v129h612z" />
    <glyph glyph-name="Ubreve" unicode="&#x16c;" horiz-adv-x="1429" 
d="M1307 1397v-750q0 -147 -17 -233t-61 -162q-25 -45 -64.5 -87t-100.5 -86t-151.5 -70.5t-195.5 -26.5q-36 0 -74.5 3.5t-99.5 18t-115 39t-112 72t-99 110.5q-55 84 -74.5 173.5t-19.5 248.5v750h153v-758q0 -153 25.5 -238.5t87.5 -150.5q61 -64 147 -96.5t181 -32.5
q148 0 247 66t144 159q45 92 45 293v758h154zM430 1741h109q25 -63 66 -99t112 -36t108 35.5t64 99.5h108q-15 -51 -35.5 -91.5t-53 -78.5t-82 -59t-111.5 -21q-114 0 -188 74.5t-97 175.5z" />
    <glyph glyph-name="ubreve" unicode="&#x16d;" horiz-adv-x="1007" 
d="M874 0h-141v139q-119 -157 -289 -157q-154 0 -241.5 104.5t-87.5 284.5v549h141v-537q0 -126 53 -201.5t168 -75.5q25 0 51.5 5.5t63 20.5t74 50t67.5 86v652h141v-920zM219 1333h109q25 -63 66 -99t112 -36t108 35.5t64 99.5h108q-15 -51 -35.5 -91.5t-53 -78.5t-82 -59
t-111.5 -21q-114 0 -188 74.5t-97 175.5z" />
    <glyph glyph-name="Uring" unicode="&#x16e;" horiz-adv-x="1429" 
d="M1307 1397v-750q0 -147 -17 -233t-61 -162q-25 -45 -64.5 -87t-100.5 -86t-151.5 -70.5t-195.5 -26.5q-36 0 -74.5 3.5t-99.5 18t-115 39t-112 72t-99 110.5q-55 84 -74.5 173.5t-19.5 248.5v750h153v-758q0 -153 25.5 -238.5t87.5 -150.5q61 -64 147 -96.5t181 -32.5
q148 0 247 66t144 159q45 92 45 293v758h154zM713 1483q-80 0 -135.5 55.5t-55.5 134.5q0 80 56 136.5t135 56.5t135.5 -56.5t56.5 -136.5q0 -79 -56 -134.5t-136 -55.5zM713 1571q43 0 73.5 29.5t30.5 72.5t-30.5 74t-73.5 31t-73 -31t-30 -74t30 -72.5t73 -29.5z" />
    <glyph glyph-name="uring" unicode="&#x16f;" horiz-adv-x="1007" 
d="M874 0h-141v139q-119 -157 -289 -157q-154 0 -241.5 104.5t-87.5 284.5v549h141v-537q0 -126 53 -201.5t168 -75.5q25 0 51.5 5.5t63 20.5t74 50t67.5 86v652h141v-920zM502 1075q-80 0 -135.5 55.5t-55.5 135.5t56 136t135 56q80 0 136 -56t56 -136q0 -79 -56 -135
t-136 -56zM502 1163q43 0 73.5 30t30.5 73t-30.5 73.5t-73.5 30.5t-73 -30.5t-30 -73.5t30 -73t73 -30z" />
    <glyph glyph-name="Uhungarumlaut" unicode="&#x170;" horiz-adv-x="1429" 
d="M1307 1397v-750q0 -147 -17 -233t-61 -162q-25 -45 -64.5 -87t-100.5 -86t-151.5 -70.5t-195.5 -26.5q-36 0 -74.5 3.5t-99.5 18t-115 39t-112 72t-99 110.5q-55 84 -74.5 173.5t-19.5 248.5v750h153v-758q0 -153 25.5 -238.5t87.5 -150.5q61 -64 147 -96.5t181 -32.5
q148 0 247 66t144 159q45 92 45 293v758h154zM1171 1812l-268 -321h-90l174 321h184zM860 1812l-268 -321h-90l174 321h184z" />
    <glyph glyph-name="uhungarumlaut" unicode="&#x171;" horiz-adv-x="1007" 
d="M874 0h-141v139q-119 -157 -289 -157q-154 0 -241.5 104.5t-87.5 284.5v549h141v-537q0 -126 53 -201.5t168 -75.5q25 0 51.5 5.5t63 20.5t74 50t67.5 86v652h141v-920zM920 1405l-269 -322h-90l174 322h185zM608 1405l-268 -322h-90l174 322h184z" />
    <glyph glyph-name="Uogonek" unicode="&#x172;" horiz-adv-x="1429" 
d="M1307 1397v-750q0 -147 -17 -233t-61 -162q-23 -42 -59.5 -82t-91.5 -81.5t-135.5 -70t-174.5 -34.5q-66 -85 -66 -138q0 -47 39.5 -79.5t92.5 -32.5q29 0 73 12v-119q-64 -22 -123 -22q-100 0 -163.5 54t-63.5 144q0 99 88 183q-293 30 -428 239q-55 84 -74.5 173.5
t-19.5 248.5v750h153v-758q0 -153 25.5 -238.5t87.5 -150.5q61 -64 147 -96.5t181 -32.5q148 0 247 66t144 159q45 92 45 293v758h154z" />
    <glyph glyph-name="uogonek" unicode="&#x173;" horiz-adv-x="1007" 
d="M956 -229v-107q-82 -20 -120 -20q-30 0 -61.5 9.5t-62 29.5t-50 57t-19.5 86q0 99 90 174v139q-119 -157 -289 -157q-154 0 -241.5 104.5t-87.5 284.5v549h141v-537q0 -126 53 -201.5t168 -75.5q25 0 51.5 5.5t63 20.5t74 50t67.5 86v652h141v-920h-32
q-37 -42 -53.5 -71.5t-16.5 -63.5q0 -51 37.5 -79t75.5 -28q12 0 24.5 2t27 6t19.5 5z" />
    <glyph glyph-name="Wcircumflex" unicode="&#x174;" horiz-adv-x="2134" 
d="M2128 1397l-561 -1411h-37l-463 1161l-463 -1161h-39l-559 1411h154l426 -1061l426 1061h112l426 -1061l424 1061h154zM1145 1812l205 -321h-97l-188 201l-188 -201h-95l205 321h158z" />
    <glyph glyph-name="wcircumflex" unicode="&#x175;" horiz-adv-x="1470" 
d="M1466 920l-401 -938h-53l-277 694l-276 -694h-53l-402 938h146l278 -654l262 654h92l258 -654l279 654h147zM813 1405l205 -322h-96l-189 201l-188 -201h-94l204 322h158z" />
    <glyph glyph-name="Ycircumflex" unicode="&#x176;" horiz-adv-x="1226" 
d="M1221 1397l-533 -652v-745h-153v745l-529 652h187l417 -516l424 516h187zM692 1812l205 -321h-96l-189 201l-188 -201h-94l205 321h157z" />
    <glyph glyph-name="ycircumflex" unicode="&#x177;" horiz-adv-x="884" 
d="M881 920l-670 -1391h-152l318 659l-373 732h154l293 -580l276 580h154zM520 1405l205 -322h-96l-189 201l-188 -201h-94l204 322h158z" />
    <glyph glyph-name="Ydieresis" unicode="&#x178;" horiz-adv-x="1226" 
d="M1221 1397l-533 -652v-745h-153v745l-529 652h187l417 -516l424 516h187zM424 1743q38 0 65 -27t27 -65t-27 -65t-65 -27t-65 27t-27 65t27 65t65 27zM803 1743q38 0 65 -27t27 -65t-27 -65t-65 -27t-65 27t-27 65t27 65t65 27z" />
    <glyph glyph-name="Zacute" unicode="&#x179;" horiz-adv-x="1323" 
d="M80 1397h1190v-19l-967 -1243h971v-135h-1247v14l970 1248h-917v135zM905 1812l-274 -321h-90l180 321h184z" />
    <glyph glyph-name="zacute" unicode="&#x17a;" horiz-adv-x="831" 
d="M49 920h760v-19l-545 -770h545v-131h-786v16l544 772h-518v132zM700 1405l-274 -322h-90l180 322h184z" />
    <glyph glyph-name="Zdotaccent" unicode="&#x17b;" horiz-adv-x="1323" 
d="M80 1397h1190v-19l-967 -1243h971v-135h-1247v14l970 1248h-917v135zM657 1747q40 0 69.5 -28.5t29.5 -69.5q0 -40 -29 -69.5t-70 -29.5t-69.5 29.5t-28.5 69.5q0 41 29 69.5t69 28.5z" />
    <glyph glyph-name="zdotaccent" unicode="&#x17c;" horiz-adv-x="831" 
d="M49 920h760v-19l-545 -770h545v-131h-786v16l544 772h-518v132zM416 1335q38 0 65 -27t27 -65t-27 -65t-65 -27t-65 27t-27 65t27 65t65 27z" />
    <glyph glyph-name="Zcaron" unicode="&#x17d;" horiz-adv-x="1323" 
d="M80 1397h1190v-19l-967 -1243h971v-135h-1247v14l970 1248h-917v135zM584 1491l-205 321h96l189 -200l188 200h94l-205 -321h-157z" />
    <glyph glyph-name="zcaron" unicode="&#x17e;" horiz-adv-x="831" 
d="M49 920h760v-19l-545 -770h545v-131h-786v16l544 772h-518v132zM338 1083l-205 322h96l189 -201l188 201h94l-204 -322h-158z" />
    <glyph glyph-name="uni018f" unicode="&#x18f;" horiz-adv-x="1685" 
d="M96 698q0 35 8 105h1311q-17 93 -63.5 175t-118.5 147.5t-175.5 102.5t-223.5 36q-232 0 -486 -138v166q259 115 494 123q166 0 308 -58.5t237 -157t148.5 -228.5t53.5 -273q0 -205 -101 -369.5t-273.5 -255.5t-380.5 -91q-152 0 -288 54.5t-235 148.5t-157 227.5
t-58 285.5zM831 127q243 0 411.5 152.5t180.5 388.5h-1163q5 -118 54 -220.5t127.5 -172t179.5 -109t210 -39.5z" />
    <glyph glyph-name="florin" unicode="&#x192;" horiz-adv-x="1130" 
d="M666 793l-181 -963q-26 -143 -88.5 -202.5t-189.5 -59.5q-78 0 -191 29l29 129q95 -23 152 -23q73 0 102.5 45.5t56.5 192.5l156 852h-180l22 114h181l34 199q14 79 32.5 131.5t50 95t80.5 62.5t118 20q84 0 201 -45l-27 -123q-96 33 -141 33q-72 0 -106 -39.5
t-54 -148.5l-35 -185h219l-24 -114h-217z" />
    <glyph glyph-name="AEacute" unicode="&#x1fc;" horiz-adv-x="1810" 
d="M1724 1397v-135h-614v-490h600v-135h-600v-502h635v-135h-789v637h-395l-387 -637h-170l850 1397h870zM956 772v520l-313 -520h313zM1542 1812l-274 -321h-90l180 321h184z" />
    <glyph glyph-name="aeacute" unicode="&#x1fd;" horiz-adv-x="1374" 
d="M1305 477h-580q-5 -91 14 -160.5t50 -108t72.5 -63t74.5 -32t63 -7.5q23 0 46 2.5t42 6.5t40 11t35.5 12.5t33 15t28.5 15t26 16t21.5 14.5t19 13.5t14.5 10.5v-145q-161 -96 -320 -96q-98 0 -179.5 40t-129.5 103q-187 -143 -340 -143q-65 0 -115.5 22t-78.5 58t-42 76
t-14 81q0 126 120 202q84 54 302 119q24 8 74 22l1 1h1q0 44 -2 71.5t-11.5 65t-26.5 59.5t-51.5 38t-82.5 16q-84 0 -150.5 -35t-140.5 -102v160q138 102 301 102q44 0 86 -8t95.5 -39t84.5 -82q2 2 13 13.5t17 17t20 18t25 20t28 18t34 17t38 13t44.5 9.5t48.5 3
q63 0 116 -18.5t88 -48t62.5 -69.5t43 -79.5t25.5 -82t13 -72.5t3 -56v-35zM735 580h424q-6 101 -60.5 167t-150.5 66q-34 0 -67.5 -13t-64.5 -39.5t-53 -73t-28 -107.5zM584 172v303l-90 -30t-76 -27.5t-68.5 -29.5t-51 -30.5t-41.5 -36t-22.5 -40t-9.5 -48.5
q0 -62 47.5 -105.5t108.5 -43.5q35 0 71 13t61 28t71 47zM971 1405l-275 -322h-90l180 322h185z" />
    <glyph glyph-name="Oslashacute" unicode="&#x1fe;" horiz-adv-x="1685" 
d="M401 113l-116 -131l-84 65l116 133q-221 221 -221 518q0 140 52 269t145.5 228.5t236 159.5t310.5 60q260 0 446 -133l117 133l82 -67l-115 -134q219 -213 219 -516q0 -150 -58 -283t-157.5 -228t-239 -150t-296.5 -55q-239 0 -437 131zM1266 1098l-764 -869
q148 -102 338 -102q164 0 298 75.5t210.5 207t76.5 292.5q0 113 -43.5 218t-115.5 178zM420 297l764 870q-141 103 -342 103q-130 0 -241 -47.5t-185 -127t-115 -183t-41 -216.5q0 -230 160 -399zM1106 1812l-275 -321h-90l181 321h184z" />
    <glyph glyph-name="oslashacute" unicode="&#x1ff;" horiz-adv-x="1130" 
d="M289 70l-115 -129l-68 61l113 127q-133 140 -133 330q0 128 60.5 237t171.5 175.5t249 66.5q161 0 277 -90l112 131l68 -57l-115 -134q133 -137 133 -325q0 -114 -43 -208t-113 -152t-153 -89.5t-168 -31.5q-149 0 -276 88zM823 690l-450 -522q1 -1 7.5 -5.5t11.5 -8.5
t15.5 -10t20.5 -11t25 -10t30.5 -8.5t36 -6t41.5 -2.5q151 0 243.5 103t92.5 252q0 138 -74 229zM305 229l453 521q-3 2 -18 11.5t-28.5 17t-35.5 16t-51 13.5t-62 5q-146 0 -239 -99.5t-93 -252.5q0 -51 16.5 -115t57.5 -117zM829 1405l-274 -322h-90l180 322h184z" />
    <glyph glyph-name="uni0218" unicode="&#x218;" horiz-adv-x="937" 
d="M811 1323v-174q-170 127 -317 127q-63 0 -112 -17.5t-76 -43t-44.5 -57t-23 -55t-5.5 -42.5q0 -41 17 -77.5t39.5 -62t63.5 -53.5t69 -43t76 -39q88 -44 144 -76.5t103 -70t72 -76.5t38 -87t13 -111q0 -95 -37.5 -170.5t-98 -120.5t-130.5 -68.5t-141 -23.5
q-185 0 -367 127v188q71 -71 164.5 -123.5t198.5 -52.5q70 0 123 24t81.5 61.5t42 75t13.5 72.5q0 38 -9.5 67.5t-39.5 68t-96 81t-169 91.5q-173 82 -247 172t-74 210q0 162 118.5 266.5t295.5 104.5q162 0 315 -92zM258 -436l6 98q54 -4 84 -4q166 0 166 76q0 35 -36 52.5
t-82.5 17t-90.5 -0.5l19 99q23 2 67 2q39 0 77 -5t87 -20t79 -49.5t30 -85.5q0 -86 -82.5 -137t-225.5 -51q-62 0 -98 8z" />
    <glyph glyph-name="uni0219" unicode="&#x219;" horiz-adv-x="768" 
d="M653 860v-141q-76 47 -136.5 70.5t-123.5 23.5q-68 0 -111.5 -35t-43.5 -84q0 -50 47 -85t210 -121q5 -3 8 -4.5l8 -4l9 -4.5q29 -16 48.5 -29.5t52 -43t50 -71t17.5 -91.5q0 -38 -16 -79.5t-49 -83t-95 -68.5t-143 -27q-137 0 -295 84v145q173 -105 297 -105
q59 0 107.5 34t48.5 89q0 60 -48.5 99t-156.5 90q-43 20 -69.5 34t-63.5 40t-57.5 51.5t-36 64t-15.5 82.5t18 86.5t52.5 79.5t93 59.5t131.5 22.5q126 0 262 -78zM207 -371l6 88q33 -4 61 -4q125 0 125 70q0 23 -12.5 37.5t-36.5 20t-38.5 6.5t-37.5 1l25 80q16 2 29 2
q74 0 129 -34t55 -105q0 -32 -10.5 -60t-35 -54t-71 -41t-110.5 -15q-51 0 -78 8z" />
    <glyph glyph-name="uni0259" unicode="&#x259;" horiz-adv-x="989" 
d="M76 477v33h682q-11 140 -88.5 221.5t-200.5 81.5q-60 0 -112 -11.5t-91.5 -32.5t-60.5 -36t-46 -35l-2.5 -2.5t-2 -1.5t-2.5 -2v144q31 21 39 26.5t45 25t65.5 27t78 15.5t105.5 8q86 0 157 -26.5t118 -70t80 -101t47.5 -118.5t15.5 -124q1 -106 -25 -198t-77 -163.5
t-133 -112.5t-187 -42q-109 0 -189.5 39t-126.5 109t-67.5 156t-21.5 191zM758 408h-537q0 -136 75.5 -219t180.5 -83q110 0 194 91.5t87 210.5z" />
    <glyph glyph-name="circumflex" unicode="&#x2c6;" horiz-adv-x="681" 
d="M420 1405l205 -322h-97l-188 201l-188 -201h-95l205 322h158z" />
    <glyph glyph-name="caron" unicode="&#x2c7;" horiz-adv-x="681" 
d="M262 1083l-205 322h97l188 -201l188 201h95l-205 -322h-158z" />
    <glyph glyph-name="uni02C9" unicode="&#x2c9;" horiz-adv-x="681" 
d="M647 1309v-129h-612v129h612z" />
    <glyph glyph-name="breve" unicode="&#x2d8;" horiz-adv-x="681" 
d="M57 1333h109q25 -63 66 -99t112 -36t108 35.5t64 99.5h109q-75 -250 -283 -250q-114 0 -188 74.5t-97 175.5z" />
    <glyph glyph-name="dotaccent" unicode="&#x2d9;" horiz-adv-x="681" 
d="M342 1335q38 0 65 -27t27 -65t-27 -65t-65 -27t-65 27t-27 65t27 65t65 27z" />
    <glyph glyph-name="ring" unicode="&#x2da;" horiz-adv-x="681" 
d="M340 1075q-79 0 -134.5 55.5t-55.5 135.5t55.5 136t134.5 56q80 0 136 -56t56 -136q0 -79 -56 -135t-136 -56zM340 1163q43 0 73.5 30t30.5 73t-30.5 73.5t-73.5 30.5t-72.5 -30.5t-29.5 -73.5t29.5 -73t72.5 -30z" />
    <glyph glyph-name="ogonek" unicode="&#x2db;" horiz-adv-x="681" 
d="M510 -229v-107q-83 -20 -121 -20q-30 0 -61.5 9.5t-62 29.5t-49.5 57t-19 86q0 113 118 194h99q-34 -40 -48 -57.5t-27 -44.5t-13 -53q0 -51 37 -79t75 -28q12 0 24.5 2t27.5 6t20 5z" />
    <glyph glyph-name="tilde" unicode="&#x2dc;" horiz-adv-x="681" 
d="M96 1135h-73q13 101 40 147q43 67 125 68q65 0 183 -50q90 -38 135 -38q23 0 39 8.5t24 26t11 27.5t6 30h73q0 -106 -50.5 -162.5t-116.5 -56.5q-58 0 -148 36q-3 1 -30 11.5t-39 15t-34 12t-37.5 10.5t-27.5 3q-66 0 -80 -88z" />
    <glyph glyph-name="hungarumlaut" unicode="&#x2dd;" horiz-adv-x="681" 
d="M801 1405l-269 -322h-90l174 322h185zM489 1405l-268 -322h-90l174 322h184z" />
    <glyph glyph-name="Delta" unicode="&#x394;" horiz-adv-x="1144" 
d="M1135 0h-1092v76l455 1358h188l449 -1358v-76zM956 129l-338 1032q-9 29 -19 70t-11 45h-4q-12 -45 -29 -113l-340 -1034h741z" />
    <glyph glyph-name="Delta" unicode="&#x2206;" horiz-adv-x="1144" 
d="M1135 0h-1092v76l455 1358h188l449 -1358v-76zM956 129l-338 1032q-9 29 -19 70t-11 45h-4q-12 -45 -29 -113l-340 -1034h741z" />
    <glyph glyph-name="Omega" unicode="&#x3a9;" horiz-adv-x="1372" 
d="M1257 0h-436v127q42 40 75 76.5t73 97.5t67 125t45.5 153.5t18.5 188.5q0 162 -47.5 287t-143 197.5t-227.5 72.5q-195 0 -311.5 -156t-116.5 -401q0 -96 17.5 -183.5t44 -152t65.5 -125t74.5 -100.5t79.5 -80v-127h-437v127h291q-295 258 -295 664q0 188 74 340
t209 239.5t307 87.5q268 0 422 -182t154 -481q0 -115 -26 -221t-70.5 -189t-94 -145.5t-106.5 -112.5h294v-127z" />
    <glyph glyph-name="Omega" unicode="&#x2126;" horiz-adv-x="1372" 
d="M1257 0h-436v127q42 40 75 76.5t73 97.5t67 125t45.5 153.5t18.5 188.5q0 162 -47.5 287t-143 197.5t-227.5 72.5q-195 0 -311.5 -156t-116.5 -401q0 -96 17.5 -183.5t44 -152t65.5 -125t74.5 -100.5t79.5 -80v-127h-437v127h291q-295 258 -295 664q0 188 74 340
t209 239.5t307 87.5q268 0 422 -182t154 -481q0 -115 -26 -221t-70.5 -189t-94 -145.5t-106.5 -112.5h294v-127z" />
    <glyph glyph-name="uni03BC" unicode="&#x3bc;" horiz-adv-x="1089" 
d="M768 920h141v-736q4 -59 41 -59q44 0 107 37v-117q-76 -34 -115 -45.5t-88 -11.5q-44 0 -65 23.5t-21 62.5v35q-93 -125 -223 -125q-58 0 -107.5 23.5t-78 51t-72.5 78.5v-608h-142v1391h142v-650q103 -164 248 -164q72 0 127 42t80.5 104.5t25.5 132.5v535z" />
    <glyph glyph-name="pi" unicode="&#x3c0;" horiz-adv-x="1204" 
d="M1155 129l33 -113q-48 -30 -135 -30q-124 0 -182 77t-58 193v639h-371v-623q0 -165 -26 -272h-168q31 124 31 279v616q-41 0 -96.5 -13t-92.5 -32l-47 117q45 24 121.5 40.5t161.5 16.5h854v-129h-201v-619q0 -163 111 -163q29 0 65 16z" />
    <glyph glyph-name="Wgrave" unicode="&#x1e80;" horiz-adv-x="2134" 
d="M2128 1397l-561 -1411h-37l-463 1161l-463 -1161h-39l-559 1411h154l426 -1061l426 1061h112l426 -1061l424 1061h154zM821 1812h185l182 -321h-90z" />
    <glyph glyph-name="wgrave" unicode="&#x1e81;" horiz-adv-x="1470" 
d="M1466 920l-401 -938h-53l-277 694l-276 -694h-53l-402 938h146l278 -654l262 654h92l258 -654l279 654h147zM469 1405h184l183 -322h-91z" />
    <glyph glyph-name="Wacute" unicode="&#x1e82;" horiz-adv-x="2134" 
d="M2128 1397l-561 -1411h-37l-463 1161l-463 -1161h-39l-559 1411h154l426 -1061l426 1061h112l426 -1061l424 1061h154zM1311 1812l-275 -321h-90l180 321h185z" />
    <glyph glyph-name="wacute" unicode="&#x1e83;" horiz-adv-x="1470" 
d="M1466 920l-401 -938h-53l-277 694l-276 -694h-53l-402 938h146l278 -654l262 654h92l258 -654l279 654h147zM999 1405l-274 -322h-90l180 322h184z" />
    <glyph glyph-name="Wdieresis" unicode="&#x1e84;" horiz-adv-x="2134" 
d="M2128 1397l-561 -1411h-37l-463 1161l-463 -1161h-39l-559 1411h154l426 -1061l426 1061h112l426 -1061l424 1061h154zM877 1743q38 0 65 -27t27 -65t-27 -65t-65 -27t-65.5 27t-27.5 65t27.5 65t65.5 27zM1255 1743q38 0 65.5 -27t27.5 -65t-27.5 -65t-65.5 -27t-65 27
t-27 65t27 65t65 27z" />
    <glyph glyph-name="wdieresis" unicode="&#x1e85;" horiz-adv-x="1470" 
d="M1466 920l-401 -938h-53l-277 694l-276 -694h-53l-402 938h146l278 -654l262 654h92l258 -654l279 654h147zM545 1335q38 0 65 -27t27 -65t-27 -65t-65 -27t-65 27t-27 65t27 65t65 27zM924 1335q38 0 65 -27t27 -65t-27 -65t-65 -27t-65.5 27t-27.5 65t27.5 65t65.5 27z
" />
    <glyph glyph-name="Ygrave" unicode="&#x1ef2;" horiz-adv-x="1226" 
d="M1221 1397l-533 -652v-745h-153v745l-529 652h187l417 -516l424 516h187zM369 1812h184l182 -321h-90z" />
    <glyph glyph-name="ygrave" unicode="&#x1ef3;" horiz-adv-x="884" 
d="M881 920l-670 -1391h-152l318 659l-373 732h154l293 -580l276 580h154zM156 1405h184l182 -322h-90z" />
    <glyph glyph-name="endash" unicode="&#x2013;" 
d="M-12 530h1048v-92h-1048v92z" />
    <glyph glyph-name="emdash" unicode="&#x2014;" horiz-adv-x="2048" 
d="M-12 530h2072v-92h-2072v92z" />
    <glyph glyph-name="quoteleft" unicode="&#x2018;" horiz-adv-x="491" 
d="M338 1415v-33q-83 -83 -72 -184q90 -29 90 -115q0 -53 -31.5 -85.5t-70.5 -32.5q-56 0 -87.5 46.5t-31.5 118.5q0 25 4 51.5t17 62.5t34 66.5t59.5 59.5t88.5 45z" />
    <glyph glyph-name="quoteright" unicode="&#x2019;" horiz-adv-x="491" 
d="M154 965v32q82 82 71 185q-90 29 -90 114q0 53 32 86t71 33q56 0 87 -47t31 -119q0 -32 -7.5 -67t-27 -78.5t-62.5 -81t-105 -57.5z" />
    <glyph glyph-name="quotesinglbase" unicode="&#x201a;" horiz-adv-x="491" 
d="M154 -248v33q82 82 71 184q-90 29 -90 115q0 53 32 86t71 33q56 0 87 -47t31 -119q0 -32 -7.5 -67t-27 -79t-62.5 -81.5t-105 -57.5z" />
    <glyph glyph-name="quotedblleft" unicode="&#x201c;" horiz-adv-x="847" 
d="M338 1415v-33q-83 -83 -72 -184q90 -29 90 -115q0 -53 -31.5 -85.5t-70.5 -32.5q-56 0 -87.5 46.5t-31.5 118.5q0 25 4 51.5t17 62.5t34 66.5t59.5 59.5t88.5 45zM694 1415v-33q-82 -82 -71 -184q90 -29 90 -115q0 -53 -31.5 -85.5t-71.5 -32.5q-56 0 -87 46.5t-31 118.5
q0 32 7.5 67t27 79t62.5 81.5t105 57.5z" />
    <glyph glyph-name="quotedblright" unicode="&#x201d;" horiz-adv-x="847" 
d="M510 965v32q83 83 72 185q-90 29 -90 114q0 53 31.5 86t70.5 33q56 0 87.5 -47t31.5 -119q0 -32 -7.5 -67t-27 -78.5t-63 -81t-105.5 -57.5zM154 965v32q82 82 71 185q-90 29 -90 114q0 53 32 86t71 33q56 0 87 -47t31 -119q0 -32 -7.5 -67t-27 -78.5t-62.5 -81
t-105 -57.5z" />
    <glyph glyph-name="quotedblbase" unicode="&#x201e;" horiz-adv-x="847" 
d="M510 -248v33q83 83 72 184q-90 29 -90 115q0 53 31.5 86t70.5 33q56 0 87.5 -47t31.5 -119q0 -25 -4 -51.5t-17 -62.5t-34 -66.5t-59.5 -59.5t-88.5 -45zM154 -248v33q82 82 71 184q-90 29 -90 115q0 53 32 86t71 33q56 0 87 -47t31 -119q0 -32 -7.5 -67t-27 -79
t-62.5 -81.5t-105 -57.5z" />
    <glyph glyph-name="dagger" unicode="&#x2020;" horiz-adv-x="1003" 
d="M467 754l-43 -8q-42 -7 -88 -14.5t-98.5 -14t-79.5 -6.5q-105 0 -105 71q0 39 31.5 60.5t67.5 21.5q27 0 161.5 -20t153.5 -21q-1 11 -7 66t-11 104t-7 64q-24 178 -24 219q0 22 4.5 45.5t25 49.5t54.5 26q28 0 46.5 -16t25.5 -40.5t9.5 -39.5t2.5 -27q0 -45 -15 -135
q-4 -29 -18 -164t-16 -152q16 2 90 13t140.5 19.5t86.5 8.5q38 0 67 -23t29 -59q0 -71 -104 -71q-27 0 -79 6.5t-98.5 14t-87.5 15t-44 7.5q15 -264 26 -416q1 -19 7 -102t7 -101.5t5.5 -83t5.5 -92t3 -79.5t2.5 -95t0.5 -92q0 -30 -2.5 -52t-10.5 -51t-28 -45t-51 -16
q-19 0 -34 7t-24.5 16.5t-16.5 26.5t-10 30.5t-5 36t-2 35v34.5q0 228 28 590q9 113 29 449z" />
    <glyph glyph-name="daggerdbl" unicode="&#x2021;" horiz-adv-x="1003" 
d="M428 -236l39 281q-29 -4 -105.5 -15.5t-130.5 -18.5t-71 -7q-45 0 -73 23t-28 53q0 35 31.5 56.5t69.5 21.5q54 0 307 -45q-27 199 -27 344q0 173 29 356q-85 -12 -139 -22q-117 -23 -174 -23q-43 0 -70 19.5t-27 56.5t30 57.5t69 20.5q15 0 80.5 -9t139.5 -19.5
t91 -12.5q-6 57 -27 209q-22 163 -22 204q0 45 20.5 74t63.5 29q28 0 46.5 -14t25.5 -35.5t9.5 -35.5t2.5 -26q0 -22 -9.5 -99.5t-25 -188t-16.5 -117.5q2 0 87 13.5t139.5 20.5t80.5 7q37 0 68.5 -16.5t31.5 -57.5q0 -38 -29 -59t-65 -21q-35 0 -158.5 19.5t-154.5 25.5
q22 -226 22 -346q0 -166 -27 -354q36 2 142 20q142 25 172 25q45 0 71.5 -20.5t26.5 -55.5q0 -38 -33 -58t-75 -20q-30 0 -68.5 4t-66.5 8.5t-83 14t-86 14.5q24 -162 46 -338q1 -7 3.5 -29t2.5 -36q0 -113 -84 -113q-34 0 -54.5 23t-25 44.5t-4.5 41.5q0 48 12 126z" />
    <glyph glyph-name="bullet" unicode="&#x2022;" horiz-adv-x="874" 
d="M436 950q104 0 178 -73t74 -177t-74 -177.5t-178 -73.5t-177 73.5t-73 177.5t73 177t177 73z" />
    <glyph glyph-name="ellipsis" unicode="&#x2026;" horiz-adv-x="2048" 
d="M342 203q45 0 78 -33t33 -78q0 -46 -32.5 -78t-78.5 -32t-78.5 32t-32.5 78t32.5 78.5t78.5 32.5zM1024 203q46 0 78.5 -32.5t32.5 -78.5t-32.5 -78t-78.5 -32t-78.5 32t-32.5 78t32.5 78.5t78.5 32.5zM1706 203q46 0 78.5 -32.5t32.5 -78.5t-32.5 -78t-78.5 -32
t-78.5 32t-32.5 78q0 45 33 78t78 33z" />
    <glyph glyph-name="perthousand" unicode="&#x2030;" horiz-adv-x="2181" 
d="M1806 621q132 0 226 -94t94 -226t-94 -225.5t-226 -93.5t-225.5 93.5t-93.5 225.5t93.5 226t225.5 94zM1806 100q83 0 142 59t59 142t-59 142t-142 59t-141.5 -59t-58.5 -142t58.5 -142t141.5 -59zM1053 621q132 0 225.5 -94t93.5 -226t-93.5 -225.5t-225.5 -93.5
t-226 93.5t-94 225.5t94 226t226 94zM1053 100q83 0 141.5 59t58.5 142t-58.5 142t-141.5 59t-142 -59t-59 -142t59 -142t142 -59zM377 1415q132 0 225.5 -93.5t93.5 -225.5t-93.5 -226t-225.5 -94t-226 94t-94 226t94 225.5t226 93.5zM377 895q83 0 142 59t59 142
t-59 141.5t-142 58.5t-142 -58.5t-59 -141.5t59 -142t142 -59zM1290 1397l-1022 -1397h-129l1022 1397h129z" />
    <glyph glyph-name="guilsinglleft" unicode="&#x2039;" horiz-adv-x="614" 
d="M532 0h-139l-344 459l344 461h139l-344 -461z" />
    <glyph glyph-name="guilsinglright" unicode="&#x203a;" horiz-adv-x="614" 
d="M82 920h139l344 -461l-344 -459h-139l344 459z" />
    <glyph glyph-name="fraction" unicode="&#x2044;" horiz-adv-x="385" 
d="M750 1415l-1006 -1470h-109l1006 1470h109z" />
    <glyph glyph-name="fraction" unicode="&#x2215;" horiz-adv-x="385" 
d="M750 1415l-1006 -1470h-109l1006 1470h109z" />
    <glyph glyph-name="Euro" unicode="&#x20ac;" horiz-adv-x="1103" 
d="M956 641l-30 -141h-584q31 -174 119 -273.5t219 -99.5q174 0 348 147v-165q-164 -127 -344 -127q-187 0 -320.5 144.5t-175.5 373.5h-161l30 141h115v53v62h-145l30 141h133q45 235 182.5 376.5t303.5 141.5q162 0 344 -117v-165q-174 137 -336 137q-130 0 -218.5 -100.5
t-121.5 -272.5h653l-30 -141h-641q-1 -9 -1 -19.5t0.5 -23t0.5 -19.5v-53h630z" />
    <glyph glyph-name="afii61289" unicode="&#x2113;" horiz-adv-x="950" 
d="M723 188l55 -84q-118 -131 -252 -131q-122 0 -177.5 82t-55.5 221v236l-117 -131l-65 76l182 207v477q0 174 63.5 262t173.5 88q50 0 89 -20t60.5 -52.5t32.5 -68t11 -72.5q0 -155 -77 -308t-210 -317v-379q0 -96 33.5 -140t87.5 -44q76 0 166 98zM612 1264
q0 45 -17 76.5t-56 31.5q-49 0 -76 -50t-27 -175v-330q78 104 127 224.5t49 222.5z" />
    <glyph glyph-name="trademark" unicode="&#x2122;" horiz-adv-x="1986" 
d="M551 582h-119v710h-266v105h651v-105h-266v-710zM909 582v815h178l205 -652l205 652h176v-815h-108v706l-226 -706h-96l-225 710v-710h-109z" />
    <glyph glyph-name="estimated" unicode="&#x212e;" horiz-adv-x="1304" 
d="M1206 569h-880v-391q127 -127 311 -127q271 0 420 258l73 -43q-98 -146 -211.5 -218.5t-281.5 -72.5q-167 0 -294.5 80t-194 214t-66.5 300q0 167 66 301.5t194 214.5t297 80q130 0 236 -46t176.5 -127t110 -189t44.5 -234zM952 645v313q-131 134 -315 134
q-185 0 -311 -129v-318h626z" />
    <glyph glyph-name="onethird" unicode="&#x2153;" horiz-adv-x="1705" 
d="M1411 1415l-1005 -1470h-109l1003 1470h111zM457 1405v-725h-115v725h115zM1135 31v98q103 -53 194 -53q71 0 111.5 36t40.5 91q0 131 -195 131v86q182 0 182 117q0 112 -147 112q-82 0 -172 -49v92q78 43 176 43q75 0 128.5 -18.5t80 -49t38 -61.5t11.5 -65
q0 -51 -28.5 -93.5t-90.5 -64.5q48 -13 79.5 -47.5t41.5 -66.5t10 -62q0 -56 -26 -100t-66.5 -68.5t-83.5 -36.5t-84 -12q-104 0 -200 41z" />
    <glyph glyph-name="twothirds" unicode="&#x2154;" horiz-adv-x="1705" 
d="M1423 1415l-1005 -1470h-109l1004 1470h110zM1135 31v98q103 -53 194 -53q71 0 111.5 36t40.5 91q0 131 -195 131v86q182 0 182 117q0 112 -147 112q-82 0 -172 -49v92q78 43 176 43q75 0 128.5 -18.5t80 -49t38 -61.5t11.5 -65q0 -51 -28.5 -93.5t-90.5 -64.5
q48 -13 79.5 -47.5t41.5 -66.5t10 -62q0 -56 -26 -100t-66.5 -68.5t-83.5 -36.5t-84 -12q-104 0 -200 41zM279 766h342v-86h-553v8q129 129 235 244q48 51 77.5 93t40 74t13 47.5t2.5 39.5q0 59 -40 101t-113 42q-104 0 -197 -108v122l20 13q20 14 33 20.5t38 17.5t54.5 16
t63.5 5q69 0 121.5 -21t80.5 -54.5t41 -69t13 -72.5q0 -82 -62 -180t-210 -252z" />
    <glyph glyph-name="oneeighth" unicode="&#x215b;" horiz-adv-x="1705" 
d="M1411 1415l-1005 -1470h-109l1003 1470h111zM457 1405v-725h-115v725h115zM1483 373q47 -25 79.5 -69t32.5 -105q0 -88 -74 -148.5t-186 -60.5q-111 0 -186.5 61t-75.5 148q0 16 4 34t14.5 44t36 51.5t62.5 44.5q-98 66 -98 159q0 83 71 143t174 60q100 0 172 -58.5
t72 -144.5q0 -98 -98 -159zM1468 532q0 48 -37.5 81.5t-95.5 33.5q-57 0 -95 -33t-38 -84q0 -53 43 -83.5t92 -30.5q54 0 92.5 31.5t38.5 84.5zM1481 207q0 48 -41.5 83.5t-106.5 35.5q-68 0 -106.5 -37.5t-38.5 -87.5q0 -51 41.5 -87t107.5 -36q67 0 105.5 36.5t38.5 92.5z
" />
    <glyph glyph-name="threeeighths" unicode="&#x215c;" horiz-adv-x="1705" 
d="M1411 1415l-1005 -1470h-109l1003 1470h111zM1483 373q47 -25 79.5 -69t32.5 -105q0 -88 -74 -148.5t-186 -60.5q-111 0 -186.5 61t-75.5 148q0 16 4 34t14.5 44t36 51.5t62.5 44.5q-98 66 -98 159q0 83 71 143t174 60q100 0 172 -58.5t72 -144.5q0 -98 -98 -159z
M1468 532q0 48 -37.5 81.5t-95.5 33.5q-57 0 -95 -33t-38 -84q0 -53 43 -83.5t92 -30.5q54 0 92.5 31.5t38.5 84.5zM1481 207q0 48 -41.5 83.5t-106.5 35.5q-68 0 -106.5 -37.5t-38.5 -87.5q0 -51 41.5 -87t107.5 -36q67 0 105.5 36.5t38.5 92.5zM131 711v98
q103 -53 195 -53q71 0 111 36t40 91q0 131 -194 131v86q182 0 182 117q0 112 -148 112q-82 0 -172 -49v92q78 43 177 43q75 0 128.5 -18.5t80 -49t38 -61.5t11.5 -65q0 -51 -28.5 -93.5t-90.5 -64.5q48 -13 79.5 -47.5t41.5 -66.5t10 -62q0 -56 -26 -100t-66.5 -68.5
t-83.5 -36.5t-84 -12q-105 0 -201 41z" />
    <glyph glyph-name="fiveeighths" unicode="&#x215d;" horiz-adv-x="1705" 
d="M1411 1415l-1005 -1470h-109l1003 1470h111zM1483 373q47 -25 79.5 -69t32.5 -105q0 -88 -74 -148.5t-186 -60.5q-111 0 -186.5 61t-75.5 148q0 16 4 34t14.5 44t36 51.5t62.5 44.5q-98 66 -98 159q0 83 71 143t174 60q100 0 172 -58.5t72 -144.5q0 -98 -98 -159z
M1468 532q0 48 -37.5 81.5t-95.5 33.5q-57 0 -95 -33t-38 -84q0 -53 43 -83.5t92 -30.5q54 0 92.5 31.5t38.5 84.5zM1481 207q0 48 -41.5 83.5t-106.5 35.5q-68 0 -106.5 -37.5t-38.5 -87.5q0 -51 41.5 -87t107.5 -36q67 0 105.5 36.5t38.5 92.5zM553 1407v-84h-274v-190
q117 4 192 -31q68 -32 97.5 -87.5t29.5 -109.5q0 -98 -78 -166.5t-205 -68.5q-102 0 -209 49v100q109 -61 199 -61q72 0 124 39t52 106q0 45 -21 76.5t-54.5 46.5t-62.5 21t-56 6q-60 0 -115 -17v371h381z" />
    <glyph glyph-name="seveneighths" unicode="&#x215e;" horiz-adv-x="1705" 
d="M1393 1415l-1006 -1470h-108l1003 1470h111zM1483 373q47 -25 79.5 -69t32.5 -105q0 -88 -74 -148.5t-186 -60.5q-111 0 -186.5 61t-75.5 148q0 16 4 34t14.5 44t36 51.5t62.5 44.5q-98 66 -98 159q0 83 71 143t174 60q100 0 172 -58.5t72 -144.5q0 -98 -98 -159z
M1468 532q0 48 -37.5 81.5t-95.5 33.5q-57 0 -95 -33t-38 -84q0 -53 43 -83.5t92 -30.5q54 0 92.5 31.5t38.5 84.5zM1481 207q0 48 -41.5 83.5t-106.5 35.5q-68 0 -106.5 -37.5t-38.5 -87.5q0 -51 41.5 -87t107.5 -36q67 0 105.5 36.5t38.5 92.5zM674 1409l-383 -739
l-101 37l320 616h-399v86h563z" />
    <glyph glyph-name="partialdiff" unicode="&#x2202;" horiz-adv-x="1099" 
d="M1018 1010q0 -191 -51 -402q-23 -93 -55.5 -178.5t-81.5 -169t-107.5 -144.5t-136.5 -98.5t-164 -37.5q-153 0 -246.5 102t-93.5 270q0 142 44 268t116 212.5t166.5 137t193.5 50.5q92 0 156.5 -39.5t95.5 -99.5h4q10 108 10 149q0 172 -69 254t-195 82q-92 0 -176 -49
l-39 108q38 26 104.5 44t129.5 18q185 0 290 -121.5t105 -355.5zM838 733q-23 78 -80.5 124t-145.5 46q-99 0 -186 -76.5t-138.5 -205.5t-51.5 -277q0 -114 52 -179t138 -65q140 0 249.5 171.5t162.5 461.5z" />
    <glyph glyph-name="product" unicode="&#x220f;" horiz-adv-x="1366" 
d="M1202 -471h-153v1771h-732v-1771h-153v1905h1038v-1905z" />
    <glyph glyph-name="summation" unicode="&#x2211;" horiz-adv-x="1206" 
d="M1122 -471h-1073v70l623 890l-578 863v82h979v-127h-788l544 -815l-583 -836h876v-127z" />
    <glyph glyph-name="minus" unicode="&#x2212;" horiz-adv-x="1366" 
d="M139 764h1088v-133h-1088v133z" />
    <glyph glyph-name="uni2219" unicode="&#x2219;" horiz-adv-x="491" 
d="M246 809q46 0 78 -32.5t32 -78.5t-32 -78t-78 -32t-78.5 32t-32.5 78t32.5 78.5t78.5 32.5z" />
    <glyph glyph-name="radical" unicode="&#x221a;" horiz-adv-x="944" 
d="M969 1491l-355 -1516h-131l-260 699l-106 -62l-51 93l231 137l248 -666l305 1315h119z" />
    <glyph glyph-name="infinity" unicode="&#x221e;" horiz-adv-x="1480" 
d="M1380 600q0 -135 -86.5 -228t-218.5 -93q-109 0 -197 59.5t-143 153.5h-4q-62 -94 -146.5 -153.5t-181.5 -59.5q-138 0 -226.5 87.5t-88.5 227.5q0 141 87 230t222 89q60 0 114 -19t95.5 -52t71 -67t53.5 -73h4q25 38 55 71.5t71.5 67t94.5 53t111 19.5
q134 0 223.5 -87.5t89.5 -225.5zM1247 600q0 86 -48 141.5t-138 55.5q-80 0 -143 -50.5t-123 -148.5q53 -97 121 -150t143 -53q92 0 140 58t48 147zM674 598q-52 88 -123 143.5t-143 55.5q-93 0 -141 -58t-48 -147q0 -86 53.5 -141.5t135.5 -55.5q145 0 266 203z" />
    <glyph glyph-name="integral" unicode="&#x222b;" horiz-adv-x="946" 
d="M815 1507l-33 -114q-32 16 -84 16q-76 0 -116.5 -51t-40.5 -146v-1339q0 -152 -76.5 -241t-218.5 -89q-79 0 -131 23l30 115q47 -15 84 -15q79 0 119.5 50.5t40.5 146.5v1341q0 151 77 239.5t222 88.5q37 0 74.5 -7.5t52.5 -17.5z" />
    <glyph glyph-name="approxequal" unicode="&#x2248;" horiz-adv-x="1271" 
d="M1108 860q-114 -170 -270 -170q-108 0 -215 66q-109 67 -187 67q-52 0 -99.5 -37t-82.5 -96l-88 94q55 81 117.5 125.5t152.5 44.5q115 0 213 -65q113 -68 187 -68q103 0 184 133zM1108 420q-112 -170 -270 -170q-110 0 -215 65q-111 68 -187 68q-53 0 -100 -37.5
t-82 -97.5l-88 96q55 81 117.5 125.5t152.5 44.5q109 0 213 -65q113 -68 187 -68q53 0 100.5 36.5t83.5 96.5z" />
    <glyph glyph-name="notequal" unicode="&#x2260;" horiz-adv-x="1271" 
d="M1071 315h-504l-123 -264h-139l125 264h-229v131h291l145 312h-436v131h495l127 276h142l-129 -276h235v-131h-297l-145 -312h442v-131z" />
    <glyph glyph-name="lessequal" unicode="&#x2264;" horiz-adv-x="1271" 
d="M1071 0h-870v131h870v-131zM1071 272l-870 404v92l870 401v-143l-674 -303v-4l674 -305v-142z" />
    <glyph glyph-name="greaterequal" unicode="&#x2265;" horiz-adv-x="1271" 
d="M1071 0h-870v131h870v-131zM1071 676l-870 -402v142l676 303v4l-676 305v141l870 -401v-92z" />
    <glyph glyph-name="lozenge" unicode="&#x25ca;" horiz-adv-x="1056" 
d="M553 1434l379 -717l-379 -717h-80l-377 715l377 719h80zM805 717l-291 553l-291 -553l289 -553z" />
    <glyph glyph-name="one.alt" unicode="&#xe000;" 
d="M567 1415h76v-1415h-154v1194l-329 -274l-58 118z" />
    <glyph glyph-name="zero.fitted" unicode="&#xf639;" 
d="M63 698q0 168 36.5 305.5t98.5 226.5t142.5 137t171.5 48t171.5 -48t142.5 -137t98.5 -226.5t36.5 -305.5t-36.5 -305.5t-98.5 -226t-142.5 -136.5t-171.5 -48t-171.5 48t-142.5 136.5t-98.5 226t-36.5 305.5zM807 698q0 155 -34 284t-102.5 209.5t-158.5 80.5
t-158.5 -80.5t-102.5 -209.5t-34 -284t34 -284t102 -209t157 -80q91 0 159.5 80t103 208.5t34.5 284.5z" />
    <glyph glyph-name="two.fitted" unicode="&#xf63a;" horiz-adv-x="972" 
d="M342 145h590v-145h-887v8q181 189 358 424q140 188 199.5 313t59.5 242q0 74 -27 131t-70.5 88.5t-90 47.5t-91.5 16q-55 0 -109 -20t-96 -52.5t-65.5 -55t-42.5 -44.5v186q154 131 329 131q174 0 295 -117.5t121 -293.5q0 -68 -17 -139t-54 -146.5t-74.5 -139.5
t-100.5 -148t-108 -140t-119 -146z" />
    <glyph glyph-name="three.fitted" unicode="&#xf63b;" horiz-adv-x="913" 
d="M49 57v156q150 -86 313 -86q48 0 95.5 14.5t91 43.5t71 81.5t27.5 120.5q0 33 -7.5 65.5t-30 70.5t-58.5 67t-99.5 48t-146.5 19v142q64 0 116 12.5t83.5 30.5t55 44.5t33.5 47.5t16 48t6.5 36.5t0.5 21.5q0 104 -76.5 169t-195.5 65q-143 0 -270 -80v145q130 76 280 76
q183 0 299.5 -98t116.5 -264q0 -61 -17.5 -112t-39 -81.5t-57 -58t-54.5 -38t-49 -24.5q248 -93 248 -346q0 -81 -26 -149.5t-69 -116t-99.5 -81t-117 -49t-122.5 -15.5q-174 0 -318 75z" />
    <glyph glyph-name="four.fitted" unicode="&#xf63c;" 
d="M786 1415v-790h177v-125h-177v-500h-145v500h-614v61l702 854h57zM250 625h391v477z" />
    <glyph glyph-name="five.fitted" unicode="&#xf63d;" horiz-adv-x="948" 
d="M780 1397v-135h-463v-400q40 4 74 4q113 0 203.5 -35.5t146.5 -96.5t85.5 -138t29.5 -164q0 -190 -126.5 -320t-330.5 -130q-168 0 -333 90v161q171 -106 321 -106q140 0 227.5 89.5t87.5 215.5q0 123 -91.5 211t-260.5 88q-111 0 -174 -22v688h604z" />
    <glyph glyph-name="six.fitted" unicode="&#xf63e;" horiz-adv-x="995" 
d="M653 1415l90 -115q-161 -128 -208 -172q-160 -148 -229 -319q-21 -54 -36 -111q129 84 265 84q171 0 281 -117.5t110 -275.5q0 -181 -121 -294t-289 -113q-199 0 -316.5 137.5t-117.5 353.5q0 105 23 206t58 180.5t88.5 158t101 133t110 111t101.5 87t89 66.5zM240 535
q-4 -46 -4 -86q0 -84 29.5 -156.5t94.5 -121t154 -48.5q107 0 182.5 70t75.5 186q0 49 -14.5 93.5t-45 83t-85 61t-125.5 22.5q-149 0 -262 -104z" />
    <glyph glyph-name="seven.fitted" unicode="&#xf63f;" horiz-adv-x="978" 
d="M950 1397l-635 -1415l-135 59l547 1210h-684v146h907z" />
    <glyph glyph-name="eight.fitted" unicode="&#xf640;" 
d="M733 721q102 -61 151.5 -141t49.5 -201q0 -167 -120.5 -282t-301.5 -115q-179 0 -300.5 115t-121.5 282q0 212 203 342q-180 132 -180 311q0 106 55 194.5t146.5 138.5t197.5 50t197.5 -50t146.5 -138.5t55 -194.5q0 -94 -46 -175.5t-132 -135.5zM512 784
q101 0 173.5 72.5t72.5 173.5t-72.5 172.5t-173.5 71.5t-173.5 -71.5t-72.5 -172.5t72.5 -173.5t173.5 -72.5zM512 639q-126 0 -197 -78t-71 -178q0 -109 76 -182.5t192 -73.5q122 0 195 78t73 182q0 115 -77.5 183.5t-190.5 68.5z" />
    <glyph glyph-name="nine.fitted" unicode="&#xf641;" horiz-adv-x="993" 
d="M344 -18l-90 114q161 128 208 172q160 148 229 319q21 54 36 111q-129 -84 -264 -84q-171 0 -281 118t-110 276q0 181 120.5 294t288.5 113q199 0 316.5 -137.5t117.5 -353.5q0 -105 -23 -206t-58 -180.5t-88.5 -158t-101 -133t-110 -111t-101.5 -87t-89 -66.5zM758 862
q4 46 4 86q0 84 -30 156.5t-95 121t-154 48.5q-107 0 -182.5 -70t-75.5 -186q0 -49 15 -93.5t45.5 -83t84.5 -61t126 -22.5q149 0 262 104z" />
    <glyph glyph-name="zero.taboldstyle" unicode="&#xf643;" 
d="M512 938q191 0 320 -130.5t129 -350.5q0 -114 -39 -207t-103 -150t-143 -87.5t-164 -30.5q-200 0 -325.5 135.5t-125.5 341.5q0 211 126 345t325 134zM205 459q0 -82 22 -145.5t55 -99.5t77 -59t81.5 -30.5t75.5 -7.5q58 0 110.5 20t96 60t69 108.5t25.5 157.5
q0 145 -84 242.5t-223 97.5q-127 0 -216 -90t-89 -254z" />
    <glyph glyph-name="one.taboldstyle" unicode="&#xf644;" 
d="M692 0h-143v711l-256 -189l-64 101l408 315h55v-938z" />
    <glyph glyph-name="two.taboldstyle" unicode="&#xf645;" 
d="M442 131h430v-131h-747v8q236 213 328 305q194 194 194 334q0 73 -45.5 116.5t-134.5 43.5q-84 0 -154 -41t-153 -119v162q88 65 140 89q85 40 177 40q146 0 230 -81.5t84 -188.5q0 -40 -12 -83t-26.5 -77t-48 -81.5t-54 -74t-68.5 -77.5t-67 -70.5t-73 -73.5z" />
    <glyph glyph-name="three.taboldstyle" unicode="&#xf646;" 
d="M123 920h747l-360 -617q89 -12 158.5 -47.5t110 -86t61 -107t20.5 -117.5q0 -173 -129 -294.5t-317 -121.5q-152 0 -291 86v147q146 -110 301 -110q131 0 212 81t81 197q0 137 -119.5 211.5t-300.5 44.5l346 602h-520v132z" />
    <glyph glyph-name="four.taboldstyle" unicode="&#xf647;" 
d="M637 0h-627v33l740 905h30v-819h224v-119h-224v-471h-143v471zM244 119h393v506z" />
    <glyph glyph-name="five.taboldstyle" unicode="&#xf648;" 
d="M926 920v-132h-459l-78 -469q101 3 184 -18.5t138.5 -59.5t93.5 -89t55 -105t17 -110q0 -170 -126 -289t-311 -119q-76 0 -148.5 18.5t-108 35t-85.5 44.5v160q52 -37 89.5 -59.5t104 -45t130.5 -22.5q150 0 230.5 75.5t80.5 190.5q0 93 -66 161.5t-182.5 95.5t-253.5 1
l117 736h578z" />
    <glyph glyph-name="six.taboldstyle" unicode="&#xf649;" 
d="M662 1415l86 -108q-109 -72 -196 -155.5t-142.5 -164t-89.5 -153t-50 -140.5q143 86 271 86q160 0 275.5 -108.5t115.5 -282.5q0 -173 -117 -290t-293 -117q-185 0 -308.5 131t-123.5 360q0 148 47.5 288.5t105 232.5t153 190t142 136t123.5 94zM244 537
q-22 -110 9 -207.5t103.5 -155t165.5 -57.5q112 0 189 74t77 188q0 108 -75 187t-205 79q-58 0 -114 -20.5t-83.5 -38.5t-66.5 -49z" />
    <glyph glyph-name="seven.taboldstyle" unicode="&#xf64a;" 
d="M938 920l-635 -1391l-131 53l569 1206h-635v132h832z" />
    <glyph glyph-name="eight.taboldstyle" unicode="&#xf64b;" 
d="M690 721q32 -15 55.5 -29t62 -45t63.5 -65t44 -88.5t19 -116.5q0 -161 -118.5 -278t-301.5 -117q-92 0 -172.5 32.5t-135.5 86.5t-86.5 125t-31.5 147q0 227 246 348q-33 21 -54.5 36t-55.5 45.5t-54 61t-35.5 76t-15.5 96.5q0 152 115 265.5t282 113.5q164 0 278.5 -112
t114.5 -263q0 -198 -219 -319zM512 1280q-107 0 -178.5 -74.5t-71.5 -171.5q0 -109 78 -177.5t176 -68.5q101 0 175.5 70t74.5 176q0 94 -72 170t-182 76zM508 645q-120 0 -195 -77t-75 -183q0 -110 78.5 -185t197.5 -75q120 0 195 76t75 186q0 117 -80 187.5t-196 70.5z
" />
    <glyph glyph-name="nine.taboldstyle" unicode="&#xf64c;" 
d="M358 -471l-88 106q76 48 142 102t110.5 99.5t83.5 99t60.5 89.5t41.5 83t27 66.5t17 52.5q-138 -88 -271 -88q-77 0 -147.5 28t-124.5 78t-86.5 124t-32.5 161q0 173 116.5 290.5t293.5 117.5q186 0 309 -132t123 -357q0 -105 -25 -207t-60.5 -180t-93 -156.5
t-103.5 -129.5t-112 -107.5t-98.5 -81t-81.5 -58.5zM778 383q11 36 8.5 81.5t-10 92t-31.5 91t-55 79t-80.5 55.5t-109.5 21q-112 0 -189.5 -74t-77.5 -188q0 -118 78.5 -192.5t200.5 -74.5q62 0 120.5 21.5t84 39.5t61.5 48z" />
    <glyph glyph-name="zero.denominator" unicode="&#xf655;" horiz-adv-x="661" 
d="M606 360q0 -176 -81 -273t-195 -97q-118 0 -197.5 96.5t-79.5 269.5q0 166 76.5 272.5t202.5 106.5q114 0 194 -99t80 -276zM492 362q0 124 -45 205.5t-117 81.5t-118 -80t-46 -207q0 -136 46.5 -211t115.5 -75q78 0 121 85t43 201z" />
    <glyph glyph-name="one.denominator" unicode="&#xf656;" horiz-adv-x="661" 
d="M389 725v-725h-115v725h115z" />
    <glyph glyph-name="two.denominator" unicode="&#xf657;" horiz-adv-x="661" 
d="M268 86h342v-86h-553v8q142 142 236 244q48 51 77.5 93t40 74t13 47.5t2.5 39.5q0 59 -40 101t-114 42q-103 0 -196 -108v123q3 2 17 11.5t24 15.5t29.5 15t38 14.5t45.5 10t55 4.5q69 0 121.5 -21t80.5 -54.5t41 -69t13 -72.5q0 -82 -62.5 -180t-210.5 -252z" />
    <glyph glyph-name="three.denominator" unicode="&#xf658;" horiz-adv-x="661" 
d="M82 31v98q103 -53 194 -53q71 0 111.5 36t40.5 91q0 131 -195 131v86q183 0 183 117q0 112 -148 112q-82 0 -172 -49v92q78 43 176 43q75 0 128.5 -18.5t80 -49t38 -61.5t11.5 -65q0 -51 -28 -93.5t-90 -64.5q48 -13 79.5 -47.5t41.5 -66.5t10 -62q0 -56 -26 -100
t-66.5 -68.5t-83.5 -36.5t-84 -12q-105 0 -201 41z" />
    <glyph glyph-name="four.denominator" unicode="&#xf659;" horiz-adv-x="661" 
d="M514 735v-403h104v-78h-104v-254h-111v254h-362v39l420 442h53zM403 332v221l-210 -221h210z" />
    <glyph glyph-name="five.denominator" unicode="&#xf65a;" horiz-adv-x="661" 
d="M530 727v-84h-274v-190q118 4 193 -31q47 -22 76.5 -59t39.5 -70.5t10 -67.5q0 -99 -77.5 -167t-204.5 -68q-102 0 -209 49v100q109 -61 199 -61q72 0 124 39t52 106q0 45 -21.5 76.5t-55 46.5t-62.5 21t-56 6q-59 0 -114 -17v371h380z" />
    <glyph glyph-name="six.denominator" unicode="&#xf65b;" horiz-adv-x="661" 
d="M420 739q11 -12 32 -35t33 -34q-125 -70 -204 -168q-40 -44 -72 -121q78 31 137 31q101 0 172.5 -58.5t71.5 -150.5t-72.5 -152.5t-179.5 -60.5q-48 0 -93.5 14t-85.5 43t-64.5 81.5t-24.5 121.5q0 80 28 152.5t79 133t109.5 108.5t133.5 95zM186 276q-4 -39 -2 -65
q6 -65 50 -100t102 -35q61 0 101 34t40 89q0 54 -42 90.5t-105 36.5q-72 0 -144 -50z" />
    <glyph glyph-name="seven.denominator" unicode="&#xf65c;" horiz-adv-x="661" 
d="M612 729l-383 -739l-100 37l320 616h-400v86h563z" />
    <glyph glyph-name="eight.denominator" unicode="&#xf65d;" horiz-adv-x="661" 
d="M479 373q48 -25 80.5 -69t32.5 -105q0 -88 -74 -148.5t-186 -60.5q-111 0 -186.5 61t-75.5 148q0 17 3.5 34.5t14 43.5t36 51.5t62.5 44.5q-98 66 -98 159q0 83 71.5 143t174.5 60q100 0 172 -58.5t72 -144.5q0 -97 -99 -159zM465 532q0 48 -37.5 81.5t-95.5 33.5
q-57 0 -95 -33t-38 -84q0 -53 43 -83.5t92 -30.5q54 0 92.5 31.5t38.5 84.5zM477 207q0 48 -41 83.5t-106 35.5q-68 0 -107 -37.5t-39 -87.5q0 -51 42 -87t108 -36q67 0 105 36.5t38 92.5z" />
    <glyph glyph-name="nine.denominator" unicode="&#xf65e;" horiz-adv-x="661" 
d="M238 -14q-10 11 -32 34t-32 35q44 28 76.5 51t75.5 60.5t75 83.5t50 98q-75 -31 -140 -31q-100 0 -170.5 59.5t-70.5 147.5q0 87 70 150t182 63q109 0 189.5 -68.5t80.5 -193.5q0 -78 -31.5 -154.5t-84.5 -138t-112.5 -110t-125.5 -86.5zM473 449q0 5 1 17.5t1 24.5
t-2 23q-2 23 -9.5 45t-23 44t-45.5 35t-71 13q-67 0 -104.5 -38.5t-37.5 -86.5q0 -54 42.5 -89.5t101.5 -35.5q77 0 147 48z" />
    <glyph glyph-name="zero.numerator" unicode="&#xf661;" horiz-adv-x="661" 
d="M606 1040q0 -176 -81 -273t-195 -97q-118 0 -197.5 96.5t-79.5 269.5q0 166 76.5 272.5t202.5 106.5q114 0 194 -99t80 -276zM492 1042q0 124 -45 205.5t-117 81.5t-118 -80t-46 -207q0 -136 46.5 -211t115.5 -75q78 0 121 85t43 201z" />
    <glyph glyph-name="one.numerator" unicode="&#xf662;" horiz-adv-x="661" 
d="M389 1405v-725h-115v725h115z" />
    <glyph glyph-name="two.numerator" unicode="&#xf663;" horiz-adv-x="661" 
d="M268 766h342v-86h-553v8q142 142 236 244q48 51 77.5 93t40 74t13 47.5t2.5 39.5q0 59 -40 101t-114 42q-103 0 -196 -108v122l20 13q20 14 33 20.5t38 17.5t54.5 16t63.5 5q69 0 121.5 -21t80.5 -54.5t41 -69t13 -72.5q0 -82 -62.5 -180t-210.5 -252z" />
    <glyph glyph-name="three.numerator" unicode="&#xf664;" horiz-adv-x="661" 
d="M82 711v98q103 -53 194 -53q71 0 111.5 36t40.5 91q0 131 -195 131v86q183 0 183 117q0 112 -148 112q-82 0 -172 -49v92q78 43 176 43q75 0 128.5 -18.5t80 -49t38 -61.5t11.5 -65q0 -51 -28 -93.5t-90 -64.5q48 -13 79.5 -47.5t41.5 -66.5t10 -62q0 -56 -26 -100
t-66.5 -68.5t-83.5 -36.5t-84 -12q-105 0 -201 41z" />
    <glyph glyph-name="four.numerator" unicode="&#xf665;" horiz-adv-x="661" 
d="M514 1415v-403h104v-78h-104v-254h-111v254h-362v39l420 442h53zM403 1012v221l-210 -221h210z" />
    <glyph glyph-name="five.numerator" unicode="&#xf666;" horiz-adv-x="661" 
d="M530 1407v-84h-274v-190q118 4 193 -31q47 -22 76.5 -59t39.5 -70.5t10 -67.5q0 -99 -77.5 -167t-204.5 -68q-102 0 -209 49v100q109 -61 199 -61q72 0 124 39t52 106q0 45 -21.5 76.5t-55 46.5t-62.5 21t-56 6q-59 0 -114 -17v371h380z" />
    <glyph glyph-name="six.numerator" unicode="&#xf667;" horiz-adv-x="661" 
d="M420 1419q11 -11 32 -34t33 -35q-125 -70 -204 -168q-40 -44 -72 -121q78 31 137 31q101 0 172.5 -58.5t71.5 -150.5t-72.5 -152.5t-179.5 -60.5q-48 0 -93.5 14t-85.5 43t-64.5 81.5t-24.5 121.5q0 80 28 152.5t79 133t109.5 108.5t133.5 95zM186 956q-4 -39 -2 -65
q6 -65 50 -100t102 -35q61 0 101 34t40 89q0 54 -42 90.5t-105 36.5q-72 0 -144 -50z" />
    <glyph glyph-name="seven.numerator" unicode="&#xf668;" horiz-adv-x="661" 
d="M612 1409l-383 -739l-100 37l320 616h-400v86h563z" />
    <glyph glyph-name="eight.numerator" unicode="&#xf669;" horiz-adv-x="661" 
d="M479 1053q48 -25 80.5 -69t32.5 -105q0 -88 -74 -148.5t-186 -60.5q-111 0 -186.5 61t-75.5 148q0 17 3.5 34.5t14 43.5t36 51.5t62.5 44.5q-98 66 -98 159q0 83 71.5 143t174.5 60q100 0 172 -58.5t72 -144.5q0 -97 -99 -159zM465 1212q0 48 -37.5 81.5t-95.5 33.5
q-57 0 -95 -33t-38 -84q0 -53 43 -83.5t92 -30.5q54 0 92.5 31.5t38.5 84.5zM477 887q0 48 -41 83.5t-106 35.5q-68 0 -107 -37.5t-39 -87.5q0 -51 42 -87t108 -36q67 0 105 36.5t38 92.5z" />
    <glyph glyph-name="nine.numerator" unicode="&#xf66a;" horiz-adv-x="661" 
d="M238 666q-10 12 -32 35t-32 34q44 28 76.5 51t75.5 60.5t75 83.5t50 98q-75 -31 -140 -31q-100 0 -170.5 59.5t-70.5 147.5q0 87 70 150t182 63q109 0 189.5 -68.5t80.5 -193.5q0 -78 -31.5 -154.5t-84.5 -138t-112.5 -110t-125.5 -86.5zM473 1128q0 5 1 17.5t1 25
t-2 23.5q-2 23 -9.5 45t-23 44t-45.5 35t-71 13q-67 0 -104.5 -38.5t-37.5 -86.5q0 -54 42.5 -89.5t101.5 -35.5q78 0 147 47z" />
    <glyph glyph-name="abreve.sc" unicode="&#xf66d;" horiz-adv-x="983" 
d="M702 270h-428l-116 -270h-144l430 989h91l434 -989h-144zM328 389h321l-164 395zM201 1333h108q25 -63 66 -99t112 -36t108 35.5t64 99.5h109q-75 -250 -283 -250q-114 0 -187.5 74.5t-96.5 175.5z" />
    <glyph glyph-name="amacron.sc" unicode="&#xf66e;" horiz-adv-x="983" 
d="M702 270h-428l-116 -270h-144l430 989h91l434 -989h-144zM328 389h321l-164 395zM791 1309v-129h-613v129h613z" />
    <glyph glyph-name="aogonek.sc" unicode="&#xf66f;" horiz-adv-x="983" 
d="M1049 -229v-107q-83 -20 -121 -20q-30 0 -61.5 9.5t-62 29.5t-50 57t-19.5 86q0 99 90 174l-123 270h-428l-116 -270h-144l430 989h91l434 -989h-35q-37 -42 -53.5 -71.5t-16.5 -63.5q0 -51 37.5 -79t75.5 -28q12 0 24.5 2t27.5 6t20 5zM328 389h321l-164 395z" />
    <glyph glyph-name="aeacute.sc" unicode="&#xf670;" horiz-adv-x="1288" 
d="M659 311h-313l-172 -311h-160l582 989h610v-123h-409v-309h399v-123h-399v-311h422v-123h-560v311zM418 434h241v430zM1116 1405l-274 -322h-90l180 322h184z" />
    <glyph glyph-name="cacute.sc" unicode="&#xf671;" horiz-adv-x="1015" 
d="M940 915v-151q-55 31 -90.5 48.5t-106 37.5t-139.5 20q-91 0 -164 -32t-117.5 -86t-68 -120.5t-23.5 -139.5q0 -81 24.5 -146.5t63 -107t88 -70t97 -40t92.5 -11.5q58 0 112.5 11t104.5 33t73.5 35t63.5 37v-151q-162 -100 -356 -100q-143 0 -260 66.5t-183.5 182.5
t-66.5 258q0 148 72 267t186 182t244 63q173 0 354 -86zM831 1405l-274 -322h-90l180 322h184z" />
    <glyph glyph-name="ccaron.sc" unicode="&#xf672;" horiz-adv-x="1015" 
d="M940 915v-151q-55 31 -90.5 48.5t-106 37.5t-139.5 20q-91 0 -164 -32t-117.5 -86t-68 -120.5t-23.5 -139.5q0 -81 24.5 -146.5t63 -107t88 -70t97 -40t92.5 -11.5q58 0 112.5 11t104.5 33t73.5 35t63.5 37v-151q-162 -100 -356 -100q-143 0 -260 66.5t-183.5 182.5
t-66.5 258q0 148 72 267t186 182t244 63q173 0 354 -86zM508 1083l-205 322h96l189 -201l188 201h94l-204 -322h-158z" />
    <glyph glyph-name="ccircumflex.sc" unicode="&#xf673;" horiz-adv-x="1015" 
d="M940 915v-151q-55 31 -90.5 48.5t-106 37.5t-139.5 20q-91 0 -164 -32t-117.5 -86t-68 -120.5t-23.5 -139.5q0 -81 24.5 -146.5t63 -107t88 -70t97 -40t92.5 -11.5q58 0 112.5 11t104.5 33t73.5 35t63.5 37v-151q-162 -100 -356 -100q-143 0 -260 66.5t-183.5 182.5
t-66.5 258q0 148 72 267t186 182t244 63q173 0 354 -86zM666 1405l204 -322h-96l-188 201l-189 -201h-94l205 322h158z" />
    <glyph glyph-name="cdotaccent.sc" unicode="&#xf674;" horiz-adv-x="1015" 
d="M940 915v-151q-55 31 -90.5 48.5t-106 37.5t-139.5 20q-91 0 -164 -32t-117.5 -86t-68 -120.5t-23.5 -139.5q0 -81 24.5 -146.5t63 -107t88 -70t97 -40t92.5 -11.5q58 0 112.5 11t104.5 33t73.5 35t63.5 37v-151q-162 -100 -356 -100q-143 0 -260 66.5t-183.5 182.5
t-66.5 258q0 148 72 267t186 182t244 63q173 0 354 -86zM586 1335q38 0 65 -27t27 -65t-27 -65t-65 -27t-65 27t-27 65t27 65t65 27z" />
    <glyph glyph-name="dcaron.sc" unicode="&#xf675;" horiz-adv-x="1087" 
d="M125 0v989h321q122 0 220.5 -30.5t160.5 -80t103.5 -115t58.5 -130.5t17 -133q0 -81 -22 -155t-68 -137t-111.5 -109t-157.5 -72.5t-201 -26.5h-321zM258 866v-743h193q195 0 301 100t106 273q0 174 -111.5 272t-295.5 98h-193zM406 1083l-205 322h96l188 -201l189 201
h94l-205 -322h-157z" />
    <glyph glyph-name="dcroat.sc" unicode="&#xf676;" horiz-adv-x="1087" 
d="M2 438v115h123v436h321q122 0 220.5 -30.5t160.5 -80t103.5 -115t58.5 -130.5t17 -133q0 -81 -22 -155t-68 -137t-111.5 -109t-157.5 -72.5t-201 -26.5h-321v438h-123zM258 866v-313h291v-115h-291v-315h193q195 0 301 100t106 273q0 174 -111.5 272t-295.5 98h-193z" />
    <glyph glyph-name="ebreve.sc" unicode="&#xf677;" horiz-adv-x="747" 
d="M676 989v-123h-414v-305h402v-123h-402v-315h426v-123h-563v989h551zM115 1333h108q25 -63 66 -99t112 -36t108 35.5t64 99.5h109q-75 -250 -283 -250q-114 0 -187.5 74.5t-96.5 175.5z" />
    <glyph glyph-name="ecaron.sc" unicode="&#xf678;" horiz-adv-x="747" 
d="M676 989v-123h-414v-305h402v-123h-402v-315h426v-123h-563v989h551zM315 1083l-204 322h96l188 -201l189 201h94l-205 -322h-158z" />
    <glyph glyph-name="edotaccent.sc" unicode="&#xf679;" horiz-adv-x="747" 
d="M676 989v-123h-414v-305h402v-123h-402v-315h426v-123h-563v989h551zM410 1335q38 0 65 -27t27 -65t-27 -65t-65 -27t-65.5 27t-27.5 65t27.5 65t65.5 27z" />
    <glyph glyph-name="emacron.sc" unicode="&#xf67a;" horiz-adv-x="747" 
d="M676 989v-123h-414v-305h402v-123h-402v-315h426v-123h-563v989h551zM707 1309v-129h-613v129h613z" />
    <glyph glyph-name="eng.sc" unicode="&#xf67b;" horiz-adv-x="1044" 
d="M799 270v240v47.5t-2 50t-6 54.5t-12.5 51.5t-20.5 50.5t-31.5 41t-43.5 35.5t-58.5 21t-75.5 8.5q-60 0 -107 -14t-81.5 -42t-54 -50.5t-44.5 -58.5v-705h-137v989h137v-121q58 61 127.5 97t171.5 36q116 0 205.5 -61t130.5 -162q37 -84 37 -260v-252
q0 -145 -66.5 -214.5t-175.5 -69.5q-36 0 -67 4l-21 123q67 -5 68 -5q69 0 98 39t29 127z" />
    <glyph glyph-name="eogonek.sc" unicode="&#xf67c;" horiz-adv-x="747" 
d="M688 -229v-107q-83 -20 -121 -20q-30 0 -61.5 9.5t-62 29.5t-49.5 57t-19 86q0 99 90 174h-340v989h551v-123h-414v-305h402v-123h-402v-315h426v-123h-115q-36 -41 -52.5 -71t-16.5 -64q0 -51 37 -79t75 -28q12 0 24.5 2t27.5 6t20 5z" />
    <glyph glyph-name="gbreve.sc" unicode="&#xf67d;" horiz-adv-x="1067" 
d="M944 913v-151q-174 108 -346 108q-68 0 -132 -24t-117 -69t-84.5 -118.5t-31.5 -164.5q0 -84 26.5 -152t66.5 -109.5t90 -69.5t94 -39t82 -11q123 0 235 47v202h-188v123h324v-411q-184 -92 -361 -92q-149 0 -268 70t-183.5 186t-64.5 254q0 137 62.5 252t182.5 186
t275 71q66 0 133 -15t108 -31t97 -42zM279 1333h108q25 -63 66 -99t112 -36t108 35.5t64 99.5h109q-75 -250 -283 -250q-114 0 -187.5 74.5t-96.5 175.5z" />
    <glyph glyph-name="gcircumflex.sc" unicode="&#xf67e;" horiz-adv-x="1067" 
d="M944 913v-151q-174 108 -346 108q-68 0 -132 -24t-117 -69t-84.5 -118.5t-31.5 -164.5q0 -84 26.5 -152t66.5 -109.5t90 -69.5t94 -39t82 -11q123 0 235 47v202h-188v123h324v-411q-184 -92 -361 -92q-149 0 -268 70t-183.5 186t-64.5 254q0 137 62.5 252t182.5 186
t275 71q66 0 133 -15t108 -31t97 -42zM649 1405l205 -322h-96l-189 201l-188 -201h-94l205 322h157z" />
    <glyph glyph-name="gcommaaccent.sc" unicode="&#xf67f;" horiz-adv-x="1067" 
d="M373 -436l6 98q54 -4 84 -4q166 0 166 76q0 35 -36 52.5t-82.5 17t-90.5 -0.5l18 99q23 2 68 2q39 0 77 -5t86.5 -20t78.5 -49.5t30 -85.5q0 -86 -82 -137t-225 -51q-62 0 -98 8zM944 913v-151q-174 108 -346 108q-68 0 -132 -24t-117 -69t-84.5 -118.5t-31.5 -164.5
q0 -84 26.5 -152t66.5 -109.5t90 -69.5t94 -39t82 -11q123 0 235 47v202h-188v123h324v-411q-184 -92 -361 -92q-149 0 -268 70t-183.5 186t-64.5 254q0 137 62.5 252t182.5 186t275 71q66 0 133 -15t108 -31t97 -42z" />
    <glyph glyph-name="gdotaccent.sc" unicode="&#xf680;" horiz-adv-x="1067" 
d="M944 913v-151q-174 108 -346 108q-68 0 -132 -24t-117 -69t-84.5 -118.5t-31.5 -164.5q0 -84 26.5 -152t66.5 -109.5t90 -69.5t94 -39t82 -11q123 0 235 47v202h-188v123h324v-411q-184 -92 -361 -92q-149 0 -268 70t-183.5 186t-64.5 254q0 137 62.5 252t182.5 186
t275 71q66 0 133 -15t108 -31t97 -42zM598 1335q38 0 65 -27t27 -65t-27 -65t-65 -27t-65 27t-27 65t27 65t65 27z" />
    <glyph glyph-name="hbar.sc" unicode="&#xf681;" horiz-adv-x="1058" 
d="M125 989h137v-176h535v176h137v-176h106v-115h-106v-698h-137v436h-535v-436h-137v698h-107v115h107v176zM262 559h535v139h-535v-139z" />
    <glyph glyph-name="hcircumflex.sc" unicode="&#xf682;" horiz-adv-x="1058" 
d="M125 989h137v-430h535v430h137v-989h-137v436h-535v-436h-137v989zM604 1405l205 -322h-96l-189 201l-188 -201h-94l204 322h158z" />
    <glyph glyph-name="ibreve.sc" unicode="&#xf683;" horiz-adv-x="385" 
d="M260 989v-989h-137v989h137zM-88 1333h108q53 -135 179 -135q71 0 108 35.5t64 99.5h108q-15 -51 -35.5 -91.5t-53 -78.5t-82 -59t-111.5 -21q-114 0 -188 74.5t-97 175.5z" />
    <glyph glyph-name="ij.sc" unicode="&#xf684;" horiz-adv-x="770" 
d="M260 989v-989h-137v989h137zM512 55v934h137v-981q0 -92 -25 -156t-66 -94t-79 -41.5t-80 -11.5q-45 0 -63 6l-12 113h55q68 0 100.5 55.5t32.5 175.5z" />
    <glyph glyph-name="imacron.sc" unicode="&#xf685;" horiz-adv-x="385" 
d="M260 989v-989h-137v989h137zM498 1309v-129h-613v129h613z" />
    <glyph glyph-name="iogonek.sc" unicode="&#xf686;" horiz-adv-x="385" 
d="M346 -229v-107q-82 -20 -121 -20q-30 0 -61.5 9.5t-62 29.5t-49.5 57t-19 86q0 99 90 174v989h137v-989h-29q-36 -41 -52.5 -71t-16.5 -64q0 -51 37 -79t75 -28q12 0 24.5 2t27.5 6t20 5z" />
    <glyph glyph-name="itilde.sc" unicode="&#xf687;" horiz-adv-x="385" 
d="M260 989v-989h-137v989h137zM-53 1135h-74q3 24 4 32.5t7 36.5t12.5 42.5t19.5 37.5t29 35t40.5 21.5t53.5 9.5q64 0 182 -50q90 -38 135 -38q23 0 39 8.5t24 26t11 27.5t6 30h74q0 -106 -51 -162.5t-117 -56.5q-57 0 -147 36q-3 1 -30 11.5t-39 15t-34 12t-37.5 10.5
t-27.5 3q-66 0 -80 -88z" />
    <glyph glyph-name="jcircumflex.sc" unicode="&#xf688;" horiz-adv-x="385" 
d="M127 55v934h137v-981q0 -92 -25 -156t-66 -94t-79 -41.5t-80 -11.5q-45 0 -63 6l-12 113h55q68 0 100.5 55.5t32.5 175.5zM270 1405l205 -322h-96l-189 201l-188 -201h-94l205 322h157z" />
    <glyph glyph-name="kcommaaccent.sc" unicode="&#xf689;" horiz-adv-x="903" 
d="M274 -436l7 98q54 -4 84 -4q165 0 165 76q0 35 -35.5 52.5t-82 17t-90.5 -0.5l18 99q23 2 68 2q39 0 77 -5t86.5 -20t78.5 -49.5t30 -85.5q0 -86 -82 -137t-225 -51q-63 0 -99 8zM123 989h137v-442l391 442h174l-430 -469l504 -520h-190l-449 459v-459h-137v989z" />
    <glyph glyph-name="lacute.sc" unicode="&#xf68a;" horiz-adv-x="724" 
d="M125 989h137v-866h438v-123h-575v989zM543 1405l-275 -322h-90l180 322h185z" />
    <glyph glyph-name="lcaron.sc" unicode="&#xf68b;" horiz-adv-x="724" 
d="M434 551v33q83 83 72 184q-90 29 -90 115q0 53 31.5 85.5t70.5 32.5q56 0 87.5 -46.5t31.5 -118.5q0 -25 -4 -51.5t-17 -62.5t-34 -66.5t-59.5 -59.5t-88.5 -45zM125 989h137v-866h438v-123h-575v989z" />
    <glyph glyph-name="lcommaaccent.sc" unicode="&#xf68c;" horiz-adv-x="724" 
d="M201 -436l6 98q54 -4 84 -4q166 0 166 76q0 35 -36 52.5t-82.5 17t-90.5 -0.5l18 99q23 2 68 2q39 0 77 -5t86.5 -20t78.5 -49.5t30 -85.5q0 -86 -82 -137t-225 -51q-62 0 -98 8zM125 989h137v-866h438v-123h-575v989z" />
    <glyph glyph-name="ldot.sc" unicode="&#xf68d;" horiz-adv-x="724" 
d="M125 989h137v-866h438v-123h-575v989zM483 645q38 0 65 -27t27 -65t-27 -65t-65 -27t-65 27t-27 65t27 65t65 27z" />
    <glyph glyph-name="nacute.sc" unicode="&#xf68e;" horiz-adv-x="1126" 
d="M238 989l630 -758v758h138v-989h-117l-631 758v-758h-137v989h117zM809 1405l-274 -322h-91l181 322h184z" />
    <glyph glyph-name="ncaron.sc" unicode="&#xf68f;" horiz-adv-x="1126" 
d="M238 989l630 -758v758h138v-989h-117l-631 758v-758h-137v989h117zM489 1083l-204 322h96l188 -201l189 201h94l-205 -322h-158z" />
    <glyph glyph-name="ncommaaccent.sc" unicode="&#xf690;" horiz-adv-x="1126" 
d="M377 -436l6 98q54 -4 84 -4q166 0 166 76q0 35 -36 52.5t-82.5 17t-90.5 -0.5l18 99q23 2 68 2q39 0 77 -5t86.5 -20t78.5 -49.5t30 -85.5q0 -86 -82 -137t-225 -51q-62 0 -98 8zM238 989l630 -758v758h138v-989h-117l-631 758v-758h-137v989h117z" />
    <glyph glyph-name="obreve.sc" unicode="&#xf691;" horiz-adv-x="1193" 
d="M1112 498q0 -137 -63.5 -254.5t-183.5 -189.5t-271 -72t-269.5 71.5t-180.5 187t-62 251.5q0 101 37 193.5t102.5 162.5t163 111.5t211.5 41.5q150 0 269.5 -71t183 -185t63.5 -247zM229 494q0 -98 45 -184.5t130.5 -141.5t191.5 -55q153 0 261 112.5t108 268.5
q0 152 -105 264t-262 112q-161 0 -265 -111.5t-104 -264.5zM315 1333h109q25 -63 66 -99t112 -36t108 35.5t64 99.5h109q-75 -250 -283 -250q-114 0 -188 74.5t-97 175.5z" />
    <glyph glyph-name="ohungarumlaut.sc" unicode="&#xf692;" horiz-adv-x="1193" 
d="M1112 498q0 -137 -63.5 -254.5t-183.5 -189.5t-271 -72t-269.5 71.5t-180.5 187t-62 251.5q0 101 37 193.5t102.5 162.5t163 111.5t211.5 41.5q150 0 269.5 -71t183 -185t63.5 -247zM229 494q0 -98 45 -184.5t130.5 -141.5t191.5 -55q153 0 261 112.5t108 268.5
q0 152 -105 264t-262 112q-161 0 -265 -111.5t-104 -264.5zM1026 1405l-268 -322h-90l174 322h184zM715 1405l-269 -322h-90l174 322h185z" />
    <glyph glyph-name="omacron.sc" unicode="&#xf693;" horiz-adv-x="1193" 
d="M1112 498q0 -137 -63.5 -254.5t-183.5 -189.5t-271 -72t-269.5 71.5t-180.5 187t-62 251.5q0 101 37 193.5t102.5 162.5t163 111.5t211.5 41.5q150 0 269.5 -71t183 -185t63.5 -247zM229 494q0 -98 45 -184.5t130.5 -141.5t191.5 -55q153 0 261 112.5t108 268.5
q0 152 -105 264t-262 112q-161 0 -265 -111.5t-104 -264.5zM903 1309v-129h-612v129h612z" />
    <glyph glyph-name="oslashacute.sc" unicode="&#xf694;" horiz-adv-x="1193" 
d="M426 156q45 -24 80 -33.5t90 -9.5q158 0 263.5 111t105.5 270q0 151 -105 264zM340 217l434 606q-73 47 -176 47q-83 0 -154.5 -34.5t-117 -89.5t-71.5 -120.5t-26 -129.5q0 -152 111 -279zM346 43l-45 -61h-129l86 120q-75 57 -125.5 166t-50.5 224q0 66 19 135.5
t60.5 136.5t100 119.5t145.5 85t189 32.5q136 0 260 -65l47 65h129l-90 -127q170 -148 170 -376q0 -118 -44 -217.5t-117 -163.5t-165.5 -99.5t-191.5 -35.5q-30 0 -54.5 1.5t-47 5.5t-35.5 6.5t-32.5 10.5t-26 11t-27.5 13.5zM860 1405l-274 -322h-90l180 322h184z" />
    <glyph glyph-name="racute.sc" unicode="&#xf695;" horiz-adv-x="888" 
d="M121 0v989h229q81 0 144.5 -15.5t103.5 -41t65.5 -61t35.5 -73t10 -79.5q0 -94 -51.5 -156.5t-122.5 -87.5q35 -24 76 -75t69 -95t69 -113q9 -15 13 -22q66 -113 119 -170h-168l-90 147q-80 127 -93 144q-50 68 -88 96q-60 45 -127 45h-57v-432h-137zM258 866v-311h72
q65 0 111.5 12t69.5 27.5t36 40t15.5 40.5t2.5 38q0 20 -3 36.5t-17 39.5t-37.5 38.5t-69.5 27t-108 11.5h-72zM645 1405l-274 -322h-90l180 322h184z" />
    <glyph glyph-name="rcaron.sc" unicode="&#xf696;" horiz-adv-x="888" 
d="M121 0v989h229q81 0 144.5 -15.5t103.5 -41t65.5 -61t35.5 -73t10 -79.5q0 -94 -51.5 -156.5t-122.5 -87.5q35 -24 76 -75t69 -95t69 -113q9 -15 13 -22q66 -113 119 -170h-168l-90 147q-80 127 -93 144q-50 68 -88 96q-60 45 -127 45h-57v-432h-137zM258 866v-311h72
q65 0 111.5 12t69.5 27.5t36 40t15.5 40.5t2.5 38q0 20 -3 36.5t-17 39.5t-37.5 38.5t-69.5 27t-108 11.5h-72zM324 1083l-205 322h96l188 -201l189 201h94l-205 -322h-157z" />
    <glyph glyph-name="rcommaaccent.sc" unicode="&#xf697;" horiz-adv-x="888" 
d="M283 -436l6 98q54 -4 84 -4q166 0 166 76q0 35 -36 52.5t-82.5 17t-90.5 -0.5l18 99q23 2 68 2q39 0 77 -5t86.5 -20t78.5 -49.5t30 -85.5q0 -86 -82 -137t-225 -51q-62 0 -98 8zM121 0v989h229q81 0 144.5 -15.5t103.5 -41t65.5 -61t35.5 -73t10 -79.5
q0 -94 -51.5 -156.5t-122.5 -87.5q35 -24 76 -75t69 -95t69 -113q9 -15 13 -22q66 -113 119 -170h-168l-90 147q-80 127 -93 144q-50 68 -88 96q-60 45 -127 45h-57v-432h-137zM258 866v-311h72q65 0 111.5 12t69.5 27.5t36 40t15.5 40.5t2.5 38q0 20 -3 36.5t-17 39.5
t-37.5 38.5t-69.5 27t-108 11.5h-72z" />
    <glyph glyph-name="sacute.sc" unicode="&#xf698;" horiz-adv-x="704" 
d="M596 942v-149q-107 77 -219 77q-84 0 -125 -40t-41 -89q0 -30 9 -50.5t46 -51t109 -66.5q152 -77 206 -144.5t54 -166.5q0 -128 -85 -204t-202 -76q-134 0 -262 84v161q135 -110 250 -110q84 0 124 43.5t40 97.5q0 23 -6 40.5t-24.5 42.5t-61 54t-109.5 62
q-128 64 -173.5 129.5t-45.5 146.5q0 117 81 192.5t210 75.5q119 0 225 -59zM625 1405l-275 -322h-90l180 322h185z" />
    <glyph glyph-name="scedilla.sc" unicode="&#xf699;" horiz-adv-x="704" 
d="M596 942v-149q-107 77 -219 77q-84 0 -125 -40t-41 -89q0 -30 9 -50.5t46 -51t109 -66.5q152 -77 206 -144.5t54 -166.5q0 -116 -70 -189.5t-174 -86.5l-22 -60q67 -3 111 -35.5t44 -99.5q0 -206 -377 -182l9 98q219 -3 219 80q0 66 -160 66l59 135q-97 15 -188 78v161
q135 -110 250 -110q84 0 124 43.5t40 97.5q0 23 -6 40.5t-24.5 42.5t-61 54t-109.5 62q-128 64 -173.5 129.5t-45.5 146.5q0 117 81 192.5t210 75.5q119 0 225 -59z" />
    <glyph glyph-name="scircumflex.sc" unicode="&#xf69a;" horiz-adv-x="704" 
d="M596 942v-149q-107 77 -219 77q-84 0 -125 -40t-41 -89q0 -30 9 -50.5t46 -51t109 -66.5q152 -77 206 -144.5t54 -166.5q0 -128 -85 -204t-202 -76q-134 0 -262 84v161q135 -110 250 -110q84 0 124 43.5t40 97.5q0 23 -6 40.5t-24.5 42.5t-61 54t-109.5 62
q-128 64 -173.5 129.5t-45.5 146.5q0 117 81 192.5t210 75.5q119 0 225 -59zM428 1405l205 -322h-96l-189 201l-188 -201h-94l204 322h158z" />
    <glyph glyph-name="scommaaccent.sc" unicode="&#xf69b;" horiz-adv-x="704" 
d="M152 -436l6 98q54 -4 84 -4q166 0 166 76q0 35 -36 52.5t-82.5 17t-90.5 -0.5l18 99q23 2 68 2q39 0 77 -5t86.5 -20t78.5 -49.5t30 -85.5q0 -86 -82 -137t-225 -51q-62 0 -98 8zM596 942v-149q-107 77 -219 77q-84 0 -125 -40t-41 -89q0 -30 9 -50.5t46 -51t109 -66.5
q152 -77 206 -144.5t54 -166.5q0 -128 -85 -204t-202 -76q-134 0 -262 84v161q135 -110 250 -110q84 0 124 43.5t40 97.5q0 23 -6 40.5t-24.5 42.5t-61 54t-109.5 62q-128 64 -173.5 129.5t-45.5 146.5q0 117 81 192.5t210 75.5q119 0 225 -59z" />
    <glyph glyph-name="tbar.sc" unicode="&#xf69c;" horiz-adv-x="874" 
d="M842 989v-123h-336v-323h278v-115h-278v-428h-137v428h-279v115h279v323h-336v123h809z" />
    <glyph glyph-name="tcaron.sc" unicode="&#xf69d;" horiz-adv-x="874" 
d="M842 989v-123h-336v-866h-137v866h-336v123h809zM356 1083l-204 322h96l188 -201l189 201h94l-205 -322h-158z" />
    <glyph glyph-name="tcommaaccent.sc" unicode="&#xf69e;" horiz-adv-x="874" 
d="M248 -436l6 98q54 -4 84 -4q166 0 166 76q0 35 -36 52.5t-82.5 17t-90.5 -0.5l18 99q23 2 68 2q39 0 77 -5t86.5 -20t78.5 -49.5t30 -85.5q0 -86 -82 -137t-225 -51q-62 0 -98 8zM842 989v-123h-336v-866h-137v866h-336v123h809z" />
    <glyph glyph-name="ubreve.sc" unicode="&#xf69f;" horiz-adv-x="1030" 
d="M104 989h138v-559q0 -83 23 -145.5t62 -98t86 -52.5t101 -17q125 0 199.5 74.5t74.5 238.5v559h138v-547q0 -226 -108 -343t-302 -117q-191 0 -301.5 117.5t-110.5 342.5v547zM233 1333h109q25 -63 66 -99t112 -36t108 35.5t64 99.5h109q-75 -250 -283 -250
q-114 0 -188 74.5t-97 175.5z" />
    <glyph glyph-name="uhungarumlaut.sc" unicode="&#xf6a0;" horiz-adv-x="1030" 
d="M104 989h138v-559q0 -83 23 -145.5t62 -98t86 -52.5t101 -17q125 0 199.5 74.5t74.5 238.5v559h138v-547q0 -226 -108 -343t-302 -117q-191 0 -301.5 117.5t-110.5 342.5v547zM924 1405l-269 -322h-90l174 322h185zM612 1405l-268 -322h-90l174 322h184z" />
    <glyph glyph-name="umacron.sc" unicode="&#xf6a1;" horiz-adv-x="1030" 
d="M104 989h138v-559q0 -83 23 -145.5t62 -98t86 -52.5t101 -17q125 0 199.5 74.5t74.5 238.5v559h138v-547q0 -226 -108 -343t-302 -117q-191 0 -301.5 117.5t-110.5 342.5v547zM825 1309v-129h-612v129h612z" />
    <glyph glyph-name="uogonek.sc" unicode="&#xf6a2;" horiz-adv-x="1030" 
d="M694 -229v-107q-82 -20 -121 -20q-30 0 -61.5 9.5t-62 29.5t-49.5 57t-19 86q0 93 74 160q-164 18 -257.5 134t-93.5 322v547h138v-559q0 -83 23 -145.5t62 -98t86 -52.5t101 -17q125 0 199.5 74.5t74.5 238.5v559h138v-547q0 -212 -94.5 -328t-264.5 -130
q-57 -67 -57 -119q0 -51 37.5 -79t75.5 -28q12 0 24.5 2t27 6t19.5 5z" />
    <glyph glyph-name="uring.sc" unicode="&#xf6a3;" horiz-adv-x="1030" 
d="M104 989h138v-559q0 -83 23 -145.5t62 -98t86 -52.5t101 -17q125 0 199.5 74.5t74.5 238.5v559h138v-547q0 -226 -108 -343t-302 -117q-191 0 -301.5 117.5t-110.5 342.5v547zM514 1075q-79 0 -134.5 55.5t-55.5 135.5t55.5 136t134.5 56q80 0 136.5 -56.5t56.5 -135.5
t-56.5 -135t-136.5 -56zM514 1163q43 0 73.5 30t30.5 73t-30.5 73.5t-73.5 30.5t-72.5 -30.5t-29.5 -73.5t29.5 -73t72.5 -30z" />
    <glyph glyph-name="utilde.sc" unicode="&#xf6a4;" horiz-adv-x="1030" 
d="M104 989h138v-559q0 -83 23 -145.5t62 -98t86 -52.5t101 -17q125 0 199.5 74.5t74.5 238.5v559h138v-547q0 -226 -108 -343t-302 -117q-191 0 -301.5 117.5t-110.5 342.5v547zM270 1135h-73q13 101 40 147q43 67 125 68q65 0 183 -50q90 -38 135 -38q23 0 39 8.5t24 26
t11 27.5t6 30h74q0 -106 -51 -162.5t-117 -56.5q-58 0 -148 36q-3 1 -30 11.5t-39 15t-34 12t-37.5 10.5t-27.5 3q-66 0 -80 -88z" />
    <glyph glyph-name="wacute.sc" unicode="&#xf6a5;" horiz-adv-x="1505" 
d="M801 989l268 -700l270 700h150l-395 -995h-52l-290 758l-289 -758h-51l-396 995h148l270 -700l271 700h96zM993 1405l-274 -322h-90l180 322h184z" />
    <glyph glyph-name="wcircumflex.sc" unicode="&#xf6a6;" horiz-adv-x="1505" 
d="M801 989l268 -700l270 700h150l-395 -995h-52l-290 758l-289 -758h-51l-396 995h148l270 -700l271 700h96zM831 1405l205 -322h-96l-188 201l-189 -201h-94l205 322h157z" />
    <glyph glyph-name="wdieresis.sc" unicode="&#xf6a7;" horiz-adv-x="1505" 
d="M801 989l268 -700l270 700h150l-395 -995h-52l-290 758l-289 -758h-51l-396 995h148l270 -700l271 700h96zM565 1335q38 0 65 -27t27 -65t-27 -65t-65 -27t-65 27t-27 65t27 65t65 27zM944 1335q38 0 65 -27t27 -65t-27 -65t-65 -27t-65 27t-27 65t27 65t65 27z" />
    <glyph glyph-name="wgrave.sc" unicode="&#xf6a8;" horiz-adv-x="1505" 
d="M801 989l268 -700l270 700h150l-395 -995h-52l-290 758l-289 -758h-51l-396 995h148l270 -700l271 700h96zM508 1405h184l182 -322h-90z" />
    <glyph glyph-name="ycircumflex.sc" unicode="&#xf6a9;" horiz-adv-x="899" 
d="M10 989h164l275 -393l276 393h164l-373 -522v-467h-137v467zM526 1405l205 -322h-96l-189 201l-188 -201h-94l205 322h157z" />
    <glyph glyph-name="ygrave.sc" unicode="&#xf6aa;" horiz-adv-x="899" 
d="M10 989h164l275 -393l276 393h164l-373 -522v-467h-137v467zM221 1405h185l182 -322h-90z" />
    <glyph glyph-name="zacute.sc" unicode="&#xf6ab;" horiz-adv-x="950" 
d="M903 0h-874v20l635 846h-584v123h823v-22l-631 -844h631v-123zM748 1405l-275 -322h-90l180 322h185z" />
    <glyph glyph-name="zdotaccent.sc" unicode="&#xf6ac;" horiz-adv-x="950" 
d="M903 0h-874v20l635 846h-584v123h823v-22l-631 -844h631v-123zM477 1335q38 0 65 -27t27 -65t-27 -65t-65 -27t-65 27t-27 65t27 65t65 27z" />
    <glyph glyph-name="idotaccent.sc" unicode="&#xf6ad;" horiz-adv-x="385" 
d="M260 989v-989h-137v989h137zM193 1335q38 0 65 -27t27 -65t-27 -65t-65 -27t-65.5 27t-27.5 65t27.5 65t65.5 27z" />
    <glyph glyph-name="one.fitted" unicode="&#xf6d6;" horiz-adv-x="446" 
d="M299 1397v-1397h-154v1397h154z" />
    <glyph glyph-name="one.fitted" unicode="&#xf6dc;" horiz-adv-x="446" 
d="M299 1397v-1397h-154v1397h154z" />
    <glyph glyph-name="lslash.sc" unicode="&#xf6f9;" horiz-adv-x="724" 
d="M260 557l209 178v-129l-209 -178v-303h440v-125h-575v311l-115 -94v129l115 94v549h135v-432z" />
    <glyph glyph-name="oe.sc" unicode="&#xf6fa;" horiz-adv-x="1306" 
d="M1229 989v-123h-410v-307h398v-123h-398v-313h422v-123h-631q-237 0 -384.5 141.5t-147.5 347.5q0 77 20.5 149.5t64 136.5t105 111.5t149 75t191.5 27.5h621zM682 123v743h-78q-120 0 -208 -53.5t-129.5 -136.5t-41.5 -182q0 -164 108.5 -267.5t270.5 -103.5h78z" />
    <glyph glyph-name="scaron.sc" unicode="&#xf6fd;" horiz-adv-x="704" 
d="M596 942v-149q-107 77 -219 77q-84 0 -125 -40t-41 -89q0 -30 9 -50.5t46 -51t109 -66.5q152 -77 206 -144.5t54 -166.5q0 -128 -85 -204t-202 -76q-134 0 -262 84v161q135 -110 250 -110q84 0 124 43.5t40 97.5q0 23 -6 40.5t-24.5 42.5t-61 54t-109.5 62
q-128 64 -173.5 129.5t-45.5 146.5q0 117 81 192.5t210 75.5q119 0 225 -59zM274 1083l-204 322h96l188 -201l189 201h94l-205 -322h-158z" />
    <glyph glyph-name="zcaron.sc" unicode="&#xf6ff;" horiz-adv-x="950" 
d="M903 0h-874v20l635 846h-584v123h823v-22l-631 -844h631v-123zM397 1083l-204 322h96l188 -201l189 201h94l-205 -322h-158z" />
    <glyph glyph-name="ampersand.sc" unicode="&#xf726;" horiz-adv-x="931" 
d="M713 231l202 -231h-174l-114 131q-52 -62 -132.5 -105.5t-172.5 -43.5q-104 0 -182.5 69.5t-78.5 177.5q0 75 49.5 146t168.5 147q-67 79 -90 130.5t-23 105.5q0 96 68.5 169.5t185.5 73.5q116 0 181 -71.5t65 -163.5q0 -144 -189 -268l150 -172q10 12 19.5 25.5t16 23.5
t13 24.5t10 22t8.5 23.5t6.5 20.5t6.5 22t6 20.5h141q-50 -160 -141 -277zM397 590q73 47 105.5 84.5t32.5 89.5q0 42 -31 77.5t-86 35.5q-53 0 -85 -33.5t-32 -81.5q0 -68 96 -172zM543 223l-181 205q-159 -83 -159 -186q0 -55 36 -89t95 -34q110 0 209 104z" />
    <glyph glyph-name="zero.oldstyle" unicode="&#xf730;" horiz-adv-x="1030" 
d="M516 938q191 0 320 -130.5t129 -350.5q0 -114 -39 -207t-103 -150t-143 -87.5t-164 -30.5q-200 0 -325 135t-125 342q0 211 125.5 345t324.5 134zM209 459q0 -82 22 -145.5t55 -99.5t77 -59t81.5 -30.5t75.5 -7.5q58 0 110.5 20t96 60t69 108.5t25.5 157.5
q0 145 -84 242.5t-223 97.5q-127 0 -216 -90t-89 -254z" />
    <glyph glyph-name="one.oldstyle" unicode="&#xf731;" horiz-adv-x="737" 
d="M541 0h-144v711l-256 -189l-63 101l407 315h56v-938z" />
    <glyph glyph-name="two.oldstyle" unicode="&#xf732;" horiz-adv-x="909" 
d="M385 131h430v-131h-747v8q226 203 327 305q195 195 195 334q0 73 -45.5 116.5t-134.5 43.5q-84 0 -154.5 -41t-153.5 -119v162q35 26 45.5 33.5t49.5 31.5t66 34t70.5 20t86.5 10q146 0 229.5 -81.5t83.5 -188.5q0 -40 -12 -83t-26.5 -77.5t-47.5 -81t-54 -74t-68 -77.5
t-67.5 -71t-72.5 -73z" />
    <glyph glyph-name="three.oldstyle" unicode="&#xf733;" horiz-adv-x="888" 
d="M55 920h748l-361 -617q90 -12 159 -47.5t110 -86t61.5 -107t20.5 -117.5q0 -173 -129.5 -294.5t-317.5 -121.5q-152 0 -291 86v147q146 -110 301 -110q131 0 212 81t81 197q0 137 -119.5 211.5t-300.5 44.5l346 602h-520v132z" />
    <glyph glyph-name="four.oldstyle" unicode="&#xf734;" 
d="M639 0h-627v33l740 905h30v-819h224v-119h-224v-471h-143v471zM246 119h393v506z" />
    <glyph glyph-name="five.oldstyle" unicode="&#xf735;" horiz-adv-x="935" 
d="M883 920v-132h-459l-78 -469q101 3 184 -18.5t138.5 -59.5t93.5 -89t55 -105t17 -110q0 -170 -126 -289t-311 -119q-76 0 -148.5 18.5t-108 35t-85.5 44.5v160q52 -37 89.5 -59.5t104 -45t130.5 -22.5q150 0 230.5 75.5t80.5 190.5q0 93 -66 161.5t-182.5 95.5t-253.5 1
l117 736h578z" />
    <glyph glyph-name="six.oldstyle" unicode="&#xf736;" horiz-adv-x="972" 
d="M637 1415l86 -108q-109 -72 -195.5 -155.5t-142 -164t-89.5 -153t-50 -140.5q40 24 68.5 38.5t86.5 31t115 16.5q160 0 275.5 -108.5t115.5 -282.5q0 -173 -116.5 -290t-292.5 -117q-185 0 -308.5 131t-123.5 360q0 84 15 166t38 149.5t61 135.5t72 118.5t83.5 105
t83.5 88t83.5 75t73 59t61.5 45.5zM219 537q-22 -110 9.5 -207.5t104 -155t165.5 -57.5q112 0 189 74t77 188q0 108 -75.5 187t-205.5 79q-58 0 -114 -20.5t-83.5 -38.5t-66.5 -49z" />
    <glyph glyph-name="seven.oldstyle" unicode="&#xf737;" horiz-adv-x="897" 
d="M874 920l-634 -1391l-131 53l569 1206h-635v132h831z" />
    <glyph glyph-name="eight.oldstyle" unicode="&#xf738;" horiz-adv-x="1001" 
d="M680 721q32 -15 55.5 -29t62 -45t63.5 -65t44 -88.5t19 -116.5q0 -161 -118.5 -278t-301.5 -117q-92 0 -172.5 32.5t-135.5 86.5t-86.5 125t-31.5 147q0 227 246 348q-33 21 -54.5 36t-55.5 45.5t-54 61t-35.5 76t-15.5 96.5q0 152 115 265.5t282 113.5q164 0 278.5 -112
t114.5 -263q0 -198 -219 -319zM502 1280q-107 0 -178.5 -74.5t-71.5 -171.5q0 -109 78 -177.5t176 -68.5q101 0 175.5 70t74.5 176q0 94 -72 170t-182 76zM498 645q-120 0 -195.5 -77t-75.5 -183q0 -110 79 -185t198 -75q120 0 195 76t75 186q0 117 -80 187.5t-196 70.5z
" />
    <glyph glyph-name="nine.oldstyle" unicode="&#xf739;" horiz-adv-x="972" 
d="M334 -471l-88 106q76 48 141.5 102t110.5 99.5t83.5 99.5t60 89.5t41.5 83t26.5 66.5t17.5 52q-138 -88 -270 -88q-77 0 -147.5 28t-124.5 78t-86.5 124t-32.5 161q0 173 116 290.5t293 117.5q186 0 309 -132t123 -357q0 -105 -25 -207t-60.5 -180t-92.5 -156.5
t-103.5 -129.5t-112 -107t-98.5 -81t-81 -59zM754 383q11 36 8.5 81.5t-10.5 92t-31.5 91t-55 79t-81 55.5t-109.5 21q-112 0 -189 -74t-77 -188q0 -118 78 -192.5t200 -74.5q62 0 120.5 21.5t85 40t61.5 47.5z" />
    <glyph glyph-name="a.sc" unicode="&#xf761;" horiz-adv-x="983" 
d="M702 270h-428l-116 -270h-144l430 989h91l434 -989h-144zM328 389h321l-164 395z" />
    <glyph glyph-name="b.sc" unicode="&#xf762;" horiz-adv-x="817" 
d="M125 0v989h229q78 0 139 -16.5t96.5 -42.5t58.5 -61t31.5 -67.5t8.5 -66.5q0 -44 -12 -79t-36 -60.5t-45.5 -41.5t-53.5 -34q119 -26 175 -87.5t56 -162.5q0 -126 -94 -198t-287 -72h-266zM262 866v-305h70q213 0 213 156q0 36 -5.5 57.5t-26 45t-67.5 35t-122 11.5h-62z
M262 438v-315h129q128 0 181 40t53 116q0 159 -254 159h-109z" />
    <glyph glyph-name="c.sc" unicode="&#xf763;" horiz-adv-x="1015" 
d="M940 915v-151q-55 31 -90.5 48.5t-106 37.5t-139.5 20q-91 0 -164 -32t-117.5 -86t-68 -120.5t-23.5 -139.5q0 -81 24.5 -146.5t63 -107t88 -70t97 -40t92.5 -11.5q58 0 112.5 11t104.5 33t73.5 35t63.5 37v-151q-162 -100 -356 -100q-143 0 -260 66.5t-183.5 182.5
t-66.5 258q0 148 72 267t186 182t244 63q173 0 354 -86z" />
    <glyph glyph-name="d.sc" unicode="&#xf764;" horiz-adv-x="1087" 
d="M125 0v989h321q122 0 220.5 -30.5t160.5 -80t103.5 -115t58.5 -130.5t17 -133q0 -81 -22 -155t-68 -137t-111.5 -109t-157.5 -72.5t-201 -26.5h-321zM258 866v-743h193q195 0 301 100t106 273q0 174 -111.5 272t-295.5 98h-193z" />
    <glyph glyph-name="e.sc" unicode="&#xf765;" horiz-adv-x="747" 
d="M676 989v-123h-414v-305h402v-123h-402v-315h426v-123h-563v989h551z" />
    <glyph glyph-name="f.sc" unicode="&#xf766;" horiz-adv-x="690" 
d="M645 989v-123h-383v-286h365v-123h-365v-457h-137v989h520z" />
    <glyph glyph-name="g.sc" unicode="&#xf767;" horiz-adv-x="1067" 
d="M944 913v-151q-174 108 -346 108q-68 0 -132 -24t-117 -69t-84.5 -118.5t-31.5 -164.5q0 -84 26.5 -152t66.5 -109.5t90 -69.5t94 -39t82 -11q123 0 235 47v202h-188v123h324v-411q-184 -92 -361 -92q-149 0 -268 70t-183.5 186t-64.5 254q0 137 62.5 252t182.5 186
t275 71q66 0 133 -15t108 -31t97 -42z" />
    <glyph glyph-name="h.sc" unicode="&#xf768;" horiz-adv-x="1058" 
d="M125 989h137v-430h535v430h137v-989h-137v436h-535v-436h-137v989z" />
    <glyph glyph-name="i.sc" unicode="&#xf769;" horiz-adv-x="385" 
d="M260 989v-989h-137v989h137z" />
    <glyph glyph-name="j.sc" unicode="&#xf76a;" horiz-adv-x="385" 
d="M127 55v934h137v-981q0 -92 -25 -156t-66 -94t-79 -41.5t-80 -11.5q-45 0 -63 6l-12 113h55q68 0 100.5 55.5t32.5 175.5z" />
    <glyph glyph-name="k.sc" unicode="&#xf76b;" horiz-adv-x="903" 
d="M123 989h137v-442l391 442h174l-430 -469l504 -520h-190l-449 459v-459h-137v989z" />
    <glyph glyph-name="l.sc" unicode="&#xf76c;" horiz-adv-x="724" 
d="M125 989h137v-866h438v-123h-575v989z" />
    <glyph glyph-name="m.sc" unicode="&#xf76d;" horiz-adv-x="1196" 
d="M598 526l363 463h114v-989h-137v750l-326 -422h-26l-328 422v-750h-137v989h115z" />
    <glyph glyph-name="n.sc" unicode="&#xf76e;" horiz-adv-x="1126" 
d="M238 989l630 -758v758h138v-989h-117l-631 758v-758h-137v989h117z" />
    <glyph glyph-name="o.sc" unicode="&#xf76f;" horiz-adv-x="1193" 
d="M1112 498q0 -137 -63.5 -254.5t-183.5 -189.5t-271 -72t-269.5 71.5t-180.5 187t-62 251.5q0 101 37 193.5t102.5 162.5t163 111.5t211.5 41.5q150 0 269.5 -71t183 -185t63.5 -247zM229 494q0 -98 45 -184.5t130.5 -141.5t191.5 -55q153 0 261 112.5t108 268.5
q0 152 -105 264t-262 112q-161 0 -265 -111.5t-104 -264.5z" />
    <glyph glyph-name="p.sc" unicode="&#xf770;" horiz-adv-x="768" 
d="M121 0v989h256q180 0 266 -76.5t86 -201.5q0 -279 -369 -279h-102v-432h-137zM258 866v-311h102q120 0 171 36.5t51 121.5q0 78 -47 115.5t-175 37.5h-102z" />
    <glyph glyph-name="q.sc" unicode="&#xf771;" horiz-adv-x="1193" 
d="M1063 -102l8 -9l-108 -120q-132 24 -230 71.5t-211 147.5q-57 6 -116.5 27.5t-118 63.5t-104 98.5t-73.5 138.5t-28 176q0 140 65.5 256.5t183.5 184.5t265 68q141 0 258.5 -63.5t187.5 -180.5t70 -263q0 -97 -30 -180.5t-75 -137.5t-101 -94.5t-103 -60t-86 -25.5
q88 -61 188 -92q90 -25 119 -25q17 0 39 19zM229 494q0 -98 45 -184.5t130.5 -141.5t191.5 -55q153 0 261 112.5t108 268.5q0 152 -105 264t-262 112q-161 0 -265 -111.5t-104 -264.5z" />
    <glyph glyph-name="r.sc" unicode="&#xf772;" horiz-adv-x="888" 
d="M121 0v989h229q81 0 144.5 -15.5t103.5 -41t65.5 -61t35.5 -73t10 -79.5q0 -94 -51.5 -156.5t-122.5 -87.5q35 -24 76 -75t69 -95t69 -113q9 -15 13 -22q66 -113 119 -170h-168l-90 147q-80 127 -93 144q-50 68 -88 96q-60 45 -127 45h-57v-432h-137zM258 866v-311h72
q65 0 111.5 12t69.5 27.5t36 40t15.5 40.5t2.5 38q0 20 -3 36.5t-17 39.5t-37.5 38.5t-69.5 27t-108 11.5h-72z" />
    <glyph glyph-name="s.sc" unicode="&#xf773;" horiz-adv-x="704" 
d="M596 942v-149q-107 77 -219 77q-84 0 -125 -40t-41 -89q0 -30 9 -50.5t46 -51t109 -66.5q152 -77 206 -144.5t54 -166.5q0 -128 -85 -204t-202 -76q-134 0 -262 84v161q135 -110 250 -110q84 0 124 43.5t40 97.5q0 23 -6 40.5t-24.5 42.5t-61 54t-109.5 62
q-128 64 -173.5 129.5t-45.5 146.5q0 117 81 192.5t210 75.5q119 0 225 -59z" />
    <glyph glyph-name="t.sc" unicode="&#xf774;" horiz-adv-x="874" 
d="M842 989v-123h-336v-866h-137v866h-336v123h809z" />
    <glyph glyph-name="u.sc" unicode="&#xf775;" horiz-adv-x="1030" 
d="M104 989h138v-559q0 -83 23 -145.5t62 -98t86 -52.5t101 -17q125 0 199.5 74.5t74.5 238.5v559h138v-547q0 -226 -108 -343t-302 -117q-191 0 -301.5 117.5t-110.5 342.5v547z" />
    <glyph glyph-name="v.sc" unicode="&#xf776;" horiz-adv-x="888" 
d="M420 -6l-408 995h146l286 -721l287 721h146l-406 -995h-51z" />
    <glyph glyph-name="w.sc" unicode="&#xf777;" horiz-adv-x="1505" 
d="M801 989l268 -700l270 700h150l-395 -995h-52l-290 758l-289 -758h-51l-396 995h148l270 -700l271 700h96z" />
    <glyph glyph-name="x.sc" unicode="&#xf778;" horiz-adv-x="1044" 
d="M23 0l415 510l-391 479h168l307 -375l305 375h170l-391 -479l414 -510h-168l-330 403l-329 -403h-170z" />
    <glyph glyph-name="y.sc" unicode="&#xf779;" horiz-adv-x="899" 
d="M10 989h164l275 -393l276 393h164l-373 -522v-467h-137v467z" />
    <glyph glyph-name="z.sc" unicode="&#xf77a;" horiz-adv-x="950" 
d="M903 0h-874v20l635 846h-584v123h823v-22l-631 -844h631v-123z" />
    <glyph glyph-name="agrave.sc" unicode="&#xf7e0;" horiz-adv-x="983" 
d="M702 270h-428l-116 -270h-144l430 989h91l434 -989h-144zM328 389h321l-164 395zM229 1405h185l182 -322h-90z" />
    <glyph glyph-name="aacute.sc" unicode="&#xf7e1;" horiz-adv-x="983" 
d="M702 270h-428l-116 -270h-144l430 989h91l434 -989h-144zM328 389h321l-164 395zM756 1405l-275 -322h-90l180 322h185z" />
    <glyph glyph-name="acircumflex.sc" unicode="&#xf7e2;" horiz-adv-x="983" 
d="M702 270h-428l-116 -270h-144l430 989h91l434 -989h-144zM328 389h321l-164 395zM571 1405l205 -322h-96l-188 201l-189 -201h-94l205 322h157z" />
    <glyph glyph-name="atilde.sc" unicode="&#xf7e3;" horiz-adv-x="983" 
d="M702 270h-428l-116 -270h-144l430 989h91l434 -989h-144zM328 389h321l-164 395zM248 1135h-74q3 24 4 32.5t7 36.5t12.5 42.5t19.5 37.5t29 35t40.5 21.5t53.5 9.5q64 0 182 -50q90 -38 135 -38q23 0 39 8.5t24 26t11 27.5t6 30h74q0 -106 -51 -162.5t-117 -56.5
q-57 0 -147 36q-3 1 -30 11.5t-39 15t-34 12t-37.5 10.5t-27.5 3q-66 0 -80 -88z" />
    <glyph glyph-name="adieresis.sc" unicode="&#xf7e4;" horiz-adv-x="983" 
d="M702 270h-428l-116 -270h-144l430 989h91l434 -989h-144zM328 389h321l-164 395zM303 1335q38 0 65 -27t27 -65t-27 -65t-65 -27t-65 27t-27 65t27 65t65 27zM682 1335q38 0 65 -27t27 -65t-27 -65t-65 -27t-65 27t-27 65t27 65t65 27z" />
    <glyph glyph-name="aring.sc" unicode="&#xf7e5;" horiz-adv-x="983" 
d="M702 270h-428l-116 -270h-144l430 989h91l434 -989h-144zM328 389h321l-164 395zM492 1075q-80 0 -135.5 55.5t-55.5 135.5t56 136t135 56q80 0 136 -56t56 -136q0 -79 -56 -135t-136 -56zM492 1163q43 0 73.5 30t30.5 73t-30.5 73.5t-73.5 30.5t-73 -30.5t-30 -73.5
t30 -73t73 -30z" />
    <glyph glyph-name="ae.sc" unicode="&#xf7e6;" horiz-adv-x="1288" 
d="M659 311h-313l-172 -311h-160l582 989h610v-123h-409v-309h399v-123h-399v-311h422v-123h-560v311zM418 434h241v430z" />
    <glyph glyph-name="ccedilla.sc" unicode="&#xf7e7;" horiz-adv-x="1015" 
d="M627 -18l-23 -56q68 -3 112 -35.5t44 -99.5q0 -206 -377 -182l8 98q219 -3 219 80q0 66 -159 66l61 137q-87 13 -163.5 53t-136 101.5t-94 151t-34.5 193.5q0 148 72 267t186 182t244 63q173 0 354 -86v-151q-55 31 -90.5 48.5t-106 37.5t-139.5 20q-118 0 -204.5 -54
t-127.5 -138.5t-41 -185.5q0 -81 24.5 -146.5t63 -107t88 -70t97 -40t92.5 -11.5q58 0 112.5 11t104.5 33t73.5 35t63.5 37v-151q-74 -46 -149 -68.5t-174 -31.5z" />
    <glyph glyph-name="egrave.sc" unicode="&#xf7e8;" horiz-adv-x="747" 
d="M676 989v-123h-414v-305h402v-123h-402v-315h426v-123h-563v989h551zM111 1405h184l182 -322h-90z" />
    <glyph glyph-name="eacute.sc" unicode="&#xf7e9;" horiz-adv-x="747" 
d="M676 989v-123h-414v-305h402v-123h-402v-315h426v-123h-563v989h551zM637 1405l-275 -322h-90l181 322h184z" />
    <glyph glyph-name="ecircumflex.sc" unicode="&#xf7ea;" horiz-adv-x="747" 
d="M676 989v-123h-414v-305h402v-123h-402v-315h426v-123h-563v989h551zM483 1405l205 -322h-96l-189 201l-188 -201h-94l205 322h157z" />
    <glyph glyph-name="edieresis.sc" unicode="&#xf7eb;" horiz-adv-x="747" 
d="M676 989v-123h-414v-305h402v-123h-402v-315h426v-123h-563v989h551zM215 1335q38 0 65 -27t27 -65t-27 -65t-65 -27t-65 27t-27 65t27 65t65 27zM594 1335q38 0 65 -27t27 -65t-27 -65t-65 -27t-65 27t-27 65t27 65t65 27z" />
    <glyph glyph-name="igrave.sc" unicode="&#xf7ec;" horiz-adv-x="385" 
d="M274 920v-920h-141v920h141zM-70 1405h185l182 -322h-90z" />
    <glyph glyph-name="iacute.sc" unicode="&#xf7ed;" horiz-adv-x="385" 
d="M274 920v-920h-141v920h141zM457 1405l-275 -322h-90l180 322h185z" />
    <glyph glyph-name="icircumflex.sc" unicode="&#xf7ee;" horiz-adv-x="385" 
d="M274 920v-920h-141v920h141zM272 1405l205 -322h-96l-188 201l-189 -201h-94l205 322h157z" />
    <glyph glyph-name="idieresis.sc" unicode="&#xf7ef;" horiz-adv-x="385" 
d="M274 920v-920h-141v920h141zM4 1335q38 0 65 -27t27 -65t-27 -65t-65 -27t-65 27t-27 65t27 65t65 27zM383 1335q38 0 65 -27t27 -65t-27 -65t-65 -27t-65 27t-27 65t27 65t65 27z" />
    <glyph glyph-name="eth.sc" unicode="&#xf7f0;" horiz-adv-x="1087" 
d="M125 432h-125v133h125v424h321q122 0 220.5 -30.5t160.5 -80t103.5 -115t58.5 -130.5t17 -133q0 -81 -22 -155t-68 -137t-111.5 -109t-157.5 -72.5t-201 -26.5h-321v432zM258 565h293v-133h-293v-309h193q195 0 301 100t106 273q0 174 -111.5 272t-295.5 98h-193v-301z
" />
    <glyph glyph-name="ntilde.sc" unicode="&#xf7f1;" horiz-adv-x="1126" 
d="M238 989l630 -758v758h138v-989h-117l-631 758v-758h-137v989h117zM319 1135h-73q3 24 4 32.5t7 36.5t12.5 42.5t19.5 37.5t29 35t40.5 21.5t53.5 9.5q64 0 182 -50q90 -38 135 -38q23 0 39 8.5t24 26t11 27.5t6 30h74q0 -106 -51 -162.5t-117 -56.5q-58 0 -148 36
q-3 1 -30 11.5t-39 15t-34 12t-37.5 10.5t-27.5 3q-66 0 -80 -88z" />
    <glyph glyph-name="ograve.sc" unicode="&#xf7f2;" horiz-adv-x="1193" 
d="M1112 498q0 -137 -63.5 -254.5t-183.5 -189.5t-271 -72t-269.5 71.5t-180.5 187t-62 251.5q0 101 37 193.5t102.5 162.5t163 111.5t211.5 41.5q150 0 269.5 -71t183 -185t63.5 -247zM229 494q0 -98 45 -184.5t130.5 -141.5t191.5 -55q153 0 261 112.5t108 268.5
q0 152 -105 264t-262 112q-161 0 -265 -111.5t-104 -264.5zM334 1405h184l182 -322h-90z" />
    <glyph glyph-name="oacute.sc" unicode="&#xf7f3;" horiz-adv-x="1193" 
d="M1112 498q0 -137 -63.5 -254.5t-183.5 -189.5t-271 -72t-269.5 71.5t-180.5 187t-62 251.5q0 101 37 193.5t102.5 162.5t163 111.5t211.5 41.5q150 0 269.5 -71t183 -185t63.5 -247zM229 494q0 -98 45 -184.5t130.5 -141.5t191.5 -55q153 0 261 112.5t108 268.5
q0 152 -105 264t-262 112q-161 0 -265 -111.5t-104 -264.5zM860 1405l-274 -322h-90l180 322h184z" />
    <glyph glyph-name="ocircumflex.sc" unicode="&#xf7f4;" horiz-adv-x="1193" 
d="M1112 498q0 -137 -63.5 -254.5t-183.5 -189.5t-271 -72t-269.5 71.5t-180.5 187t-62 251.5q0 101 37 193.5t102.5 162.5t163 111.5t211.5 41.5q150 0 269.5 -71t183 -185t63.5 -247zM229 494q0 -98 45 -184.5t130.5 -141.5t191.5 -55q153 0 261 112.5t108 268.5
q0 152 -105 264t-262 112q-161 0 -265 -111.5t-104 -264.5zM676 1405l205 -322h-97l-188 201l-188 -201h-95l205 322h158z" />
    <glyph glyph-name="otilde.sc" unicode="&#xf7f5;" horiz-adv-x="1193" 
d="M1112 498q0 -137 -63.5 -254.5t-183.5 -189.5t-271 -72t-269.5 71.5t-180.5 187t-62 251.5q0 101 37 193.5t102.5 162.5t163 111.5t211.5 41.5q150 0 269.5 -71t183 -185t63.5 -247zM229 494q0 -98 45 -184.5t130.5 -141.5t191.5 -55q153 0 261 112.5t108 268.5
q0 152 -105 264t-262 112q-161 0 -265 -111.5t-104 -264.5zM352 1135h-73q13 101 40 147q43 67 125 68q65 0 183 -50q90 -38 135 -38q23 0 39 8.5t24 26t11 27.5t6 30h73q0 -106 -50.5 -162.5t-116.5 -56.5q-58 0 -148 36q-3 1 -30 11.5t-39 15t-34 12t-37.5 10.5t-27.5 3
q-66 0 -80 -88z" />
    <glyph glyph-name="odieresis.sc" unicode="&#xf7f6;" horiz-adv-x="1193" 
d="M1112 498q0 -137 -63.5 -254.5t-183.5 -189.5t-271 -72t-269.5 71.5t-180.5 187t-62 251.5q0 101 37 193.5t102.5 162.5t163 111.5t211.5 41.5q150 0 269.5 -71t183 -185t63.5 -247zM229 494q0 -98 45 -184.5t130.5 -141.5t191.5 -55q153 0 261 112.5t108 268.5
q0 152 -105 264t-262 112q-161 0 -265 -111.5t-104 -264.5zM408 1335q38 0 65 -27t27 -65t-27 -65t-65 -27t-65.5 27t-27.5 65t27.5 65t65.5 27zM786 1335q38 0 65.5 -27t27.5 -65t-27.5 -65t-65.5 -27t-65 27t-27 65t27 65t65 27z" />
    <glyph glyph-name="oslash.sc" unicode="&#xf7f8;" horiz-adv-x="1193" 
d="M426 156q45 -24 80 -33.5t90 -9.5q158 0 263.5 111t105.5 270q0 151 -105 264zM340 217l434 606q-73 47 -176 47q-83 0 -154.5 -34.5t-117 -89.5t-71.5 -120.5t-26 -129.5q0 -152 111 -279zM346 43l-45 -61h-129l86 120q-75 57 -125.5 166t-50.5 224q0 66 19 135.5
t60.5 136.5t100 119.5t145.5 85t189 32.5q136 0 260 -65l47 65h129l-90 -127q170 -148 170 -376q0 -118 -44 -217.5t-117 -163.5t-165.5 -99.5t-191.5 -35.5q-30 0 -54.5 1.5t-47 5.5t-35.5 6.5t-32.5 10.5t-26 11t-27.5 13.5z" />
    <glyph glyph-name="ugrave.sc" unicode="&#xf7f9;" horiz-adv-x="1030" 
d="M104 989h138v-559q0 -83 23 -145.5t62 -98t86 -52.5t101 -17q125 0 199.5 74.5t74.5 238.5v559h138v-547q0 -226 -108 -343t-302 -117q-191 0 -301.5 117.5t-110.5 342.5v547zM252 1405h184l182 -322h-90z" />
    <glyph glyph-name="uacute.sc" unicode="&#xf7fa;" horiz-adv-x="1030" 
d="M104 989h138v-559q0 -83 23 -145.5t62 -98t86 -52.5t101 -17q125 0 199.5 74.5t74.5 238.5v559h138v-547q0 -226 -108 -343t-302 -117q-191 0 -301.5 117.5t-110.5 342.5v547zM778 1405l-274 -322h-90l180 322h184z" />
    <glyph glyph-name="ucircumflex.sc" unicode="&#xf7fb;" horiz-adv-x="1030" 
d="M104 989h138v-559q0 -83 23 -145.5t62 -98t86 -52.5t101 -17q125 0 199.5 74.5t74.5 238.5v559h138v-547q0 -226 -108 -343t-302 -117q-191 0 -301.5 117.5t-110.5 342.5v547zM594 1405l205 -322h-97l-188 201l-188 -201h-95l205 322h158z" />
    <glyph glyph-name="udieresis.sc" unicode="&#xf7fc;" horiz-adv-x="1030" 
d="M104 989h138v-559q0 -83 23 -145.5t62 -98t86 -52.5t101 -17q125 0 199.5 74.5t74.5 238.5v559h138v-547q0 -226 -108 -343t-302 -117q-191 0 -301.5 117.5t-110.5 342.5v547zM326 1335q38 0 65 -27t27 -65t-27 -65t-65 -27t-65.5 27t-27.5 65t27.5 65t65.5 27zM705 1335
q38 0 65 -27t27 -65t-27 -65t-65 -27t-65.5 27t-27.5 65t27.5 65t65.5 27z" />
    <glyph glyph-name="yacute.sc" unicode="&#xf7fd;" horiz-adv-x="899" 
d="M10 989h164l275 -393l276 393h164l-373 -522v-467h-137v467zM713 1405l-275 -322h-90l180 322h185z" />
    <glyph glyph-name="thorn.sc" unicode="&#xf7fe;" horiz-adv-x="768" 
d="M121 0v989h137v-215h119q176 0 264 -77t88 -201q0 -279 -369 -279h-102v-217h-137zM258 651v-311h102q120 0 171 36.5t51 121.5q0 78 -47 115.5t-175 37.5h-102z" />
    <glyph glyph-name="ydieresis.sc" unicode="&#xf7ff;" horiz-adv-x="899" 
d="M10 989h164l275 -393l276 393h164l-373 -522v-467h-137v467zM260 1335q38 0 65 -27t27 -65t-27 -65t-65 -27t-65 27t-27 65t27 65t65 27zM639 1335q38 0 65 -27t27 -65t-27 -65t-65 -27t-65 27t-27 65t27 65t65 27z" />
    <glyph glyph-name="_569" horiz-adv-x="0" 
 />
    </font>
</defs>
</svg>
